<svg xmlns="http://www.w3.org/2000/svg">
<defs>
<font id="JavaneseText" horiz-adv-x="0" >
  <font-face 
    font-family="Javanese Text"
    font-weight="400"
    font-stretch="normal"
    units-per-em="2048"
    panose-1="2 0 0 0 0 0 0 0 0 0"
    ascent="1638"
    descent="-410"
    x-height="847.001"
    cap-height="1453"
    bbox="-3330 -2089.01 5154 2470"
    underline-thickness="102"
    underline-position="-103"
    unicode-range="U+000D-U+A9DF"
  />
<missing-glyph horiz-adv-x="977" 
d="M1012 71c0 -47.333 -23.999 -71 -71.999 -71h-900c-50 0 -75 23.667 -75 71v1311c0 25.333 6.16699 43.5 18.5 54.5s31.166 16.5 56.499 16.5h900c24 0 42 -5.5 54 -16.5s18 -29.167 18 -54.5v-1311zM524.001 663c48 7.33301 90.3311 20.9971 126.998 40.9971
s67.334 44.333 92.001 73s43.167 60.667 55.5 96s18.5 72 18.5 110c0 40 -6.83301 78 -20.5 114s-34 67.667 -61 95s-60.667 49 -101 65s-87.5 24 -141.5 24c-27.333 0 -55.5 -2.16699 -84.5 -6.5s-56.167 -9.83301 -81.5 -16.5s-47.666 -13.834 -66.999 -21.501
s-33 -14.5 -41 -20.5c-11.333 -8.66699 -18.833 -16.834 -22.5 -24.501s-5.5 -16.167 -5.5 -25.5c0 -17.333 5.66699 -33.166 17 -47.499s25.333 -21.5 42 -21.5c8 0 17.667 2 29 6c6 2 14.167 5.33301 24.5 10s23 9.33398 38 14.001s32.333 8.83398 52 12.501
s41.5 5.5 65.5 5.5c38 0 69.833 -4.66699 95.5 -14s46.167 -22 61.5 -38s26.333 -34.667 33 -56s10 -44.333 10 -69c0 -44 -8 -78.667 -24 -104s-35 -44.666 -57 -57.999s-44.5 -22.166 -67.5 -26.499s-41.5 -7.16602 -55.5 -8.49902
c-4 -0.666992 -10.167 -1.83398 -18.5 -3.50098s-16.5 -5.16699 -24.5 -10.5s-15.167 -13.333 -21.5 -24s-9.5 -25 -9.5 -43v-191c0 -26.667 5.83301 -45.167 17.5 -55.5s29.167 -15.5 52.5 -15.5c24 0 42.167 5.16699 54.5 15.5s18.5 28.833 18.5 55.5v164z
M351.999 251.997c0 -27.333 9.33301 -50.5 28 -69.5s41.667 -28.5 69 -28.5c14 0 27.333 2.5 40 7.5s23.5 12 32.5 21s16.167 19.5 21.5 31.5s8 24.667 8 38c0 14 -2.66699 27 -8 39s-12.5 22.5 -21.5 31.5s-19.833 16 -32.5 21s-26 7.5 -40 7.5
c-27.333 0 -50.333 -9.5 -69 -28.5s-28 -42.5 -28 -70.5z" />
    <glyph glyph-name=".notdef" horiz-adv-x="977" 
d="M1012 71c0 -47.333 -23.999 -71 -71.999 -71h-900c-50 0 -75 23.667 -75 71v1311c0 25.333 6.16699 43.5 18.5 54.5s31.166 16.5 56.499 16.5h900c24 0 42 -5.5 54 -16.5s18 -29.167 18 -54.5v-1311zM524.001 663c48 7.33301 90.3311 20.9971 126.998 40.9971
s67.334 44.333 92.001 73s43.167 60.667 55.5 96s18.5 72 18.5 110c0 40 -6.83301 78 -20.5 114s-34 67.667 -61 95s-60.667 49 -101 65s-87.5 24 -141.5 24c-27.333 0 -55.5 -2.16699 -84.5 -6.5s-56.167 -9.83301 -81.5 -16.5s-47.666 -13.834 -66.999 -21.501
s-33 -14.5 -41 -20.5c-11.333 -8.66699 -18.833 -16.834 -22.5 -24.501s-5.5 -16.167 -5.5 -25.5c0 -17.333 5.66699 -33.166 17 -47.499s25.333 -21.5 42 -21.5c8 0 17.667 2 29 6c6 2 14.167 5.33301 24.5 10s23 9.33398 38 14.001s32.333 8.83398 52 12.501
s41.5 5.5 65.5 5.5c38 0 69.833 -4.66699 95.5 -14s46.167 -22 61.5 -38s26.333 -34.667 33 -56s10 -44.333 10 -69c0 -44 -8 -78.667 -24 -104s-35 -44.666 -57 -57.999s-44.5 -22.166 -67.5 -26.499s-41.5 -7.16602 -55.5 -8.49902
c-4 -0.666992 -10.167 -1.83398 -18.5 -3.50098s-16.5 -5.16699 -24.5 -10.5s-15.167 -13.333 -21.5 -24s-9.5 -25 -9.5 -43v-191c0 -26.667 5.83301 -45.167 17.5 -55.5s29.167 -15.5 52.5 -15.5c24 0 42.167 5.16699 54.5 15.5s18.5 28.833 18.5 55.5v164z
M351.999 251.997c0 -27.333 9.33301 -50.5 28 -69.5s41.667 -28.5 69 -28.5c14 0 27.333 2.5 40 7.5s23.5 12 32.5 21s16.167 19.5 21.5 31.5s8 24.667 8 38c0 14 -2.66699 27 -8 39s-12.5 22.5 -21.5 31.5s-19.833 16 -32.5 21s-26 7.5 -40 7.5
c-27.333 0 -50.333 -9.5 -69 -28.5s-28 -42.5 -28 -70.5z" />
    <glyph glyph-name="glyph1" 
 />
    <glyph glyph-name="glyph1" 
 />
    <glyph glyph-name="uni000D" unicode="&#xd;" horiz-adv-x="530" 
 />
    <glyph glyph-name="space" unicode=" " horiz-adv-x="530" 
 />
    <glyph glyph-name="space" unicode="&#xa0;" horiz-adv-x="530" 
 />
    <glyph glyph-name="exclam" unicode="!" horiz-adv-x="580" 
d="M312 1453c14 0 28.1709 -2.5 42.5039 -7.5s27.166 -12.833 38.499 -23.5s20.666 -24.334 27.999 -41.001s11 -36.667 11 -60c0 -19.333 -1.5 -41.333 -4.5 -66s-7 -54.167 -12 -88.5s-10.5 -74.333 -16.5 -120s-12.333 -99.167 -19 -160.5s-13 -131.5 -19 -210.5
s-11.333 -168.5 -16 -268.5h-66c-4.66699 100 -10 189.5 -16 268.5s-12.333 149.167 -19 210.5s-13 114.833 -19 160.5s-11.5 85.667 -16.5 120s-9 63.833 -12 88.5s-4.5 46.667 -4.5 66c0 23.333 3.66699 43.333 11 60s16.666 30.334 27.999 41.001
s24.166 18.5 38.499 23.5s28.5 7.5 42.5 7.5zM313.004 -28c-19.333 0 -37.501 3.33301 -54.501 10s-31.667 16 -44 28s-22 26.333 -29 43s-10.5 35 -10.5 55s3.66699 38.5 11 55.5s17.166 31.5 29.499 43.5s26.833 21.5 43.5 28.5s34.667 10.5 54 10.5
c18.667 0 36.334 -3.33301 53.001 -10s31.334 -16 44.001 -28s22.5 -26.333 29.5 -43s10.5 -35 10.5 -55s-3.66699 -38.5 -11 -55.5s-17.166 -31.667 -29.499 -44s-26.833 -21.833 -43.5 -28.5s-34.334 -10 -53.001 -10z" />
    <glyph glyph-name="quotedbl" unicode="&#x22;" horiz-adv-x="830" 
d="M140 1453c16.667 1.33301 33.333 2.5 50 3.5s33.334 1.5 50.001 1.5s33.167 -0.5 49.5 -1.5s33.166 -2.16699 50.499 -3.5l-70 -544c-10 -2 -20 -3 -30 -3s-20 1 -30 3zM489.999 1453c16.667 1.33301 33.333 2.5 50 3.5s33.334 1.5 50.001 1.5s33.167 -0.5 49.5 -1.5
s33.166 -2.16699 50.499 -3.5l-70 -544c-10 -2 -20 -3 -30 -3s-20 1 -30 3z" />
    <glyph glyph-name="numbersign" unicode="#" horiz-adv-x="1157" 
d="M412 1150c15.333 0 30 -0.833008 44 -2.5s28 -4.5 42 -8.5l-44 -320h315l45 331c15.333 0 30 -0.833008 44 -2.5s28 -4.5 42 -8.5l-44 -320h171v-89h-183l-42 -310h170v-89h-182l-45 -331c-30.667 -0 -59 3.33301 -85 10l43 321h-315l-45 -331
c-30.667 -0 -59 3.33301 -85 10l43 321h-171v89h183l42 310h-170v89h182zM400 420h315l42 310h-315z" />
    <glyph glyph-name="dollar" unicode="$" horiz-adv-x="1069" 
d="M502 494c-45.333 16 -89.502 32.502 -132.502 49.502s-81.167 37.833 -114.5 62.5s-60.166 55.167 -80.499 91.5s-30.5 81.5 -30.5 135.5c0 52 9.5 97.667 28.5 137s45 72.833 78 100.5s71.5 49.5 115.5 65.5s91 26 141 30v175h78v-173c52 -2 99.667 -9.5 143 -22.5
s80.5 -30.167 111.5 -51.5s55.167 -45.833 72.5 -73.5s26 -56.834 26 -87.501c0 -20.667 -3.5 -38 -10.5 -52s-16.167 -25.5 -27.5 -34.5s-23.833 -15.5 -37.5 -19.5s-26.834 -6 -39.501 -6c-16 0 -30.667 2.66699 -44 8s-24.833 12.666 -34.5 21.999
s-17.167 20.333 -22.5 33s-8 26.334 -8 41.001c0 18 4.33301 37.333 13 58s22.334 39.667 41.001 57c-12 8.66699 -25.5 16 -40.5 22s-30.667 11 -47 15s-32.666 7 -48.999 9s-31.833 3.33301 -46.5 4v-422c46 -15.333 91.333 -32 136 -50s84.667 -40 120 -66
s63.833 -57.333 85.5 -94s32.5 -81.667 32.5 -135c0 -52 -10.167 -98.167 -30.5 -138.5s-47.833 -74.5 -82.5 -102.5s-75 -50 -121 -66s-94.333 -26.333 -145 -31v-185h-78v182c-57.333 1.33301 -110 9.33301 -158 24s-89.333 33.834 -124 57.501s-61.667 50.667 -81 81
s-29 62.166 -29 95.499c0 36 11.167 66.333 33.5 91s52.5 37 90.5 37c15.333 0 30 -2.33301 44 -7s26.5 -11.834 37.5 -21.501s19.833 -22 26.5 -37s10 -32.5 10 -52.5c0 -23.333 -4.83301 -45.333 -14.5 -66s-25.167 -38.667 -46.5 -54c30.667 -25.333 65 -43 103 -53
s74 -15.667 108 -17v434zM303.998 889.002c0 -27.333 4.00195 -50.8311 12.002 -70.498s20.333 -36.834 37 -51.501s37.667 -28 63 -40s55.666 -24.333 90.999 -37v398c-28 -3.33301 -54.167 -9.33301 -78.5 -18s-45.833 -21 -64.5 -37s-33.334 -35.833 -44.001 -59.5
s-16 -51.834 -16 -84.501zM779 264.004c0 27.333 -4.16699 51.1689 -12.5 71.502s-20.666 38.333 -36.999 54s-37 30 -62 43s-54.167 25.5 -87.5 37.5v-407c27.333 3.33301 53.166 9.66602 77.499 18.999s45.5 22.166 63.5 38.499s32.167 36.333 42.5 60
s15.5 51.5 15.5 83.5z" />
    <glyph glyph-name="percent" unicode="%" horiz-adv-x="1831" 
d="M455 630c-53.333 0 -100.833 9.66699 -142.5 29s-76.667 46.833 -105 82.5s-50 78.834 -65 129.501s-22.5 107.667 -22.5 171c0 65.333 8.16699 124.333 24.5 177s39.5 97.5 69.5 134.5s66.667 65.333 110 85s92 29.5 146 29.5c52 0 98.5 -9.66699 139.5 -29
s75.667 -46.833 104 -82.5s50 -78.834 65 -129.501s22.5 -107.667 22.5 -171c0 -62 -7.33301 -119 -22 -171s-36.5 -96.833 -65.5 -134.5s-65 -67.167 -108 -88.5s-93.167 -32 -150.5 -32zM458 690c29.333 0 55.833 4.66699 79.5 14s44 27.166 61 53.499s30 63.333 39 111
s13.5 109.834 13.5 186.501c0 74.667 -4.33301 135.334 -13 182.001s-21 83 -37 109s-35.5 43.5 -58.5 52.5s-48.833 13.5 -77.5 13.5c-30 0 -56.833 -4.66699 -80.5 -14s-44 -27.166 -61 -53.499s-30 -63.333 -39 -111s-13.5 -109.834 -13.5 -186.501
c0 -74.667 4.33301 -135.334 13 -182.001s21 -83 37 -109s35.5 -43.5 58.5 -52.5s49.167 -13.5 78.5 -13.5zM1365 -28c-53.333 0 -100.833 9.66699 -142.5 29s-76.667 46.833 -105 82.5s-50 78.834 -65 129.501s-22.5 107.667 -22.5 171c0 65.333 8.16699 124.333 24.5 177
s39.5 97.5 69.5 134.5s66.667 65.333 110 85s92 29.5 146 29.5c52 0 98.5 -9.66699 139.5 -29s75.667 -46.833 104 -82.5s50 -78.834 65 -129.501s22.5 -107.667 22.5 -171c0 -62 -7.33301 -119 -22 -171s-36.5 -96.833 -65.5 -134.5s-65 -67.167 -108 -88.5
s-93.167 -32 -150.5 -32zM1368 32c29.333 0 55.833 4.66699 79.5 14s44 27.166 61 53.499s30 63.333 39 111s13.5 109.834 13.5 186.501c0 74.667 -4.33301 135.334 -13 182.001s-21 83 -37 109s-35.5 43.5 -58.5 52.5s-48.833 13.5 -77.5 13.5
c-30 0 -56.833 -4.66699 -80.5 -14s-44 -27.166 -61 -53.499s-30 -63.333 -39 -111s-13.5 -109.834 -13.5 -186.501c0 -74.667 4.33301 -135.334 13 -182.001s21 -83 37 -109s35.5 -43.5 58.5 -52.5s49.167 -13.5 78.5 -13.5zM1408 1487
c14 -6.66699 25.833 -13.668 35.5 -21.001s19.167 -15.666 28.5 -24.999l-1038 -1475c-13.333 6 -25 12.5 -35 19.5s-19.667 15.5 -29 25.5z" />
    <glyph glyph-name="ampersand" unicode="&#x26;" horiz-adv-x="1570" 
d="M1221 -28c-53.333 0 -103.827 10.834 -151.494 32.501s-96.834 56.5 -147.501 104.5c-52 -42 -108.5 -75.333 -169.5 -100s-126.167 -37 -195.5 -37c-58.667 0 -115.667 9.33301 -171 28s-104.5 45.667 -147.5 81s-77.667 78.5 -104 129.5s-39.5 108.833 -39.5 173.5
c0 60 11 112.667 33 158s50.333 85 85 119s73.5 63.333 116.5 88s85.167 46.667 126.5 66c-12 25.333 -23.5 51.166 -34.5 77.499s-20.833 52.666 -29.5 78.999s-15.5 52.5 -20.5 78.5s-7.5 51 -7.5 75c0 43.333 8.5 84.833 25.5 124.5s40.667 74.5 71 104.5
s66.833 54 109.5 72s90 27 142 27c38.667 0 75.834 -5.5 111.501 -16.5s67 -27.667 94 -50s48.667 -50.333 65 -84s24.5 -72.834 24.5 -117.501c0 -50.667 -10 -94.167 -30 -130.5s-46.5 -68.166 -79.5 -95.499s-70.667 -51.833 -113 -73.5l-129.5 -63.5
c20 -37.333 44.5 -79.833 73.5 -127.5l90.5 -144l92.5 -137.5c30.333 -43.333 57.166 -79.333 80.499 -108c25.333 32.667 48.5 67.167 69.5 103.5s39 72.666 54 108.999s27 71.833 36 106.5s14.5 67.334 16.5 98.001h-210v80h483v-80h-183
c-12.667 -83.333 -36.834 -167.166 -72.501 -251.499s-81.167 -161.833 -136.5 -232.5c46.667 -51.333 89.667 -88 129 -110s77.666 -33 114.999 -33c30 0 60 6 90 18s61 29 93 51c9.33301 -8.66699 17.166 -17 23.499 -25s13.166 -18 20.499 -30
c-51.333 -51.333 -101.833 -87 -151.5 -107s-98.834 -30 -147.501 -30zM863.006 173.001c-16.667 18.667 -35.501 41.668 -56.501 69.001l-66 90l-69.5 103.5l-67.5 108l-61 103.5c-19 33.333 -35.167 63.666 -48.5 90.999c-28.667 -18 -55.334 -37.667 -80.001 -59
s-46 -45.333 -64 -72s-32.167 -56.5 -42.5 -89.5s-15.5 -70.167 -15.5 -111.5c0 -56 9.16699 -104.833 27.5 -146.5s42.333 -76.167 72 -103.5s63.334 -47.833 101.001 -61.5s75.834 -20.5 114.501 -20.5c46 0 90.5 9 133.5 27s83.833 42 122.5 72zM872.005 1188
c0 32 -4.66895 59.666 -14.002 82.999s-21.666 42.5 -36.999 57.5s-33.166 26.167 -53.499 33.5s-41.5 11 -63.5 11c-24.667 0 -47.834 -4.16699 -69.501 -12.5s-40.667 -20.5 -57 -36.5s-29.166 -35.333 -38.499 -58s-14 -48.334 -14 -77.001
c0 -35.333 7.5 -77.666 22.5 -126.999s39.5 -107.333 73.5 -174c35.333 16.667 68.333 34.667 99 54s57.167 40.833 79.5 64.5s40 50.334 53 80.001s19.5 63.5 19.5 101.5z" />
    <glyph glyph-name="quotesingle" unicode="'" horiz-adv-x="480" 
d="M140 1453c16.667 1.33301 33.333 2.5 50 3.5s33.334 1.5 50.001 1.5s33.167 -0.5 49.5 -1.5s33.166 -2.16699 50.499 -3.5l-70 -544c-10 -2 -20 -3 -30 -3s-20 1 -30 3z" />
    <glyph glyph-name="parenleft" unicode="(" horiz-adv-x="1005" 
d="M520 0c0 -224 11.332 -427.66 33.999 -610.993s56.5 -352 101.5 -506s100.833 -296.333 167.5 -427s144 -255 232 -373c-15.333 -22.667 -36 -39.667 -62 -51c-59.333 66.667 -116.666 138.667 -171.999 216s-107.166 161.666 -155.499 252.999
s-92.5 190.166 -132.5 296.499s-74.333 221.166 -103 344.499s-50.834 256.166 -66.501 398.499s-23.5 295.5 -23.5 459.5c0 163.333 7.83301 316.333 23.5 459s37.834 275.667 66.501 399s63 238.166 103 344.499s84.167 205.166 132.5 296.499
s100.166 175.666 155.499 252.999s112.666 149.333 171.999 216c24.667 -11.333 45.334 -28.333 62.001 -51c-88 -118 -165.333 -242.333 -232 -373s-122.5 -273 -167.5 -427s-78.833 -322.667 -101.5 -506s-34 -387 -34 -611z" />
    <glyph glyph-name="parenright" unicode=")" horiz-adv-x="1005" 
d="M485 0c0 224 -11.333 427.661 -34 610.994s-56.5 352 -101.5 506s-100.833 296.333 -167.5 427s-144 255 -232 373c16.667 22.667 37.334 39.667 62.001 51c59.333 -66.667 116.666 -138.667 171.999 -216s107.166 -161.666 155.499 -252.999
s92.5 -190.166 132.5 -296.499s74.333 -221.166 103 -344.499s50.834 -256.333 66.501 -399s23.5 -295.667 23.5 -459s-7.83301 -316.333 -23.5 -459s-37.834 -275.667 -66.501 -399s-63 -238.166 -103 -344.499s-84.167 -205.166 -132.5 -296.499
s-100.166 -175.666 -155.499 -252.999s-112.666 -149.333 -171.999 -216c-24.667 11.333 -45.334 28.333 -62.001 51c88 118 165.333 242.333 232 373s122.5 273 167.5 427s78.833 322.667 101.5 506s34 387 34 611z" />
    <glyph glyph-name="asterisk" unicode="*" horiz-adv-x="973" 
d="M773 1213c25.333 0 45.0049 -7.83691 59.0049 -23.5039s21 -34.5 21 -56.5c0 -23.333 -7.16699 -42.333 -21.5 -57s-36.5 -22 -66.5 -22c-10.667 0 -22 1 -34 3l-42 7c-16 2.66699 -34.833 5 -56.5 7s-47.834 3 -78.501 3h-16c20.667 -36 40 -65.667 58 -89l47 -59.5
c13.333 -16.333 24 -30.666 32 -42.999s12 -25.833 12 -40.5c0 -23.333 -8 -42.5 -24 -57.5s-35.667 -22.5 -59 -22.5c-32.667 0 -56 16 -70 48c-4.66699 10.667 -8.33398 22.834 -11.001 36.501s-5.5 30 -8.5 49s-7.16699 40.833 -12.5 65.5s-13.333 53.334 -24 86.001
c-32 -35.333 -57.333 -66.333 -76 -93l-46.5 -67.5c-12.333 -18.333 -23.833 -32.166 -34.5 -41.499s-24.334 -14 -41.001 -14c-24.667 0 -45 8.33301 -61 25s-24 37.334 -24 62.001c0 17.333 4.66699 30.666 14 39.999s23.666 19.333 42.999 30l73.5 40
c29.667 16 65.167 39 106.5 69c-31.333 14 -58.833 24.833 -82.5 32.5s-44.667 14 -63 19l-48 13c-13.667 3.66699 -25.5 8.16699 -35.5 13.5c-15.333 8 -26.333 17.833 -33 29.5s-10 24.167 -10 37.5c0 10.667 2.16699 21.167 6.5 31.5s10.166 19.333 17.499 27
s16 13.834 26 18.501s20.667 7 32 7c14.667 0 28 -4.33301 40 -13s25.667 -20.5 41 -35.5l56.5 -54c22.333 -21 51.166 -43.833 86.499 -68.5c2 20.667 3.33301 39.5 4 56.5s1 32.833 1 47.5c0 23.333 -0.833008 44.333 -2.5 63s-2.5 34 -2.5 46
c0 33.333 7.83301 57.5 23.5 72.5s34.167 22.5 55.5 22.5c23.333 0 43 -7.33301 59 -22s24 -33.667 24 -57c0 -13.333 -2.83301 -26.5 -8.5 -39.5s-13.167 -28.333 -22.5 -46s-19.833 -39 -31.5 -64s-23.167 -56.167 -34.5 -93.5c36 6.66699 66.167 14.167 90.5 22.5
s45.333 16.166 63 23.499s33.334 13.5 47.001 18.5s27.5 7.5 41.5 7.5z" />
    <glyph glyph-name="plus" unicode="+" horiz-adv-x="1132" 
d="M1002 470v-88h-392v-392h-88v392h-392v88h392v392h88v-392h392z" />
    <glyph glyph-name="comma" unicode="," horiz-adv-x="580" 
d="M194 -291c24 21.333 46.498 43.0049 67.498 65.0049s39.5 44.667 55.5 68s28.667 47.5 38 72.5s14 51.5 14 79.5c0 9.33301 -0.5 18 -1.5 26s-2.16699 16.667 -3.5 26l-6 -1c-11.333 -24 -27.333 -41.5 -48 -52.5s-42.334 -16.5 -65.001 -16.5
c-15.333 0 -30.5 2.66699 -45.5 8s-28.333 13.166 -40 23.499s-21.167 23.166 -28.5 38.499s-11 32.666 -11 51.999c0 17.333 3 34.666 9 51.999s15 33 27 47s26.833 25.5 44.5 34.5s38.167 13.5 61.5 13.5c24 0 47.833 -5 71.5 -15s44.834 -24.667 63.501 -44
s33.834 -43.333 45.501 -72s17.5 -61.334 17.5 -98.001c0 -62.667 -17.833 -124.5 -53.5 -185.5s-89.167 -120.5 -160.5 -178.5c-11.333 8 -21.166 16.5 -29.499 25.5s-15.833 19.5 -22.5 31.5z" />
    <glyph glyph-name="hyphen" unicode="-" horiz-adv-x="765" 
d="M160 556h445v-151h-445v151z" />
    <glyph glyph-name="hyphen" unicode="&#xad;" horiz-adv-x="765" 
d="M160 556h445v-151h-445v151z" />
    <glyph glyph-name="period" unicode="." horiz-adv-x="580" 
d="M290 -28c-20 0 -38.833 3.49707 -56.5 10.4971s-32.834 16.667 -45.501 29s-22.667 27.166 -30 44.499s-11 36.333 -11 57s3.66699 39.834 11 57.501s17.5 32.834 30.5 45.501s28.167 22.5 45.5 29.5s36 10.5 56 10.5s38.5 -3.5 55.5 -10.5s32 -16.667 45 -29
s23.167 -27.166 30.5 -44.499s11 -36.333 11 -57c0 -21.333 -3.66699 -40.666 -11 -57.999s-17.5 -32.333 -30.5 -45s-28.167 -22.5 -45.5 -29.5s-35.666 -10.5 -54.999 -10.5z" />
    <glyph glyph-name="slash" unicode="/" horiz-adv-x="648" 
d="M560 1487c30 -2 57 -9.99902 81 -23.999l-549 -1811c-28.667 3.33301 -55.667 11.666 -81 24.999z" />
    <glyph glyph-name="zero" unicode="0" horiz-adv-x="1208" 
d="M595 -28c-77.333 0 -146 13.833 -206 41.5s-110.667 67.167 -152 118.5s-72.833 113.5 -94.5 186.5s-32.5 155.167 -32.5 246.5c0 94.667 11.667 179.834 35 255.501s57 140 101 193s97.167 93.833 159.5 122.5s132.5 43 210.5 43c76 0 144 -13.833 204 -41.5
s110.5 -67.167 151.5 -118.5s72.333 -113.5 94 -186.5s32.5 -154.833 32.5 -245.5c0 -89.333 -10.667 -171.5 -32 -246.5s-53 -139.833 -95 -194.5s-94.333 -97.334 -157 -128.001s-135.667 -46 -219 -46zM600 50c29.333 0 56.832 2.83301 82.499 8.5
s49.334 15.834 71.001 30.501s41.167 34.667 58.5 60s31.833 57.666 43.5 96.999s20.667 86.5 27 141.5s9.5 119.5 9.5 193.5c0 108.667 -6.66699 196.834 -20 264.501s-32.166 120.5 -56.499 158.5s-54 63.667 -89 77s-74.167 20 -117.5 20
c-44 0 -84.167 -6.83301 -120.5 -20.5s-67.166 -39.834 -92.499 -78.501s-45 -92.667 -59 -162s-21 -159.333 -21 -270c0 -72 3 -135 9 -189s14.667 -100.167 26 -138.5s25.166 -70 41.499 -95s35 -44.667 56 -59s44.167 -24.333 69.5 -30s52.666 -8.5 81.999 -8.5z" />
    <glyph glyph-name="one" unicode="1" horiz-adv-x="760" 
d="M480 1150v-1070h220v-80h-625v80h220v990h-240v80h425z" />
    <glyph glyph-name="two" unicode="2" horiz-adv-x="1143" 
d="M100 69l212.503 148.997c63 45.333 118.667 88.166 167 128.499s89.666 79.333 123.999 117s62.5 75.667 84.5 114s38.167 78.333 48.5 120s15.5 86.834 15.5 135.501c0 58 -6.5 104.5 -19.5 139.5s-30 62 -51 81s-44.667 31.667 -71 38s-52.833 9.5 -79.5 9.5
c-44.667 0 -86.167 -6.33301 -124.5 -19s-72.166 -32 -101.499 -58c19.333 -19.333 34 -40.666 44 -63.999s15 -45.666 15 -66.999c0 -30 -9.83301 -55.667 -29.5 -77s-48.167 -32 -85.5 -32c-16.667 0 -32.334 2.5 -47.001 7.5s-27.334 12.5 -38.001 22.5
s-19.167 22.333 -25.5 37s-9.5 31.667 -9.5 51c0 34.667 10 68.667 30 102s48.5 63 85.5 89s81.5 46.833 133.5 62.5s110.333 23.5 175 23.5c62.667 0 119 -7.83301 169 -23.5s92.333 -38 127 -67s61.167 -64.167 79.5 -105.5s27.5 -87.666 27.5 -138.999
c0 -44 -6.66699 -85.833 -20 -125.5s-31.5 -77.834 -54.5 -114.501s-50.333 -71.667 -82 -105s-65.834 -65.666 -102.501 -96.999s-75 -61.833 -115 -91.5l-121 -87.5l-89 -63l2 -5h328c45.333 0 81.333 2.16699 108 6.5s47.667 13.833 63 28.5s27 36.167 35 64.5
s16 66.833 24 115.5h76l-21 -370h-887v69z" />
    <glyph glyph-name="three" unicode="3" horiz-adv-x="1102" 
d="M320 414c-2.66699 13.333 -4.33301 26.998 -5 40.998s-1 27.667 -1 41c145.333 10.667 254.5 43.834 327.5 99.501s109.5 139.5 109.5 251.5c0 50.667 -7 92.5 -21 125.5s-32.5 59 -55.5 78s-49.333 32.167 -79 39.5s-60.5 11 -92.5 11
c-39.333 0 -79.833 -5.5 -121.5 -16.5s-79.167 -29.5 -112.5 -55.5c18.667 -17.333 32.5 -36.166 41.5 -56.499s13.5 -40.166 13.5 -59.499c0 -14 -2.66699 -27.5 -8 -40.5s-12.666 -24.5 -21.999 -34.5s-20.833 -17.833 -34.5 -23.5s-28.5 -8.5 -44.5 -8.5
c-12.667 0 -25.834 2 -39.501 6s-26.334 10.5 -38.001 19.5s-21.167 20.833 -28.5 35.5s-11 33 -11 55c0 33.333 9.66699 65.5 29 96.5s47.166 58.333 83.499 82s80.166 42.667 131.499 57s109 21.5 173 21.5c70.667 0 133.334 -8.83301 188.001 -26.5
s100.834 -41.5 138.501 -71.5s66.334 -65.167 86.001 -105.5s29.5 -83.5 29.5 -129.5c0 -40 -7.33301 -77.667 -22 -113s-35.5 -68 -62.5 -98s-59.833 -57.167 -98.5 -81.5s-81.667 -45.5 -129 -63.5v-6c46.667 -9.33301 91 -24.333 133 -45s78.833 -47 110.5 -79
s56.834 -69.667 75.501 -113s28 -91.666 28 -144.999c0 -56 -11 -108.833 -33 -158.5s-54.5 -93.167 -97.5 -130.5s-96.167 -67 -159.5 -89s-136.333 -33 -219 -33c-72.667 0 -135 8.16699 -187 24.5s-94.833 37 -128.5 62s-58.334 52.333 -74.001 82
s-23.5 58.167 -23.5 85.5c0 17.333 2.83301 33.666 8.5 48.999s14 28.833 25 40.5s24 20.834 39 27.501s32.167 10 51.5 10c15.333 0 30 -2.33301 44 -7s26.5 -11.834 37.5 -21.501s19.833 -21.834 26.5 -36.501s10 -32 10 -52c0 -23.333 -4.83301 -45.5 -14.5 -66.5
s-25.167 -39.167 -46.5 -54.5c16.667 -14 35 -25.167 55 -33.5s40.167 -14.833 60.5 -19.5s40.166 -7.83398 59.499 -9.50098s37 -2.5 53 -2.5c34 0 69 3.66699 105 11s68.833 22 98.5 44s54.167 53.667 73.5 95s29 96 29 164c0 53.333 -7.16699 100.833 -21.5 142.5
s-36.666 76.834 -66.999 105.501s-69 50.5 -116 65.5s-102.833 22.5 -167.5 22.5c-14.667 0 -29.667 -0.5 -45 -1.5s-31.333 -2.16699 -48 -3.5z" />
    <glyph glyph-name="four" unicode="4" horiz-adv-x="1174" 
d="M80 222l703 943h91v-896h230l-8 -132h-222v-312h-185v312h-609v85zM685 894l-466 -625h470v624z" />
    <glyph glyph-name="five" unicode="5" horiz-adv-x="1131" 
d="M252 477c-26.667 0 -52 4.66895 -76 14.002l40 659h718l-10 -166h-631l-26 -401l4 -2c42 20 85.333 34.667 130 44s88.334 14 131.001 14c70 0 135 -11.667 195 -35s111.667 -55.833 155 -97.5s77.333 -91.167 102 -148.5s37 -120 37 -188
c0 -64 -11.333 -124.833 -34 -182.5s-56.334 -108.5 -101.001 -152.5s-100.334 -79 -167.001 -105s-144 -39 -232 -39c-70.667 0 -131.334 8.16699 -182.001 24.5s-92.334 37 -125.001 62s-56.667 52.333 -72 82s-23 58.167 -23 85.5c0 17.333 2.83301 33.666 8.5 48.999
s14 28.833 25 40.5s24 20.834 39 27.501s32.167 10 51.5 10c15.333 0 30 -2.33301 44 -7s26.5 -11.834 37.5 -21.501s19.833 -21.834 26.5 -36.501s10 -32 10 -52c0 -23.333 -5.16699 -45.666 -15.5 -66.999s-26.166 -39.666 -47.499 -54.999
c16.667 -13.333 34.667 -24.166 54 -32.499s38.5 -14.833 57.5 -19.5s37.5 -7.83398 55.5 -9.50098s34 -2.5 48 -2.5c25.333 0 51.333 2.16699 78 6.5s52.334 12 77.001 23s48 25.833 70 44.5s41.167 42.167 57.5 70.5s29.166 62.166 38.499 101.499s14 85 14 137
c0 75.333 -9.66699 138.166 -29 188.499s-44.666 90.5 -75.999 120.5s-67.166 51.333 -107.499 64s-81.5 19 -123.5 19c-46 0 -88.167 -6 -126.5 -18s-71.5 -28.333 -99.5 -49z" />
    <glyph glyph-name="six" unicode="6" horiz-adv-x="1190" 
d="M354 740c20.667 29.333 43.6738 53.002 69.0068 71.002s51.166 32 77.499 42s52.166 16.833 77.499 20.5s48.333 5.5 69 5.5c59.333 0 114.666 -10.833 165.999 -32.5s96 -51.834 134 -90.501s68 -84.667 90 -138s33 -111.666 33 -174.999
c0 -59.333 -9.83301 -117.333 -29.5 -174s-48.834 -107 -87.501 -151s-86.834 -79.333 -144.501 -106s-124.167 -40 -199.5 -40c-63.333 0 -123.333 10.667 -180 32s-106.5 56.5 -149.5 105.5s-77 113.5 -102 193.5s-37.5 178.667 -37.5 296
c0 73.333 5.16699 145.833 15.5 217.5s26 139.5 47 203.5s47.167 123.167 78.5 177.5s67.833 101.333 109.5 141s88.667 70.667 141 93s110.166 33.5 173.499 33.5c42 0 82.5 -5.16699 121.5 -15.5s73.5 -24.833 103.5 -43.5s54 -41.167 72 -67.5s27 -55.833 27 -88.5
c0 -20.667 -3.5 -38.167 -10.5 -52.5s-15.833 -26 -26.5 -35s-22.834 -15.5 -36.501 -19.5s-26.834 -6 -39.501 -6c-32 0 -58 10 -78 30s-30 44.333 -30 73c0 17.333 4.33301 36 13 56s22 38.667 40 56c-12 8 -24.833 14.5 -38.5 19.5s-27.334 8.83301 -41.001 11.5
s-26.834 4.33398 -39.501 5.00098s-23.667 1 -33 1c-27.333 0 -54.5 -2.83301 -81.5 -8.5s-53.167 -16.834 -78.5 -33.501s-49.166 -39.834 -71.499 -69.501s-42.166 -68.5 -59.499 -116.5s-32.166 -106.333 -44.499 -175s-20.833 -150.334 -25.5 -245.001zM620.007 48.002
c37.333 0 70.999 6.33301 100.999 19s55.5 34 76.5 64s37.167 70 48.5 120s17 112.333 17 187c0 70 -5.16699 128.333 -15.5 175s-25.333 84.167 -45 112.5s-44 48.333 -73 60s-61.833 17.5 -98.5 17.5c-38.667 0 -75 -6 -109 -18s-63.5 -32.333 -88.5 -61
s-44.833 -67.167 -59.5 -115.5s-22 -108.833 -22 -181.5c0 -44 3.66699 -88.5 11 -133.5s20.833 -85.667 40.5 -122s46.834 -66 81.501 -89s79.667 -34.5 135 -34.5z" />
    <glyph glyph-name="seven" unicode="7" horiz-adv-x="1032" 
d="M932 1150v-70.0059l-225 -538c-30 -71.333 -55 -135.333 -75 -192s-36 -106.667 -48 -150s-20.5 -81 -25.5 -113s-7.5 -59 -7.5 -81c0 -26.667 2.66699 -47.5 8 -62.5s11.166 -28.167 17.499 -39.5s12.166 -22.666 17.499 -33.999s8 -26.666 8 -45.999
c0 -20 -3.16699 -37.667 -9.5 -53s-14.833 -28.166 -25.5 -38.499s-23 -18.166 -37 -23.499s-28.333 -8 -43 -8c-16 0 -31.667 3 -47 9s-29.166 15 -41.499 27s-22.166 26.667 -29.499 44s-11 37 -11 59c0 24.667 4.33301 53.334 13 86.001s20.5 68.834 35.5 108.501
s32.5 82.667 52.5 129l63 147.5l285 673h-392c-47.333 0 -85 -2 -113 -6s-50 -13.167 -66 -27.5s-28 -35.5 -36 -63.5s-16 -66.333 -24 -115h-76v378h832z" />
    <glyph glyph-name="eight" unicode="8" horiz-adv-x="1180" 
d="M765 767c34.667 -18 70.1699 -38.4951 106.503 -61.4951s69.166 -49.667 98.499 -80s53.333 -65.5 72 -105.5s28 -86 28 -138c0 -59.333 -12.5 -114 -37.5 -164s-59.5 -93.333 -103.5 -130s-95.833 -65.334 -155.5 -86.001s-123.834 -31 -192.501 -31
c-61.333 0 -120.5 8.5 -177.5 25.5s-107.167 41.5 -150.5 73.5s-78 71.333 -104 118s-39 100 -39 160c0 78 24.167 148 72.5 210s122.166 120 221.499 174v7c-32.667 17.333 -64.5 37.333 -95.5 60s-58.5 48.5 -82.5 77.5s-43.333 61.667 -58 98s-22 77.166 -22 122.499
c0 57.333 12.167 108.666 36.5 153.999s57.333 83.833 99 115.5s90.334 56 146.001 73s114.5 25.5 176.5 25.5c65.333 0 124 -8.83301 176 -26.5s96.167 -41.834 132.5 -72.501s64.166 -66.334 83.499 -107.001s29 -84 29 -130c0 -70 -22.333 -134.5 -67 -193.5
s-109 -113.5 -193 -163.5v-5zM488.003 689.005c-73.333 -36.667 -128.667 -82.332 -166 -136.999s-56 -117.667 -56 -189c0 -48 8.33301 -91.333 25 -130s39.5 -71.5 68.5 -98.5s63.5 -47.833 103.5 -62.5s83.667 -22 131 -22c41.333 0 80.5 5.83301 117.5 17.5
s69.5 28.5 97.5 50.5s50.167 49 66.5 81s24.5 68.333 24.5 109c0 46 -9.83301 86 -29.5 120s-47.5 65.167 -83.5 93.5s-79.333 55.666 -130 81.999zM677.002 813.007c68 36.667 122 80.832 162 132.499s60 111.167 60 178.5c0 39.333 -7.16699 75.166 -21.5 107.499
s-34.5 60 -60.5 83s-57.333 40.833 -94 53.5s-77.667 19 -123 19c-36.667 0 -72.5 -4.5 -107.5 -13.5s-66 -23 -93 -42s-48.833 -43 -65.5 -72s-25 -63.833 -25 -104.5c0 -38 7.33301 -71.333 22 -100s37.167 -55.667 67.5 -81s68.5 -50.666 114.5 -75.999
s100.667 -53.666 164 -84.999z" />
    <glyph glyph-name="nine" unicode="9" horiz-adv-x="1165" 
d="M831 414c-20 -29.333 -42.6631 -52.835 -67.9961 -70.502s-51 -31.167 -77 -40.5s-51.333 -15.5 -76 -18.5s-46.667 -4.5 -66 -4.5c-61.333 0 -118 10.5 -170 31.5s-97.333 50.5 -136 88.5s-68.834 83.5 -90.501 136.5s-32.5 111.833 -32.5 176.5
c0 60 9.83301 118 29.5 174s48.667 105.667 87 149s86.333 78 144 104s124.5 39 200.5 39c61.333 0 120.166 -10.333 176.499 -31s106.166 -55.834 149.499 -105.501s78 -116 104 -199s39 -186.5 39 -310.5c0 -69.333 -4.5 -138.333 -13.5 -207
s-23.167 -134.167 -42.5 -196.5s-44.166 -120.166 -74.499 -173.499s-66.666 -99.666 -108.999 -138.999s-91 -70.166 -146 -92.499s-117.167 -33.5 -186.5 -33.5c-54.667 0 -102.334 6.66699 -143.001 20s-74.667 30.666 -102 51.999s-47.833 45.333 -61.5 72
s-20.5 53.334 -20.5 80.001c0 20.667 3.5 38.334 10.5 53.001s16 26.834 27 36.501s23.667 16.834 38 21.501s29.166 7 44.499 7c18 0 34.167 -3.16699 48.5 -9.5s26.333 -14.833 36 -25.5s17 -22.834 22 -36.501s7.5 -27.834 7.5 -42.501
c0 -21.333 -4.83301 -42.5 -14.5 -63.5s-24.167 -38.5 -43.5 -52.5c12 -8.66699 25 -15.334 39 -20.001s27.833 -8 41.5 -10s25.834 -3.16699 36.501 -3.5s18.334 -0.5 23.001 -0.5c34 0 66.167 2.5 96.5 7.5s58.666 15.167 84.999 30.5s50.166 37.5 71.499 66.5
s40.166 67.333 56.499 115s30 106.167 41 175.5s19.167 152.333 24.5 249zM561.004 1103c-36.667 0 -69.833 -6.33301 -99.5 -19s-54.834 -34 -75.501 -64s-36.5 -69.833 -47.5 -119.5s-16.5 -111.5 -16.5 -185.5c0 -70 5.16699 -128.167 15.5 -174.5
s25.5 -83.166 45.5 -110.499s44.5 -46.5 73.5 -57.5s62.167 -16.5 99.5 -16.5c38 0 73.833 5.66699 107.5 17s63 30.666 88 57.999s44.833 64.166 59.5 110.499s22 104.5 22 174.5c0 46.667 -4 93.167 -12 139.5s-22.167 87.833 -42.5 124.5s-48.166 66.334 -83.499 89.001
s-80 34 -134 34z" />
    <glyph glyph-name="colon" unicode=":" horiz-adv-x="580" 
d="M310 -28c-20 0 -38.833 3.49707 -56.5 10.4971s-32.834 16.667 -45.501 29s-22.667 27.166 -30 44.499s-11 36.333 -11 57s3.66699 39.834 11 57.501s17.5 32.834 30.5 45.501s28.167 22.5 45.5 29.5s36 10.5 56 10.5s38.5 -3.5 55.5 -10.5s32 -16.667 45 -29
s23.167 -27.166 30.5 -44.499s11 -36.333 11 -57c0 -21.333 -3.66699 -40.666 -11 -57.999s-17.5 -32.333 -30.5 -45s-28.167 -22.5 -45.5 -29.5s-35.666 -10.5 -54.999 -10.5zM310 594.997c-20 0 -38.833 3.49707 -56.5 10.4971s-32.834 16.667 -45.501 29
s-22.667 27.166 -30 44.499s-11 36.333 -11 57s3.66699 39.834 11 57.501s17.5 32.834 30.5 45.501s28.167 22.5 45.5 29.5s36 10.5 56 10.5s38.5 -3.5 55.5 -10.5s32 -16.667 45 -29s23.167 -27.166 30.5 -44.499s11 -36.333 11 -57
c0 -21.333 -3.66699 -40.666 -11 -57.999s-17.5 -32.333 -30.5 -45s-28.167 -22.5 -45.5 -29.5s-35.666 -10.5 -54.999 -10.5z" />
    <glyph glyph-name="semicolon" unicode=";" horiz-adv-x="580" 
d="M310 595c-20 0 -38.833 3.49707 -56.5 10.4971s-32.834 16.667 -45.501 29s-22.667 27.166 -30 44.499s-11 36.333 -11 57s3.66699 39.834 11 57.501s17.5 32.834 30.5 45.501s28.167 22.5 45.5 29.5s36 10.5 56 10.5s38.5 -3.5 55.5 -10.5s32 -16.667 45 -29
s23.167 -27.166 30.5 -44.499s11 -36.333 11 -57c0 -21.333 -3.66699 -40.666 -11 -57.999s-17.5 -32.333 -30.5 -45s-28.167 -22.5 -45.5 -29.5s-35.666 -10.5 -54.999 -10.5zM219 -291.003c24 21.333 46.498 43.0049 67.498 65.0049s39.5 44.667 55.5 68
s28.667 47.5 38 72.5s14 51.5 14 79.5c0 9.33301 -0.5 18 -1.5 26s-2.16699 16.667 -3.5 26l-6 -1c-11.333 -24 -27.333 -41.5 -48 -52.5s-42.334 -16.5 -65.001 -16.5c-15.333 0 -30.5 2.66699 -45.5 8s-28.333 13.166 -40 23.499s-21.167 23.166 -28.5 38.499
s-11 32.666 -11 51.999c0 17.333 3 34.666 9 51.999s15 33 27 47s26.833 25.5 44.5 34.5s38.167 13.5 61.5 13.5c24 0 47.833 -5 71.5 -15s44.834 -24.667 63.501 -44s33.834 -43.333 45.501 -72s17.5 -61.334 17.5 -98.001c0 -62.667 -17.833 -124.5 -53.5 -185.5
s-89.167 -120.5 -160.5 -178.5c-11.333 8 -21.166 16.5 -29.499 25.5s-15.833 19.5 -22.5 31.5z" />
    <glyph glyph-name="less" unicode="&#x3c;" horiz-adv-x="1132" 
d="M266 424l732 -302l-34 -81l-834 349v73l834 349l34 -81l-732 -303v-4z" />
    <glyph glyph-name="equal" unicode="=" horiz-adv-x="1132" 
d="M1002 270v-88h-872v88h872zM1002 670v-88h-872v88h872z" />
    <glyph glyph-name="greater" unicode="&#x3e;" horiz-adv-x="1132" 
d="M866 428l-732 303l34 81l834 -349v-73l-834 -349l-34 81l732 302v4z" />
    <glyph glyph-name="question" unicode="?" horiz-adv-x="944" 
d="M253 1294c18.667 -20 33.665 -41.5039 44.998 -64.5039s17 -46.167 17 -69.5c0 -16 -3 -30.833 -9 -44.5s-14.167 -25.5 -24.5 -35.5s-22.5 -17.833 -36.5 -23.5s-29.333 -8.5 -46 -8.5c-15.333 0 -30 2.5 -44 7.5s-26.667 12.5 -38 22.5s-20.333 22.333 -27 37
s-10 32 -10 52c0 30 8.5 61.833 25.5 95.5s42 64.5 75 92.5s74.167 51.333 123.5 70s106 28 170 28c63.333 0 119.5 -9.33301 168.5 -28s90.333 -43.5 124 -74.5s59.167 -66.5 76.5 -106.5s26 -81.667 26 -125c0 -85.333 -34.333 -165.333 -103 -240
c-28 -30.667 -59.667 -60 -95 -88s-68.5 -57.333 -99.5 -88s-57 -64.167 -78 -100.5s-31.5 -77.833 -31.5 -124.5c0 -9.33301 0.5 -20.166 1.5 -32.499s2.5 -25.166 4.5 -38.499c-10.667 -4 -22.167 -6.83301 -34.5 -8.5s-24.166 -2.5 -35.499 -2.5
c-10.667 42 -16 81 -16 117c0 34.667 4.33301 66 13 94s19.834 53.5 33.501 76.5s29 44.333 46 64s34.167 38.5 51.5 56.5l58 66c18 21.333 33.5 44.333 46.5 69s23.333 51.834 31 81.501s11.5 63.834 11.5 102.501c0 45.333 -5.33301 83.833 -16 115.5
s-25.667 57.5 -45 77.5s-42.5 34.5 -69.5 43.5s-57.167 13.5 -90.5 13.5c-40 0 -77.667 -6.33301 -113 -19s-64 -32.667 -86 -60zM434.998 -28.0039c-19.333 0 -37.167 3.33301 -53.5 10s-30.833 16 -43.5 28s-22.5 26.333 -29.5 43s-10.5 35 -10.5 55s3.66699 38.5 11 55.5
s17.166 31.5 29.499 43.5s26.833 21.5 43.5 28.5s34.667 10.5 54 10.5c18.667 0 36.334 -3.33301 53.001 -10s31.334 -16 44.001 -28s22.5 -26.333 29.5 -43s10.5 -35 10.5 -55s-3.5 -38.5 -10.5 -55.5s-16.833 -31.667 -29.5 -44s-27.334 -21.833 -44.001 -28.5
s-34.667 -10 -54 -10z" />
    <glyph glyph-name="at" unicode="@" horiz-adv-x="1900" 
d="M1407 847l-24.9941 -102.5l-30.5 -129.5l-34 -148l-35.5 -159c-7.33301 -34 -13.166 -64 -17.499 -90s-6.5 -48 -6.5 -66c0 -28.667 5.83301 -49.667 17.5 -63s30.5 -20 56.5 -20c20 0 42.5 4.16699 67.5 12.5s50.167 21.166 75.5 38.499s50 39.5 74 66.5
s45.333 59.167 64 96.5s33.667 80 45 128s17 102 17 162c0 88.667 -13.333 169.667 -40 243s-65.5 136.166 -116.5 188.499s-113.333 93 -187 122s-157.834 43.5 -252.501 43.5c-82.667 0 -158.667 -11 -228 -33s-131.666 -52.5 -186.999 -91.5
s-103.833 -85.5 -145.5 -139.5s-76.5 -113 -104.5 -177s-49 -131.667 -63 -203s-21 -144 -21 -218c0 -101.333 12.667 -193.666 38 -276.999s62.5 -155 111.5 -215s109.333 -106.5 181 -139.5s153.834 -49.5 246.501 -49.5c95.333 0 180.166 17.167 254.499 51.5
s140.833 83.166 199.5 146.499c10.667 -6.66699 20.667 -13.834 30 -21.501s17.666 -16.167 24.999 -25.5c-36 -42.667 -74.167 -78.667 -114.5 -108s-82.333 -53.166 -126 -71.499s-89 -31.5 -136 -39.5s-95.5 -12 -145.5 -12c-79.333 0 -153 9.16699 -221 27.5
s-129.667 44.333 -185 78s-104.333 73.834 -147 120.501s-78.5 98.5 -107.5 155.5s-51 118.167 -66 183.5s-22.5 133.333 -22.5 204c0 82.667 10.167 163.167 30.5 241.5s49.333 152.166 87 221.499s83.5 133 137.5 191s114.667 107.833 182 149.5s141 74 221 97
s164.667 34.5 254 34.5c98.667 0 190.667 -14.5 276 -43.5s159.666 -71.833 222.999 -128.5s113.166 -126.667 149.499 -210s54.5 -179.333 54.5 -288c0 -69.333 -7.33301 -132.5 -22 -189.5s-34.5 -107.667 -59.5 -152s-53.667 -82.833 -86 -115.5
s-66.333 -59.5 -102 -80.5s-71.834 -36.667 -108.501 -47s-71.334 -15.5 -104.001 -15.5c-56 0 -98.167 13.5 -126.5 40.5s-42.5 64.5 -42.5 112.5c0 14 1.16699 29.5 3.5 46.5s5.5 34.167 9.5 51.5l-8 2c-18.667 -34.667 -37.834 -67.167 -57.501 -97.5
s-41.334 -56.666 -65.001 -78.999s-50 -39.833 -79 -52.5s-62.167 -19 -99.5 -19c-45.333 0 -84.166 9.16699 -116.499 27.5s-58.833 42.5 -79.5 72.5s-36 64.5 -46 103.5s-15 79.5 -15 121.5c0 42.667 5 86.334 15 131.001s24.333 88.167 43 130.5s41.667 82 69 119
s58.5 69.5 93.5 97.5s73.333 50 115 66s86.5 24 134.5 24c44 0 83.167 -7.66699 117.5 -23s62.166 -41 83.499 -77l5 1l19 67h156zM1191.01 688c0 14.667 -3.49609 28.668 -10.4961 42.001s-16.667 25.166 -29 35.499s-27 18.5 -44 24.5s-35.833 9 -56.5 9
c-46 0 -88.5 -14.667 -127.5 -44s-73 -67.833 -102 -115.5s-51.667 -102 -68 -163s-24.5 -123.167 -24.5 -186.5c0 -28.667 2 -56.167 6 -82.5s10.667 -49.5 20 -69.5s22 -36 38 -48s35.667 -18 59 -18c35.333 0 68.166 13.167 98.499 39.5s58.166 59.833 83.499 100.5
s47.666 85.667 66.999 135s35.666 96.833 48.999 142.5s23.5 86.5 30.5 122.5s10.5 61.333 10.5 76z" />
    <glyph glyph-name="A" unicode="A" horiz-adv-x="1415" 
d="M447 80v-80h-487v80h190l520 1388h79l488 -1388h198v-80h-615v80h208l-150 427h-472l-159 -427h200zM648 1152l-211 -564h413l-198 564h-4z" />
    <glyph glyph-name="B" unicode="B" horiz-adv-x="1385" 
d="M895 761c66.667 -10 123.501 -25.4961 170.501 -46.4961s85.333 -46.833 115 -77.5s51.167 -65.334 64.5 -104.001s20 -80.334 20 -125.001c0 -52 -9.33301 -102.5 -28 -151.5s-50.334 -92.5 -95.001 -130.5s-103.667 -68.5 -177 -91.5s-165 -34.5 -275 -34.5h-625v80
h200v1293h-200v80h600c101.333 0 187 -8.66699 257 -26s126.667 -41.333 170 -72s74.5 -66.667 93.5 -108s28.5 -86 28.5 -134c0 -38.667 -6 -75.834 -18 -111.501s-30.833 -68.834 -56.5 -99.501s-58.667 -57.667 -99 -81s-88.833 -42 -145.5 -56v-4zM460.001 80.0039
h214.003c70 0 128.833 5.5 176.5 16.5s86 29.167 115 54.5s49.833 58.5 62.5 99.5s19 91.833 19 152.5c0 54.667 -5.83301 101.5 -17.5 140.5s-33.334 71.167 -65.001 96.5s-75.334 44 -131.001 56s-127.834 18 -216.501 18h-157v-634zM460.004 794.004h117.999
c79.333 0 146 5 200 15s97.333 27 130 51s56 55.833 70 95.5s21 89.167 21 148.5c0 45.333 -4.66699 84.833 -14 118.5s-26.666 61.667 -51.999 84s-60.5 39 -105.5 50s-103.5 16.5 -175.5 16.5h-192v-579z" />
    <glyph glyph-name="C" unicode="C" horiz-adv-x="1381" 
d="M1241 435l-13.9971 -396.004c-32 -11.333 -66.5 -21.5 -103.5 -30.5s-74.5 -16.667 -112.5 -23s-75.5 -11.166 -112.5 -14.499s-71.5 -5 -103.5 -5c-102 0 -193.833 17.333 -275.5 52s-151 84.167 -208 148.5s-100.667 142.5 -131 234.5s-45.5 195.667 -45.5 311
c0 118 16 224.667 48 320s77.667 176.833 137 244.5s131.166 119.667 215.499 156s178.5 54.5 282.5 54.5c29.333 0 60.333 -1.5 93 -4.5s65.834 -7.33301 99.501 -13s67 -12.5 100 -20.5s64.833 -17 95.5 -27l12 -365h-70c-6 72.667 -19.167 131.834 -39.5 177.501
s-45.833 81.167 -76.5 106.5s-65.334 42.666 -104.001 51.999s-79.667 14 -123 14c-44 0 -85.667 -4 -125 -12s-75.833 -22 -109.5 -42s-64 -46.667 -91 -80s-49.833 -75.666 -68.5 -126.999s-33.167 -112.166 -43.5 -182.499s-15.5 -152.166 -15.5 -245.499
c0 -92.667 5 -173.5 15 -242.5s24.167 -128.5 42.5 -178.5s40.666 -91.167 66.999 -123.5s55.666 -58 87.999 -77s67.5 -32.167 105.5 -39.5s78 -11 120 -11c50.667 0 97.5 5.83301 140.5 17.5s81 32.167 114 61.5s60.333 69 82 119s36.5 113.667 44.5 191h70z" />
    <glyph glyph-name="D" unicode="D" horiz-adv-x="1516" 
d="M65 0v79.999h200v1293h-200v80h604c134.667 0 247.5 -16.667 338.5 -50s164.167 -80.833 219.5 -142.5s94.833 -136.167 118.5 -223.5s35.5 -185 35.5 -293c0 -62.667 -4.16699 -124.5 -12.5 -185.5s-22.833 -119 -43.5 -174s-48.5 -106 -83.5 -153
s-79.5 -87.667 -133.5 -122s-118.333 -61.166 -193 -80.499s-161.667 -29 -261 -29h-589zM460 79.999l180.999 -0.000976562c102.667 0 187.834 10 255.501 30s121.167 55 160.5 105s67 117.667 83 203s24 193.333 24 324c0 71.333 -2.5 136.666 -7.5 195.999
s-14.167 112.333 -27.5 159s-31.833 87.334 -55.5 122.001s-54 63.334 -91 86.001s-81.833 39.667 -134.5 51s-114.667 17 -186 17h-202v-1293z" />
    <glyph glyph-name="E" unicode="E" horiz-adv-x="1369" 
d="M460 794l131.001 -0.00195312c44.667 0 82 1.66699 112 5s54.167 12.833 72.5 28.5s32.166 40 41.499 73s16 79.5 20 139.5h71v-592h-71c-3.33301 60.667 -9 108.5 -17 143.5s-21 61.5 -39 79.5s-42.167 29.333 -72.5 34s-69.5 7 -117.5 7h-131v-632h265
c52 0 97.667 2 137 6s73.666 11.333 102.999 22s54.5 25.667 75.5 45s39.167 44.333 54.5 75s28.333 68 39 112s20.667 96 30 156h70l-20 -496h-1149v80h200v1293h-200v80h1124l20 -401h-70c-10 66.667 -22.333 120.834 -37 162.501s-35.167 74.334 -61.5 98.001
s-60.666 39.667 -102.999 48s-95.833 12.5 -160.5 12.5h-317v-579z" />
    <glyph glyph-name="F" unicode="F" horiz-adv-x="1271" 
d="M460 1373l0.00195312 -609.001h131c44.667 0 82 1.66699 112 5s54.167 13 72.5 29s32.166 40.833 41.499 74.5s16 81.167 20 142.5h71v-602h-71c-3.33301 62 -9 110.833 -17 146.5s-21 62.667 -39 81s-42.167 29.833 -72.5 34.5s-69.5 7 -117.5 7h-131v-602h210v-80h-605
v80h200v1293h-200v80h1114l22 -421h-70c-8.66699 72 -20.334 130.167 -35.001 174.5s-35.5 78.833 -62.5 103.5s-62 41.334 -105 50.001s-96.833 13 -161.5 13h-307z" />
    <glyph glyph-name="G" unicode="G" horiz-adv-x="1497" 
d="M1232 59c-32 -16 -66.668 -30.001 -104.001 -42.001s-75 -21.667 -113 -29s-75.667 -12.833 -113 -16.5s-72 -5.5 -104 -5.5c-104 0 -197 17.333 -279 52s-151.5 84.167 -208.5 148.5s-100.5 142.5 -130.5 234.5s-45 195.667 -45 311c0 118 16.333 224.667 49 320
s79.334 176.833 140.001 244.5s133.834 119.667 219.501 156s181.5 54.5 287.5 54.5c60.667 0 125.334 -5.83301 194.001 -17.5s134 -27.5 196 -47.5l12 -365h-70c-6 72.667 -19.333 131.834 -40 177.501s-46.334 81.167 -77.001 106.5s-65.5 42.666 -104.5 51.999
s-80.167 14 -123.5 14c-45.333 0 -88.166 -4 -128.499 -12s-77.833 -22 -112.5 -42s-65.834 -46.667 -93.501 -80s-51.334 -75.666 -71.001 -126.999s-34.667 -112.166 -45 -182.499s-15.5 -152.166 -15.5 -245.499c0 -92 4.83301 -172.5 14.5 -241.5
s23.667 -128.167 42 -177.5s40.666 -90.333 66.999 -123s55.833 -58.334 88.5 -77.001s68.334 -31.834 107.001 -39.501s79.667 -11.5 123 -11.5c42.667 0 84.5 1.83301 125.5 5.5s80.167 12.5 117.5 26.5v443h-220v80h595v-80h-180v-464z" />
    <glyph glyph-name="H" unicode="H" horiz-adv-x="1589" 
d="M265 80v1293h-200v80h595v-80h-200v-579h669v579h-200v80h595v-80h-200v-1293h200v-80h-595v80h200v632h-669v-632h200v-80h-595v80h200z" />
    <glyph glyph-name="I" unicode="I" horiz-adv-x="725" 
d="M460 1373v-1293h200v-80h-595v80h200v1293h-200v80h595v-80h-200z" />
    <glyph glyph-name="J" unicode="J" horiz-adv-x="952" 
d="M912 1373l-200.001 0.000976562v-1010c0 -50 -9.16699 -98.833 -27.5 -146.5s-44.5 -90 -78.5 -127s-75.5 -66.833 -124.5 -89.5s-103.833 -34 -164.5 -34c-45.333 0 -87.333 6.5 -126 19.5s-72.167 30.167 -100.5 51.5s-50.5 46.166 -66.5 74.499s-24 57.833 -24 88.5
c0 20 3.33301 37.667 10 53s15.5 28.166 26.5 38.499s23.667 18.333 38 24s29.5 8.5 45.5 8.5c17.333 0 32.833 -3.16699 46.5 -9.5s25.334 -14.666 35.001 -24.999s17 -22.5 22 -36.5s7.5 -28.667 7.5 -44c0 -22 -5.33301 -43.833 -16 -65.5s-26 -40.167 -46 -55.5
c43.333 -28 93.333 -42 150 -42c28 0 54.167 4.16699 78.5 12.5s45.5 22.333 63.5 42s32 45.167 42 76.5s15 70 15 116v1080h-210v80h604v-80z" />
    <glyph glyph-name="K" unicode="K" horiz-adv-x="1500" 
d="M500 750l612 623h-151v80h471v-80h-203l-552 -555l652 -738h156v-80h-552v80h150zM460 80h190v-80h-585v80h200v1293h-200v80h585v-80h-190v-1293z" />
    <glyph glyph-name="L" unicode="L" horiz-adv-x="1276" 
d="M695 80c52 0 97.668 2 137.001 6s73.833 11.5 103.5 22.5s55.167 26.333 76.5 46s39.666 45.167 54.999 76.5s28.5 69.5 39.5 114.5s20.833 98.5 29.5 160.5h70l-22 -506h-1119v80h200v1293h-200v80h595v-80h-200v-1293h235z" />
    <glyph glyph-name="M" unicode="M" horiz-adv-x="1902" 
d="M1442 80v1267h-5l-520 -1362h-79l-488 1360h-5v-1265h180v-80h-470v80h200v1293h-200v80h463l417 -1157h4l444 1157h454v-80h-200v-1293h200v-80h-575v80h180z" />
    <glyph glyph-name="N" unicode="N" horiz-adv-x="1540" 
d="M1295 -15h-80l-865 1341l-5 -1v-1245h180v-80h-470v80h200v1293h-200v80h447l698 -1082l5 1v1001h-200v80h490v-80h-200v-1388z" />
    <glyph glyph-name="O" unicode="O" horiz-adv-x="1558" 
d="M135 713c0 119.333 16.166 226.667 48.499 322s77.5 176.5 135.5 243.5s127.167 118.5 207.5 154.5s168.5 54 264.5 54c94.667 0 180.834 -17.5 258.501 -52.5s144.167 -84.833 199.5 -149.5s98.166 -143 128.499 -235s45.5 -195 45.5 -309
c0 -112 -14.833 -215.5 -44.5 -310.5s-72.5 -176.833 -128.5 -245.5s-124.5 -122.334 -205.5 -161.001s-172.5 -58 -274.5 -58c-96 0 -183 17.333 -261 52s-144.667 84.334 -200 149.001s-98.166 143.167 -128.499 235.5s-45.5 195.833 -45.5 310.5zM351.999 719.001
c0 -92 4.83398 -172.498 14.501 -241.498s23.334 -128.333 41.001 -178s39.167 -90.834 64.5 -123.501s53.666 -58.667 84.999 -78s65.333 -32.833 102 -40.5s75.334 -11.5 116.001 -11.5s79.5 3.83301 116.5 11.5s71.5 21.334 103.5 41.001s61 46.167 87 79.5
s48.167 75.5 66.5 126.5s32.5 111.667 42.5 182s15 152.5 15 246.5c0 92 -4.83301 172.5 -14.5 241.5s-23.334 128.5 -41.001 178.5s-39.167 91.333 -64.5 124s-53.5 58.667 -84.5 78s-64.833 32.833 -101.5 40.5s-75.334 11.5 -116.001 11.5s-79.667 -4 -117 -12
s-72 -21.667 -104 -41s-61 -45.833 -87 -79.5s-48.167 -75.834 -66.5 -126.501s-32.5 -111.334 -42.5 -182.001s-15 -153 -15 -247z" />
    <glyph glyph-name="P" unicode="P" horiz-adv-x="1278" 
d="M611 1453c110.667 0 203.669 -9.99902 279.002 -29.999s136.166 -47.833 182.499 -83.5s79.666 -78.334 99.999 -128.001s30.5 -104.167 30.5 -163.5c0 -56 -9.33301 -110.667 -28 -164s-51.167 -101 -97.5 -143s-108.333 -75.667 -186 -101s-175.5 -38 -293.5 -38h-138
v-522h210v-80h-605v80h200v1293h-200v80h546zM460.002 682.001l123.001 0.00195312c76.667 0 141.167 5.83301 193.5 17.5s94.166 31.5 125.499 59.5s53.833 65.167 67.5 111.5s20.5 104.166 20.5 173.499c0 57.333 -5.16699 106.666 -15.5 147.999
s-29.833 75.5 -58.5 102.5s-68.5 46.833 -119.5 59.5s-116.833 19 -197.5 19h-139v-691z" />
    <glyph glyph-name="Q" unicode="Q" horiz-adv-x="1558" 
d="M135 712c0 120 16.166 227.834 48.499 323.501s77.5 177 135.5 244s127.167 118.333 207.5 154s168.5 53.5 264.5 53.5c94.667 0 180.834 -17.5 258.501 -52.5s144.167 -84.833 199.5 -149.5s98.166 -143 128.499 -235s45.5 -195 45.5 -309
c0 -94 -10.667 -181.833 -32 -263.5s-52.166 -154.834 -92.499 -219.501s-89.5 -119.667 -147.5 -165s-123.333 -78.666 -196 -99.999c34.667 -57.333 66.5 -103.833 95.5 -139.5s56.167 -63.5 81.5 -83.5s49.166 -33.667 71.499 -41s43.833 -11 64.5 -11
c28.667 0 57.667 5.66699 87 17s59.333 27.666 90 48.999c9.33301 -8.66699 17.333 -17.167 24 -25.5s13.667 -18.5 21 -30.5c-52 -51.333 -102.667 -87 -152 -107s-99 -30 -149 -30s-94.5 8.5 -133.5 25.5s-75.667 41.5 -110 73.5s-67.666 71.333 -99.999 118
s-66.5 100 -102.5 160c-92 3.33301 -175.5 23 -250.5 59s-139 86.167 -192 150.5s-93.833 141.5 -122.5 231.5s-43 191 -43 303zM351.999 719.001c0 -92 4.83203 -172.5 14.499 -241.5s23.334 -128.333 41.001 -178s39.167 -90.834 64.5 -123.501s53.666 -58.667 84.999 -78
s65.333 -32.833 102 -40.5s75.334 -11.5 116.001 -11.5s79.5 3.83301 116.5 11.5s71.5 21.334 103.5 41.001s61 46.167 87 79.5s48.167 75.5 66.5 126.5s32.5 111.667 42.5 182s15 152.5 15 246.5c0 92 -4.83301 172.5 -14.5 241.5s-23.334 128.5 -41.001 178.5
s-39.167 91.333 -64.5 124s-53.666 58.667 -84.999 78s-65.333 32.833 -102 40.5s-75.334 11.5 -116.001 11.5c-61.333 0 -118.166 -9.5 -170.499 -28.5s-97.833 -53.833 -136.5 -104.5s-69 -120.667 -91 -210s-33 -204.333 -33 -345z" />
    <glyph glyph-name="R" unicode="R" horiz-adv-x="1376" 
d="M616 1453c106 0 195.333 -7.99707 268 -23.9971s131.334 -38.667 176.001 -68s76.667 -64.833 96 -106.5s29 -87.834 29 -138.501c0 -44 -6.83301 -85.667 -20.5 -125s-34.167 -75 -61.5 -107s-61.5 -59.5 -102.5 -82.5s-89.167 -40.5 -144.5 -52.5v-4
c46 -10.667 83.833 -26.334 113.5 -47.001s53.667 -46 72 -76s32.666 -64.167 42.999 -102.5s19.5 -80.5 27.5 -126.5l21.5 -129.5c6.33301 -39 14.833 -72.667 25.5 -101s25.167 -50.333 43.5 -66s43.833 -23.5 76.5 -23.5c6 0 14.5 0.333008 25.5 1s23.167 2 36.5 4v-77
c-11.333 -2.66699 -23.666 -5 -36.999 -7s-26.833 -3.5 -40.5 -4.5s-27 -1.66699 -40 -2s-24.5 -0.5 -34.5 -0.5c-58 0 -103.5 6.16699 -136.5 18.5s-58.333 31.5 -76 57.5s-30.167 58.667 -37.5 98s-14.333 86 -21 140c-10 78.667 -20 144.667 -30 198
s-24 96.166 -42 128.499s-42.333 55.333 -73 69s-72.334 20.5 -125.001 20.5h-188v-637h210v-80h-605v80h200v1293h-200v80h551zM460 797.003l133 -0.00195312c72 0 132.167 6 180.5 18s87.333 30.833 117 56.5s50.667 58.334 63 98.001s18.5 87.5 18.5 143.5
c0 46.667 -5 86.5 -15 119.5s-28.5 59.833 -55.5 80.5s-64.333 35.834 -112 45.501s-109.5 14.5 -185.5 14.5h-144v-576z" />
    <glyph glyph-name="S" unicode="S" horiz-adv-x="1148" 
d="M111 435l70.001 -0.00292969c7.33301 -76 22 -139.333 44 -190s49.167 -91 81.5 -121s69.333 -51.167 111 -63.5s85.834 -18.5 132.501 -18.5c56 0 103.833 7 143.5 21s72.334 33.5 98.001 58.5s44.334 55 56.001 90s17.5 73.5 17.5 115.5
c0 52 -8.66699 94.833 -26 128.5s-41.5 62.334 -72.5 86.001s-68.167 44.167 -111.5 61.5s-91 35.333 -143 54s-101.5 38.334 -148.5 59.001s-88.5 46.334 -124.5 77.001s-64.5 68.167 -85.5 112.5s-31.5 99.5 -31.5 165.5c0 62 10 118.667 30 170s49.667 95.166 89 131.499
s88.166 64.5 146.499 84.5s126.166 30 203.499 30c30.667 0 62.334 -1.5 95.001 -4.5s65.167 -7.5 97.5 -13.5s64.166 -13.167 95.499 -21.5s61 -17.5 89 -27.5l12 -363h-70c-6 72 -19.333 130.667 -40 176s-45.834 80.833 -75.501 106.5s-62.667 43.334 -99 53.001
s-73.5 14.5 -111.5 14.5c-50.667 0 -94.667 -6.16699 -132 -18.5s-68.333 -30 -93 -53s-43.167 -51 -55.5 -84s-18.5 -70.167 -18.5 -111.5c0 -49.333 8.66699 -90.333 26 -123s41.833 -60.834 73.5 -84.501s69.667 -44.667 114 -63s93.166 -37.5 146.499 -57.5
c48.667 -18.667 96.5 -38.5 143.5 -59.5s89 -47.333 126 -79s66.833 -70.667 89.5 -117s34 -103.833 34 -172.5c0 -66.667 -11.5 -126 -34.5 -178s-56 -95.667 -99 -131s-95.5 -62.333 -157.5 -81s-132 -28 -210 -28c-34 0 -69.167 1.66699 -105.5 5
s-72.333 8.33301 -108 15s-70.5 14.334 -104.5 23.001s-65.667 18.667 -95 30z" />
    <glyph glyph-name="T" unicode="T" horiz-adv-x="1365" 
d="M99 1453l1172 -0.000976562l24 -431h-70c-9.33301 74.667 -21.333 135 -36 181s-35.5 81.5 -62.5 106.5s-61.833 41.833 -104.5 50.5s-96.334 13 -161.001 13h-81v-1293h220v-80h-635v80h220v1293h-76c-43.333 0 -81.666 -1.66699 -114.999 -5
s-62.5 -9.66602 -87.5 -18.999s-46.5 -22.333 -64.5 -39s-33.333 -38 -46 -64s-23.5 -57.333 -32.5 -94s-16.833 -80 -23.5 -130h-70z" />
    <glyph glyph-name="U" unicode="U" horiz-adv-x="1502" 
d="M445 470c0 -57.333 2.49805 -111.333 7.49805 -162s18.667 -95 41 -133s56.333 -68.167 102 -90.5s109.167 -33.5 190.5 -33.5c82.667 0 149.334 11.5 200.001 34.5s89.834 54.667 117.501 95s46.167 88 55.5 143s14 114.5 14 178.5v871h-200v80h489v-80h-199v-860
c0 -89.333 -7.33301 -168 -22 -236s-41 -125 -79 -171s-89.333 -80.833 -154 -104.5s-147 -35.5 -247 -35.5c-89.333 0 -166.333 9.66699 -231 29s-117.667 49.333 -159 90s-71.833 92.5 -91.5 155.5s-29.5 137.833 -29.5 224.5v908h-200v80h595v-80h-200v-903z" />
    <glyph glyph-name="V" unicode="V" horiz-adv-x="1415" 
d="M763 301h4l401 1072h-200v80h477v-80h-180l-520 -1388h-79l-488 1388h-198v80h615v-80h-208z" />
    <glyph glyph-name="W" unicode="W" horiz-adv-x="2060" 
d="M1036 744l-289 -759h-77l-498 1388h-198v80h583v-80h-178l386 -1072h4l221 576l-178 496h-168v80h583v-80h-208l386 -1072h4l411 1072h-200v80h477v-80h-180l-530 -1388h-77l-270 759h-4z" />
    <glyph glyph-name="X" unicode="X" horiz-adv-x="1453" 
d="M1262 80h177v-80h-596v80h184l-354 540l-408 -540h178v-80h-473v80h181l469 620l-440 673h-177v80h596v-80h-184l338 -517l390 517h-172v80h458v-80h-172l-451 -598z" />
    <glyph glyph-name="Y" unicode="Y" horiz-adv-x="1373" 
d="M-30 1453h595v-80h-184l370 -579l364 579h-189v80h467v-80h-170l-428 -678v-615h220v-80h-635v80h220v585l-453 708h-177v80z" />
    <glyph glyph-name="Z" unicode="Z" horiz-adv-x="1299" 
d="M101 0v61.999l815 1311h-341c-43.333 0 -81.666 -1.66699 -114.999 -5s-62.5 -9.66602 -87.5 -18.999s-46.5 -22.333 -64.5 -39s-33.333 -38 -46 -64s-23.5 -57.333 -32.5 -94s-16.833 -80 -23.5 -130h-70l29 431h995v-62l-829 -1311h349c52 0 97.667 2 137 6
s73.666 11.333 102.999 22s54.5 25.667 75.5 45s39.167 44.333 54.5 75s28.333 68 39 112s20.667 96 30 156h70l-20 -496h-1068z" />
    <glyph glyph-name="bracketleft" unicode="[" horiz-adv-x="970" 
d="M360 -1937v3875h450v-90h-280v-3695h280v-90h-450z" />
    <glyph glyph-name="backslash" unicode="\" horiz-adv-x="648" 
d="M637 -323c-25.333 -13.333 -52.333 -21.667 -81 -25l-549 1811c24 14 51 22 81 24z" />
    <glyph glyph-name="bracketright" unicode="]" horiz-adv-x="970" 
d="M160 -1937v90h280v3695h-280v90h450v-3875h-450z" />
    <glyph glyph-name="asciicircum" unicode="^" horiz-adv-x="1021" 
d="M870 700l-358 650h-4l-358 -650h-100l424 763h73l424 -763h-101z" />
    <glyph glyph-name="underscore" unicode="_" horiz-adv-x="914" 
d="M-35 -181h984v-85h-984v85z" />
    <glyph glyph-name="grave" unicode="`" horiz-adv-x="800" 
d="M87 1371c48 45.333 97 78.333 147 99l245 -414c-7.33301 -8 -14.833 -15 -22.5 -21s-16.5 -11 -26.5 -15z" />
    <glyph glyph-name="a" unicode="a" horiz-adv-x="976" 
d="M931 0c-28 -5.33301 -54 -8.66406 -78 -9.99707s-43 -2 -57 -2c-35.333 0 -64.5 2.83301 -87.5 8.5s-41.167 13.834 -54.5 24.501s-23 23.667 -29 39s-9.66699 32.333 -11 51h-5c-18.667 -26 -38.667 -48 -60 -66s-43.666 -32.333 -66.999 -43
s-47.166 -18.334 -71.499 -23.001s-48.833 -7 -73.5 -7c-40.667 0 -77 5.5 -109 16.5s-59 26.5 -81 46.5s-38.667 43.833 -50 71.5s-17 58.167 -17 91.5c0 92.667 45.5 163.167 136.5 211.5s222.167 74.166 393.5 77.499c0.666992 30 1.16699 57 1.5 81s0.5 47.667 0.5 71
c0 60.667 -12.5 103.167 -37.5 127.5s-64.5 36.5 -118.5 36.5c-36 0 -68.167 -4 -96.5 -12s-51.5 -18.667 -69.5 -32c16 -15.333 27.833 -31.5 35.5 -48.5s11.5 -33.833 11.5 -50.5c0 -28 -9 -51.333 -27 -70s-42.667 -28 -74 -28c-13.333 0 -26.333 2 -39 6
s-23.667 10.333 -33 19s-16.833 19.5 -22.5 32.5s-8.5 28.167 -8.5 45.5c0 27.333 7.5 53.833 22.5 79.5s37.333 48.5 67 68.5s66.667 36 111 48s96.166 18 155.499 18c48 0 90.5 -4.66699 127.5 -14s68.333 -24.833 94 -46.5s45 -50.5 58 -86.5s19.5 -80.667 19.5 -134
c0 -13.333 -0.166992 -35.166 -0.5 -65.499s-0.833008 -63.833 -1.5 -100.5s-1.16699 -73.834 -1.5 -111.501s-0.5 -70.834 -0.5 -99.501c0 -29.333 0.666992 -53.833 2 -73.5s4.66602 -35.334 9.99902 -47.001s13.333 -20 24 -25s25.667 -7.5 45 -7.5
c16.667 0 38.667 2 66 6v-74zM610 412.002c-72.667 -2 -131.333 -7.50195 -176 -16.502s-79.334 -21.667 -104.001 -38s-41.334 -36.166 -50.001 -59.499s-13 -50 -13 -80c0 -52 10.833 -90.833 32.5 -116.5s51.5 -38.5 89.5 -38.5c20.667 0 43.834 4.33301 69.501 13
s49.834 22.834 72.501 42.501s41.5 45.5 56.5 77.5s22.5 71.667 22.5 119v97z" />
    <glyph glyph-name="b" unicode="b" horiz-adv-x="1119" 
d="M325 0l-139.997 -0.00195312v1373h-150v80h330v-713h4c29.333 47.333 67.5 82.333 114.5 105s98.167 34 153.5 34c58 0 111.167 -10.667 159.5 -32s90.166 -51.5 125.499 -90.5s62.833 -86.167 82.5 -141.5s29.5 -116.666 29.5 -183.999
c0 -71.333 -10.833 -135.333 -32.5 -192s-50.834 -104.667 -87.501 -144s-79.334 -69.666 -128.001 -90.999s-100 -32 -154 -32s-103.833 11.833 -149.5 35.5s-83.5 61.5 -113.5 113.5h-6zM836.003 427.998c0 76 -5.33203 138.165 -15.999 186.498
s-25.834 86.333 -45.501 114s-43.167 46.5 -70.5 56.5s-57.666 15 -90.999 15c-45.333 0 -83.666 -8.66699 -114.999 -26s-56.833 -42 -76.5 -74s-34 -70.5 -43 -115.5s-13.5 -95.5 -13.5 -151.5c0 -57.333 4.16699 -106.666 12.5 -147.999s19.166 -76.166 32.499 -104.499
s28.833 -51 46.5 -68s35.667 -30 54 -39s36.666 -15 54.999 -18s34.833 -4.5 49.5 -4.5c32 0 61.5 5 88.5 15s50.333 28.833 70 56.5s35 66 46 115s16.5 112.5 16.5 190.5z" />
    <glyph glyph-name="c" unicode="c" horiz-adv-x="943" 
d="M873 277c-22 -100.667 -63.167 -176.671 -123.5 -228.004s-138.5 -77 -234.5 -77c-66.667 0 -126.5 11.833 -179.5 35.5s-98 55.834 -135 96.501s-65.5 88 -85.5 142s-30 111.333 -30 172c0 63.333 10.5 123 31.5 179s50.833 104.833 89.5 146.5s85.167 74.667 139.5 99
s114.833 36.5 181.5 36.5c47.333 0 90.833 -6.16699 130.5 -18.5s73.834 -28.833 102.501 -49.5s51 -44.667 67 -72s24 -56 24 -86c0 -21.333 -3.66699 -39.166 -11 -53.499s-16.5 -25.833 -27.5 -34.5s-23.167 -15 -36.5 -19s-26 -6 -38 -6
c-32.667 0 -58.5 10.333 -77.5 31s-28.5 45.334 -28.5 74.001c0 17.333 4.33301 36 13 56s22 38.667 40 56c-22.667 18 -48.834 30.167 -78.501 36.5s-56.834 9.5 -81.501 9.5c-31.333 0 -61.5 -4.16699 -90.5 -12.5s-54.667 -26 -77 -53s-40.166 -65.5 -53.499 -115.5
s-20 -116.667 -20 -200c0 -77.333 6.16699 -140 18.5 -188s29.333 -85.5 51 -112.5s47.167 -45.333 76.5 -55s61.333 -14.5 96 -14.5c31.333 0 61 4.33301 89 13s53.5 22.5 76.5 41.5s43.333 44 61 75s31.834 69.167 42.501 114.5
c13.333 -1.33301 26.666 -3.66602 39.999 -6.99902s26 -7.33301 38 -12z" />
    <glyph glyph-name="d" unicode="d" horiz-adv-x="1134" 
d="M283 424c0 -76 5.33301 -138.167 16 -186.5s25.667 -86.333 45 -114s42.5 -46.667 69.5 -57s56.5 -15.5 88.5 -15.5c50.667 0 92.167 11 124.5 33s58 51 77 87s32.167 76.833 39.5 122.5s11 92.167 11 139.5c0 68 -6.16699 125.5 -18.5 172.5s-29.5 84.833 -51.5 113.5
s-48.167 49.334 -78.5 62.001s-63.5 19 -99.5 19c-32 0 -61.667 -5 -89 -15s-51 -28.833 -71 -56.5s-35.5 -65.834 -46.5 -114.501s-16.5 -112 -16.5 -190zM934 80l149.997 0.00195312v-80h-330v121h-4c-17.333 -28.667 -36.166 -52.5 -56.499 -71.5
s-41.833 -34.333 -64.5 -46s-46.334 -19.834 -71.001 -24.501s-49.667 -7 -75 -7c-63.333 0 -119.666 11.833 -168.999 35.5s-91 55.667 -125 96s-59.833 87.5 -77.5 141.5s-26.5 111.667 -26.5 173c0 64 9.66699 124.167 29 180.5s46.833 105.166 82.5 146.499
s78.334 74 128.001 98s104.834 36 165.501 36c58.667 0 110 -12.167 154 -36.5s79.333 -58.5 106 -102.5h4v633h-160v80h340v-1373z" />
    <glyph glyph-name="e" unicode="e" horiz-adv-x="988" 
d="M875 271c-21.333 -96.667 -62.6689 -170.668 -124.002 -222.001s-141 -77 -239 -77c-67.333 0 -127.333 11.833 -180 35.5s-97.334 55.834 -134.001 96.501s-64.667 88.167 -84 142.5s-29 112.166 -29 173.499c0 62.667 10 122 30 178s48.5 104.667 85.5 146
s81.333 74.166 133 98.499s109.5 36.5 173.5 36.5c58.667 0 111.334 -10.333 158.001 -31s86.334 -49.5 119.001 -86.5s57.834 -81.167 75.501 -132.5s27.167 -107.666 28.5 -168.999h-603c-0.666992 -11.333 -1 -18.833 -1 -22.5v-6.5
c0 -78.667 5.83301 -142.667 17.5 -192s28 -87.833 49 -115.5s46 -46.5 75 -56.5s61.167 -15 96.5 -15c32.667 0 63.5 4.33301 92.5 13s55.167 22.5 78.5 41.5s43.833 43.667 61.5 74s31.834 66.833 42.501 109.5c13.333 -1.33301 26.666 -3.66602 39.999 -6.99902
s26 -7.33301 38 -12zM685.997 537.999c-2 55.333 -7.83203 100.168 -17.499 134.501s-22.5 61.166 -38.5 80.499s-34.833 32.5 -56.5 39.5s-45.5 10.5 -71.5 10.5c-27.333 0 -52.833 -4 -76.5 -12s-44.834 -22 -63.501 -42s-34.167 -47 -46.5 -81
s-20.833 -77.333 -25.5 -130h396z" />
    <glyph glyph-name="f" unicode="f" horiz-adv-x="605" 
d="M570 1470c35.333 0 67.1709 -4.50195 95.5039 -13.502s52.5 -21.333 72.5 -37s35.333 -33.834 46 -54.501s16 -42.667 16 -66c0 -33.333 -9.83301 -60.666 -29.5 -81.999s-45.167 -32 -76.5 -32c-13.333 0 -26.333 2.33301 -39 7s-23.834 11.334 -33.501 20.001
s-17.334 19.334 -23.001 32.001s-8.5 27 -8.5 43c0 17.333 3.66699 34.833 11 52.5s18.666 33.167 33.999 46.5c-18.667 6.66699 -43 10 -73 10c-25.333 0 -48.833 -3.16699 -70.5 -9.5s-40.334 -21 -56.001 -44s-28 -56.667 -37 -101s-13.5 -104.5 -13.5 -180.5v-209h220
v-80h-220v-692h160v-80h-490v80h150v692h-150v80h150v100c0 85.333 9 160.333 27 225s43.167 118.667 75.5 162s70.833 76 115.5 98s93.667 33 147 33z" />
    <glyph glyph-name="g" unicode="g" horiz-adv-x="1017" 
d="M224 -216c-11.333 -18.667 -19.6621 -36.6719 -24.9951 -54.0049s-8 -34.333 -8 -51c0 -26.667 6.66699 -50.334 20 -71.001s32 -38 56 -52s52.5 -24.5 85.5 -31.5s69.167 -10.5 108.5 -10.5c54 0 102.167 6.33301 144.5 19s78.166 30.334 107.499 53.001
s51.666 49 66.999 79s23 62.667 23 98c0 28.667 -5.16699 52 -15.5 70s-24.833 32 -43.5 42s-40.834 16.833 -66.501 20.5s-53.834 5.5 -84.501 5.5c-22 0 -46.667 -0.166992 -74 -0.5s-53.666 -0.833008 -78.999 -1.5s-48 -1.16699 -68 -1.5s-34 -0.5 -42 -0.5
c-38 0 -70.833 4.66699 -98.5 14s-50.834 22.333 -69.501 39s-32.5 36.334 -41.5 59.001s-13.5 47 -13.5 73c0 36 8 73.333 24 112s42 78 78 118c-28 30 -49.333 64.5 -64 103.5s-22 80.5 -22 124.5c0 46 8 89.5 24 130.5s39.167 77 69.5 108s67.666 55.5 111.999 73.5
s94.833 27 151.5 27c52 0 98.333 -7.66699 139 -23s75.667 -36.333 105 -63c18.667 19.333 36.834 35.333 54.501 48s34.167 22.5 49.5 29.5s29.666 11.833 42.999 14.5s25.333 4 36 4c16.667 0 31 -2.5 43 -7.5s21.833 -11.667 29.5 -20s13.334 -17.666 17.001 -27.999
s5.5 -20.833 5.5 -31.5c0 -21.333 -6.83301 -40.5 -20.5 -57.5s-32.834 -25.5 -57.501 -25.5c-19.333 0 -37.5 6.33301 -54.5 19s-28.167 31.334 -33.5 56.001c-13.333 -5.33301 -25.833 -11.833 -37.5 -19.5s-23.167 -16.5 -34.5 -26.5c20 -28 35.167 -58.667 45.5 -92
s15.5 -68.333 15.5 -105c0 -46 -8 -89.667 -24 -131s-39.333 -77.5 -70 -108.5s-68 -55.5 -112 -73.5s-94.333 -27 -151 -27c-40 0 -76.667 4.66699 -110 14s-63.333 22.333 -90 39c-16.667 -22 -29.5 -42.833 -38.5 -62.5s-13.5 -38.167 -13.5 -55.5
c0 -21.333 9.5 -39 28.5 -53s51.5 -21 97.5 -21c7.33301 0 22.5 0.166992 45.5 0.5s48.5 0.666016 76.5 0.999023l82.5 1c27 0.333008 47.833 0.5 62.5 0.5c47.333 0 90.833 -4.16699 130.5 -12.5s73.667 -22.5 102 -42.5s50.5 -46.333 66.5 -79s24 -73.334 24 -122.001
c0 -59.333 -12 -112.666 -36 -159.999s-57.5 -87.666 -100.5 -120.999s-94 -58.833 -153 -76.5s-123.5 -26.5 -193.5 -26.5c-61.333 0 -115.5 6.5 -162.5 19.5s-86.5 30.167 -118.5 51.5s-56.333 45.833 -73 73.5s-25 56.5 -25 86.5c0 28.667 7.5 56.334 22.5 83.001
s37.833 51.667 68.5 75c12.667 -5.33301 23.667 -11.166 33 -17.499s19.333 -13.833 30 -22.5zM640.004 548.995c0 47.333 -2.50195 87.502 -7.50195 120.502s-13.667 59.667 -26 80s-29 35.166 -50 44.499s-47.833 14 -80.5 14s-59.667 -4.66699 -81 -14
s-38.5 -24.5 -51.5 -45.5s-22.167 -48.5 -27.5 -82.5s-8 -75.333 -8 -124c0 -48 2.5 -88.5 7.5 -121.5s13.833 -59.833 26.5 -80.5s29.5 -35.5 50.5 -44.5s47.5 -13.5 79.5 -13.5c32.667 0 59.834 4.66699 81.501 14s38.834 24.666 51.501 45.999s21.667 48.833 27 82.5
s8 75.167 8 124.5z" />
    <glyph glyph-name="h" unicode="h" horiz-adv-x="1133" 
d="M380 80h135.001v-80h-465v80h150v1293h-150v80h330v-735h4c28 51.333 64.833 91 110.5 119s104.5 42 176.5 42c92.667 0 161.167 -23.5 205.5 -70.5s66.5 -114.167 66.5 -201.5v-527h145v-80h-460v80h135v550c0 56 -12.333 96.5 -37 121.5s-60 37.5 -106 37.5
c-33.333 0 -64.5 -6.66699 -93.5 -20s-54.333 -34 -76 -62s-38.834 -64 -51.501 -108s-19 -97 -19 -159v-360z" />
    <glyph glyph-name="i" unicode="i" horiz-adv-x="585" 
d="M385 80h150v-80h-480v80h150v692h-150v80h330v-772zM295 1134c-17.333 0 -33.168 2.83203 -47.501 8.49902s-27 13.834 -38 24.501s-19.5 23.167 -25.5 37.5s-9 30.5 -9 48.5c0 17.333 3.16699 33.333 9.5 48s14.833 27.334 25.5 38.001s23.334 19 38.001 25
s30.334 9 47.001 9s32.334 -2.83301 47.001 -8.5s27.5 -13.834 38.5 -24.501s19.5 -23.167 25.5 -37.5s9 -30.5 9 -48.5s-3.16699 -34.333 -9.5 -49s-14.833 -27.167 -25.5 -37.5s-23.334 -18.5 -38.001 -24.5s-30.334 -9 -47.001 -9z" />
    <glyph glyph-name="j" unicode="j" horiz-adv-x="554" 
d="M374 852l-0.000976562 -935.003c0 -158 -27.833 -277.833 -83.5 -359.5s-134.5 -122.5 -236.5 -122.5c-33.333 0 -63.166 4.16699 -89.499 12.5s-48.666 19.833 -66.999 34.5s-32.333 31.5 -42 50.5s-14.5 39.5 -14.5 61.5c0 32 9.83301 58.167 29.5 78.5
s44.5 30.5 74.5 30.5c14 0 27.167 -2.16699 39.5 -6.5s23.166 -10.666 32.499 -18.999s16.833 -18.666 22.5 -30.999s8.5 -26.166 8.5 -41.499c0 -16 -3.5 -32.167 -10.5 -48.5s-17.167 -30.5 -30.5 -42.5l26.5 -4c9 -1.33301 18.167 -2 27.5 -2c26 0 47.667 4.66699 65 14
s31 24.5 41 45.5s17.167 48.833 21.5 83.5s6.5 77.667 6.5 129v992h-151v80h330zM283.999 1134c-17.333 0 -33.165 2.83301 -47.498 8.5s-27 13.834 -38 24.501s-19.5 23.167 -25.5 37.5s-9 30.5 -9 48.5c0 35.333 11.5 64.166 34.5 86.499s51.833 33.5 86.5 33.5
c33.333 0 61.5 -10.833 84.5 -32.5s34.5 -50.5 34.5 -86.5c0 -18 -3.16699 -34.333 -9.5 -49s-14.833 -27.167 -25.5 -37.5s-23.334 -18.5 -38.001 -24.5s-30.334 -9 -47.001 -9z" />
    <glyph glyph-name="k" unicode="k" horiz-adv-x="1119" 
d="M380 80h145v-80h-475v80h150v1293h-150v80h330v-1373zM424 464l302 308h-147v80h455v-80h-200l-235 -246l388 -446h122v-80h-485v80h135z" />
    <glyph glyph-name="l" unicode="l" horiz-adv-x="580" 
d="M380 80h150v-80h-480v80h150v1293h-150v80h330v-1373z" />
    <glyph glyph-name="m" unicode="m" horiz-adv-x="1681" 
d="M385 80h135.001v-80h-465v80h150v692h-150v80h330v-145h4c26.667 55.333 62.667 97.833 108 127.5s103.666 44.5 174.999 44.5c74 0 131.667 -16 173 -48s68.666 -81.333 81.999 -148h4c26.667 64.667 63.834 113.5 111.501 146.5s108.5 49.5 182.5 49.5
c90 0 156.833 -23.5 200.5 -70.5s65.5 -114.167 65.5 -201.5v-527h145v-80h-460v80h135v555c0 52.667 -12 91.5 -36 116.5s-58 37.5 -102 37.5c-32 0 -62.167 -7.16699 -90.5 -21.5s-53.333 -36.5 -75 -66.5s-38.667 -68.333 -51 -115s-18.5 -102 -18.5 -166v-340h135v-80
h-450v80h135v556c0 52 -12 90.5 -36 115.5s-58 37.5 -102 37.5c-32 0 -62.167 -7.16699 -90.5 -21.5s-53.333 -36.5 -75 -66.5s-38.667 -68.333 -51 -115s-18.5 -102 -18.5 -166v-340z" />
    <glyph glyph-name="n" unicode="n" horiz-adv-x="1138" 
d="M385 80h135.002v-80h-465v80h150v692h-150v80h330v-145h4c27.333 55.333 64 97.833 110 127.5s105.333 44.5 178 44.5c91.333 0 159.333 -23.5 204 -70.5s67 -114.167 67 -201.5v-527h145v-80h-460v80h135v555c0 52.667 -12.333 91.5 -37 116.5
s-59.334 37.5 -104.001 37.5c-34 0 -65.667 -7.16699 -95 -21.5s-54.833 -36.5 -76.5 -66.5s-38.834 -68.333 -51.501 -115s-19 -102 -19 -166v-340z" />
    <glyph glyph-name="o" unicode="o" horiz-adv-x="1040" 
d="M85 418c0 62.667 9.83301 122 29.5 178s48.5 105 86.5 147s84.5 75.167 139.5 99.5s117.5 36.5 187.5 36.5c69.333 0 130.666 -11.833 183.999 -35.5s98 -55.834 134 -96.501s63.167 -88 81.5 -142s27.5 -111.333 27.5 -172c0 -62.667 -9.83301 -122 -29.5 -178
s-48.5 -105 -86.5 -147s-84.5 -75.167 -139.5 -99.5s-117.5 -36.5 -187.5 -36.5c-69.333 0 -130.666 11.833 -183.999 35.5s-98 55.834 -134 96.501s-63.167 88 -81.5 142s-27.5 111.333 -27.5 172zM283 422c0 -72.667 5.00293 -133 15.0029 -181s24.667 -86.333 44 -115
s43.666 -48.834 72.999 -60.501s63.666 -17.5 102.999 -17.5c38.667 0 73 6 103 18s55 32.5 75 61.5s35.167 68 45.5 117s15.5 110.5 15.5 184.5c0 72.667 -5 133 -15 181s-24.667 86.333 -44 115s-43.833 48.834 -73.5 60.501s-63.834 17.5 -102.501 17.5
c-39.333 0 -73.833 -6 -103.5 -18s-54.5 -32.5 -74.5 -61.5s-35.167 -68 -45.5 -117s-15.5 -110.5 -15.5 -184.5z" />
    <glyph glyph-name="p" unicode="p" horiz-adv-x="1134" 
d="M380 724l4.00391 -0.00195312c29.333 54 67.333 93.333 114 118s98.667 37 156 37c56.667 0 109.167 -10.667 157.5 -32s90.166 -51.5 125.499 -90.5s62.833 -86.167 82.5 -141.5s29.5 -116.666 29.5 -183.999c0 -71.333 -10.833 -135.333 -32.5 -192
s-50.834 -104.667 -87.501 -144s-79.334 -69.666 -128.001 -90.999s-100.334 -32 -155.001 -32c-54 0 -103.667 11.833 -149 35.5s-83 61.5 -113 113.5h-4v-589h160v-80h-490v80h150v1240h-150v80h330v-128zM851.004 426.998c0 76.667 -5.33105 139.169 -15.998 187.502
s-25.834 86.333 -45.501 114s-42.834 46.5 -69.501 56.5s-56 15 -88 15c-46 0 -85 -9.66699 -117 -29s-58 -46 -78 -80s-34.5 -74 -43.5 -120s-13.5 -95.667 -13.5 -149c0 -55.333 4.16699 -103 12.5 -143s19.5 -73.833 33.5 -101.5s30 -49.834 48 -66.501
s36.333 -29.334 55 -38.001s37 -14.5 55 -17.5s34.333 -4.5 49 -4.5c30.667 0 59.334 5 86.001 15s49.667 28.667 69 56s34.666 65.5 45.999 114.5s17 112.5 17 190.5z" />
    <glyph glyph-name="q" unicode="q" horiz-adv-x="1119" 
d="M934 852v-1320h150v-80h-490v80h160v589h-4c-32 -54 -70.833 -92.333 -116.5 -115s-95.5 -34 -149.5 -34c-58 0 -111.5 10.667 -160.5 32s-91.167 51.5 -126.5 90.5s-62.833 86 -82.5 141s-29.5 116.167 -29.5 183.5c0 71.333 10.833 135.333 32.5 192
s50.834 104.834 87.501 144.501s79.167 70.167 127.5 91.5s99.166 32 152.499 32c56 0 107 -12.667 153 -38s83.333 -64.333 112 -117h6l40 128h138zM283 423.999c0 -76.667 5.33105 -139.169 15.998 -187.502s25.834 -86.333 45.501 -114s42.834 -46.5 69.501 -56.5
s56 -15 88 -15c80.667 0 142.834 30.833 186.501 92.5s65.5 155.5 65.5 281.5c0 56 -4.33301 104.333 -13 145s-19.834 74.834 -33.501 102.501s-29.5 49.834 -47.5 66.501s-36.333 29.5 -55 38.5s-37.167 15 -55.5 18s-34.5 4.5 -48.5 4.5
c-30.667 0 -59.334 -5 -86.001 -15s-49.667 -28.667 -69 -56s-34.666 -65.5 -45.999 -114.5s-17 -112.5 -17 -190.5z" />
    <glyph glyph-name="r" unicode="r" horiz-adv-x="781" 
d="M545 0l-490 -0.00195312v80h150v692h-150v80h330v-155h4c12 26 26.833 49.833 44.5 71.5s37.167 40.5 58.5 56.5s44 28.333 68 37s48.333 13 73 13c40 0 73 -11.667 99 -35s39 -55.666 39 -96.999c0 -36.667 -10 -65.167 -30 -85.5s-46 -30.5 -78 -30.5
c-33.333 0 -58.833 9.66699 -76.5 29s-26.5 43.666 -26.5 72.999c0 15.333 3 32 9 50c-26 -9.33301 -50.167 -24.166 -72.5 -44.499s-41.833 -45.833 -58.5 -76.5s-29.667 -66.167 -39 -106.5s-14 -85.166 -14 -134.499v-337h160v-80z" />
    <glyph glyph-name="s" unicode="s" horiz-adv-x="838" 
d="M646 569c-3.33301 43.333 -10.502 80.0039 -21.502 110.004s-25.833 54.333 -44.5 73s-41.167 32.167 -67.5 40.5s-56.5 12.5 -90.5 12.5c-26 0 -50 -2.5 -72 -7.5s-41 -12.667 -57 -23s-28.5 -23.833 -37.5 -40.5s-13.5 -36.667 -13.5 -60s4.16699 -42.5 12.5 -57.5
s22 -28.333 41 -40s43.333 -22.834 73 -33.501l109.5 -38c34.667 -12 69 -24.667 103 -38s64.5 -30 91.5 -50s48.833 -44.167 65.5 -72.5s25 -62.833 25 -103.5c0 -46 -10.333 -86 -31 -120s-48 -62 -82 -84s-72.667 -38.333 -116 -49s-87.666 -16 -132.999 -16
c-24 0 -49.5 1.33301 -76.5 4s-53.667 6.33398 -80 11.001s-51.333 10.167 -75 16.5s-44.5 12.833 -62.5 19.5l-7 290h69c3.33301 -50.667 10.5 -93.167 21.5 -127.5s26.333 -61.833 46 -82.5s43.667 -35.334 72 -44.001s61.5 -13 99.5 -13c28.667 0 55.167 2.5 79.5 7.5
s45.5 13 63.5 24s32.167 25.5 42.5 43.5s15.5 39.667 15.5 65c0 22 -4 40.167 -12 54.5s-20.667 27.166 -38 38.499s-39.666 22 -66.999 32l-98 35c-38 13.333 -74.5 27.166 -109.5 41.499s-65.833 31.666 -92.5 51.999s-48 44.833 -64 73.5s-24 63.667 -24 105
c0 45.333 9.33301 84.5 28 117.5s43.5 60.167 74.5 81.5s66.667 37 107 47s82.166 15 125.499 15c22 0 45 -1.16699 69 -3.5s47.833 -5.5 71.5 -9.5s46.334 -8.5 68.001 -13.5s41.5 -9.83301 59.5 -14.5l7 -269h-68z" />
    <glyph glyph-name="t" unicode="t" horiz-adv-x="726" 
d="M691 200c-18 -78 -47.667 -135.499 -89 -172.499s-98.333 -55.5 -171 -55.5c-38 0 -72.167 4.66699 -102.5 14s-56.166 24.166 -77.499 44.499s-37.666 46.333 -48.999 78s-17 70.167 -17 115.5v548h-150v80h150v194l180 30v-224h260v-80h-260v-570
c0 -27.333 2.5 -49.666 7.5 -66.999s12.167 -31 21.5 -41s20.333 -16.833 33 -20.5s27 -5.5 43 -5.5c21.333 0 39.666 3.16699 54.999 9.5s28.833 16 40.5 29s21.667 29.167 30 48.5s16.166 41.666 23.499 66.999c12.667 -2 25 -4.66699 37 -8s23.667 -8 35 -14z" />
    <glyph glyph-name="u" unicode="u" horiz-adv-x="1128" 
d="M748 772l-145.002 -0.000976562v80h325v-772h150v-80h-330v128h-4c-29.333 -53.333 -65.666 -92.666 -108.999 -117.999s-99.333 -38 -168 -38c-95.333 0 -166.166 23.167 -212.499 69.5s-69.5 113.833 -69.5 202.5v528h-145v80h325v-638c0 -54 12.5 -92.833 37.5 -116.5
s60.833 -35.5 107.5 -35.5c32.667 0 63.5 6.16699 92.5 18.5s54.333 32.5 76 60.5s38.667 64.667 51 110s18.5 101 18.5 167v354z" />
    <glyph glyph-name="v" unicode="v" horiz-adv-x="1010" 
d="M467 -14l-353 786h-149v80h486v-80h-140l248 -555h4l247 555h-140v80h370v-80h-146l-347 -786h-80z" />
    <glyph glyph-name="w" unicode="w" horiz-adv-x="1559" 
d="M1028 -14l-246 606l-248 -606h-84l-326 786h-149v80h488v-80h-143l224 -555h4l256 640h61l257 -640h4l220 555h-140v80h373v-80h-146l-320 -786h-85z" />
    <glyph glyph-name="x" unicode="x" horiz-adv-x="970" 
d="M811 80h164v-80h-474v80h98l-160 243l-188 -243h118v-80h-384v80h161l244 317l-247 375h-143v80h459v-80h-104l159 -241l186 241h-117v80h378v-80h-156l-242 -315z" />
    <glyph glyph-name="y" unicode="y" horiz-adv-x="1016" 
d="M812 772l-139.998 0.00292969v80h374v-80h-148l-386 -874c-40 -91.333 -75.167 -166.833 -105.5 -226.5s-58.5 -107 -84.5 -142s-51.333 -59.5 -76 -73.5s-51.334 -21 -80.001 -21c-22.667 0 -42.834 3.5 -60.501 10.5s-32.667 16.333 -45 28
s-21.666 25.167 -27.999 40.5s-9.5 31 -9.5 47c0 14 2.33301 27.667 7 41s11.667 25.166 21 35.499s20.5 18.666 33.5 24.999s28.167 9.5 45.5 9.5c16 0 30.333 -2.83301 43 -8.5s23.167 -13.334 31.5 -23.001s14.666 -20.667 18.999 -33s6.5 -25.166 6.5 -38.499
c0 -8.66699 -0.666992 -15.667 -2 -21l4 -1c26 23.333 57.833 73.166 95.5 149.499s83.5 175.5 137.5 297.5l-349 778h-151v80h488v-80h-140l248 -555h4z" />
    <glyph glyph-name="z" unicode="z" horiz-adv-x="942" 
d="M835 334l-11 -333.999h-729v60l508 707h-153c-47.333 0 -86 -2.5 -116 -7.5s-54.833 -15.5 -74.5 -31.5s-35.167 -39.5 -46.5 -70.5s-21.333 -72.5 -30 -124.5h-76l16 314h709v-60l-515 -707h179c46.667 0 85 2.5 115 7.5s54.333 16.333 73 34s33.5 43.167 44.5 76.5
s21.167 78.666 30.5 135.999h76z" />
    <glyph glyph-name="braceleft" unicode="{" horiz-adv-x="1036" 
d="M186 40c45.333 0 83.666 6.17773 114.999 18.5107s56.5 32.833 75.5 61.5s32.667 66.167 41 112.5s12.5 103.166 12.5 170.499c0 40 -1.16699 88.5 -3.5 145.5s-5.33301 117.833 -9 182.5s-7.66699 131.167 -12 199.5l-12 196
c-3.66699 62.333 -6.66699 119.666 -9 171.999s-3.5 94.833 -3.5 127.5c0 83.333 8.66699 158.333 26 225s43.833 123.5 79.5 170.5s80.667 83.167 135 108.5s118.5 38 192.5 38v-80c-58 -3.33301 -104.333 -15.666 -139 -36.999s-61.167 -49.5 -79.5 -84.5
s-30.333 -75.167 -36 -120.5s-8.5 -93 -8.5 -143c0 -40.667 1.16699 -90.834 3.5 -150.501s5.16602 -123.834 8.49902 -192.501l10.5 -211.5l10.5 -207c3.33301 -65.667 6.16602 -125.834 8.49902 -180.501s3.5 -98.667 3.5 -132c0 -52.667 -3.5 -101.167 -10.5 -145.5
s-18.333 -84.333 -34 -120s-36.334 -67 -62.001 -94s-57.167 -49.5 -94.5 -67.5v-4c37.333 -18 68.833 -40.333 94.5 -67s46.334 -57.834 62.001 -93.501s27 -75.667 34 -120s10.5 -93.166 10.5 -146.499c0 -33.333 -1.16699 -77.333 -3.5 -132
s-5.16602 -114.834 -8.49902 -180.501l-10.5 -207l-10.5 -211.5c-3.33301 -68.667 -6.16602 -132.834 -8.49902 -192.501s-3.5 -109.834 -3.5 -150.501c0 -50 2.83301 -97.667 8.5 -143s17.667 -85.5 36 -120.5s44.833 -63.333 79.5 -85s81 -33.834 139 -36.501v-80
c-74 0 -138.167 12.667 -192.5 38s-99.333 61.5 -135 108.5s-62.167 103.833 -79.5 170.5s-26 141.667 -26 225c0 32.667 1.16699 75.167 3.5 127.5s5.33301 109.666 9 171.999l12 196c4.33301 68.333 8.33301 134.833 12 199.5s6.66699 125.5 9 182.5s3.5 105.5 3.5 145.5
c0 67.333 -4.16699 124.166 -12.5 170.499s-22 83.666 -41 111.999s-44.167 48.833 -75.5 61.5s-69.666 19 -114.999 19v80z" />
    <glyph glyph-name="bar" unicode="|" horiz-adv-x="890" 
d="M400 -1952v3890h90v-3890h-90z" />
    <glyph glyph-name="braceright" unicode="}" horiz-adv-x="1036" 
d="M850 -40c-45.333 0 -83.666 -6.34375 -114.999 -19.0107s-56.5 -33.167 -75.5 -61.5s-32.667 -65.666 -41 -111.999s-12.5 -103.166 -12.5 -170.499c0 -40 1.16699 -88.5 3.5 -145.5s5.33301 -117.833 9 -182.5s7.66699 -131.167 12 -199.5l12 -196
c3.66699 -62.333 6.66699 -119.666 9 -171.999s3.5 -94.833 3.5 -127.5c0 -83.333 -8.66699 -158.333 -26 -225s-43.833 -123.5 -79.5 -170.5s-80.667 -83.167 -135 -108.5s-118.5 -38 -192.5 -38v80c58 2.66699 104.333 14.834 139 36.501s61.167 50 79.5 85
s30.333 75.167 36 120.5s8.5 93 8.5 143c0 40.667 -1.16699 90.834 -3.5 150.501s-5.16602 123.834 -8.49902 192.501l-10.5 211.5l-10.5 207c-3.33301 65.667 -6.16602 125.834 -8.49902 180.501s-3.5 98.667 -3.5 132c0 53.333 3.5 102.166 10.5 146.499
s18.333 84.333 34 120s36.334 66.834 62.001 93.501s57.167 49 94.5 67v4c-37.333 18 -68.833 40.5 -94.5 67.5s-46.334 58.333 -62.001 94s-27 75.667 -34 120s-10.5 92.833 -10.5 145.5c0 33.333 1.16699 77.333 3.5 132s5.16602 114.834 8.49902 180.501l10.5 207
l10.5 211.5c3.33301 68.667 6.16602 132.834 8.49902 192.501s3.5 109.834 3.5 150.501c0 50 -2.83301 97.667 -8.5 143s-17.667 85.5 -36 120.5s-44.833 63.167 -79.5 84.5s-81 33.666 -139 36.999v80c74 0 138.167 -12.667 192.5 -38s99.333 -61.5 135 -108.5
s62.167 -103.833 79.5 -170.5s26 -141.667 26 -225c0 -32.667 -1.16699 -75.167 -3.5 -127.5s-5.33301 -109.666 -9 -171.999l-12 -196c-4.33301 -68.333 -8.33301 -134.833 -12 -199.5s-6.66699 -125.5 -9 -182.5s-3.5 -105.5 -3.5 -145.5
c0 -67.333 4.16699 -124.166 12.5 -170.499s22 -83.833 41 -112.5s44.167 -49.167 75.5 -61.5s69.666 -18.5 114.999 -18.5v-80z" />
    <glyph glyph-name="asciitilde" unicode="~" horiz-adv-x="1132" 
d="M992 558c-2.66699 -54 -10.498 -99.168 -23.498 -135.501s-29.5 -65.666 -49.5 -87.999s-43 -38.333 -69 -48s-53.333 -14.5 -82 -14.5c-27.333 0 -51.833 3.66699 -73.5 11s-41.667 16.666 -60 27.999s-35.333 24.333 -51 39l-44.5 43
c-28.667 28.667 -55.834 52.167 -81.501 70.5s-54.834 27.5 -87.501 27.5c-17.333 0 -34 -3.33301 -50 -10s-30.667 -17.667 -44 -33s-24.833 -36 -34.5 -62s-16.834 -58.333 -21.501 -97l-80 6c2.66699 58.667 12.334 106.667 29.001 144s36.667 66.333 60 87
s48.166 34.834 74.499 42.501s50.833 11.5 73.5 11.5c25.333 0 48.333 -3.33301 69 -10s40 -15.334 58 -26.001s35 -23 51 -37l47 -42l40.5 -37.5c13.667 -12.333 27.667 -23.166 42 -32.499s29.333 -17 45 -23s32.5 -9 50.5 -9c12.667 0 25.834 2.16699 39.501 6.5
s26.667 13.666 39 27.999s23.5 34.833 33.5 61.5s17.333 62.334 22 107.001z" />
    <glyph glyph-name="exclamdown" unicode="&#xa1;" horiz-adv-x="580" 
d="M268 -602c-14 0 -28.1709 2.5 -42.5039 7.5s-27.166 12.833 -38.499 23.5s-20.666 24.334 -27.999 41.001s-11 36.667 -11 60c0 19.333 1.5 41.333 4.5 66s7 54.167 12 88.5s10.5 74.333 16.5 120s12.333 99.167 19 160.5s13 131.333 19 210s11.333 168.334 16 269.001
h66c4.66699 -100.667 10 -190.334 16 -269.001s12.333 -148.667 19 -210s13 -114.833 19 -160.5s11.5 -85.667 16.5 -120s9 -63.833 12 -88.5s4.5 -46.667 4.5 -66c0 -23.333 -3.66699 -43.333 -11 -60s-16.666 -30.334 -27.999 -41.001s-24.166 -18.5 -38.499 -23.5
s-28.5 -7.5 -42.5 -7.5zM266.996 879c19.333 0 37.498 -3.33301 54.498 -10s31.667 -16 44 -28s22 -26.333 29 -43s10.5 -35 10.5 -55s-3.66699 -38.5 -11 -55.5s-17.166 -31.5 -29.499 -43.5s-27 -21.5 -44 -28.5s-34.833 -10.5 -53.5 -10.5
c-19.333 0 -37.166 3.33301 -53.499 10s-30.833 16 -43.5 28s-22.5 26.333 -29.5 43s-10.5 35 -10.5 55s3.66699 38.5 11 55.5s17.166 31.667 29.499 44s26.833 21.833 43.5 28.5s34.334 10 53.001 10z" />
    <glyph glyph-name="cent" unicode="&#xa2;" horiz-adv-x="1001" 
d="M505 1051l77.9971 0.000976562v-173c45.333 -2 86.833 -9.66699 124.5 -23s70 -30.166 97 -50.499s47.833 -43.666 62.5 -69.999s22 -53.5 22 -81.5c0 -19.333 -3.33301 -35.833 -10 -49.5s-15.334 -24.834 -26.001 -33.501s-22.5 -14.834 -35.5 -18.501
s-25.833 -5.5 -38.5 -5.5c-32.667 0 -58.5 10.167 -77.5 30.5s-28.5 45.5 -28.5 75.5c0 17.333 3.83301 34.833 11.5 52.5s20.5 35.167 38.5 52.5c-19.333 15.333 -41.666 26.666 -66.999 33.999s-49.666 12 -72.999 14v-755c29.333 2 57 8.16699 83 18.5
s49.667 25.333 71 45s40.333 44.5 57 74.5s30.334 66 41.001 108c13.333 -1.33301 26.333 -3.66602 39 -6.99902s25 -7.33301 37 -12c-21.333 -94 -59.5 -166.333 -114.5 -217s-126.167 -79.334 -213.5 -86.001v-174h-78v174c-62 4.66699 -117.833 19.5 -167.5 44.5
s-91.667 57.5 -126 97.5s-60.666 86 -78.999 138s-27.5 107 -27.5 165c0 58.667 9.33301 114.5 28 167.5s45.5 99.833 80.5 140.5s77 74.167 126 100.5s104.167 42.5 165.5 48.5v175zM300.997 422.001c0 -68 5.16699 -124.668 15.5 -170.001s24.5 -82.166 42.5 -110.499
s39.5 -49.333 64.5 -63s52.167 -22.5 81.5 -26.5v751c-28 -4 -54.333 -12.5 -79 -25.5s-46.167 -33.833 -64.5 -62.5s-33 -66.667 -44 -114s-16.5 -107 -16.5 -179z" />
    <glyph glyph-name="sterling" unicode="&#xa3;" horiz-adv-x="1046" 
d="M814 582l0.00195312 -79.9971h-379c0 -34 -2.5 -66 -7.5 -96s-13.333 -58.833 -25 -86.5s-27.167 -54.5 -46.5 -80.5s-43.333 -52 -72 -78l3 -6h375c45.333 0 81.333 2.16699 108 6.5s47.667 13.833 63 28.5s27 36.167 35 64.5s16 66.833 24 115.5h76v-370h-886v69
c35.333 23.333 64 47.166 86 71.499s39 49 51 74s20 50.333 24 76s6 51.5 6 77.5c0 21.333 -0.833008 43.166 -2.5 65.499s-3.83398 45.166 -6.50098 68.499h-151v80h141c-3.33301 24.667 -5.83301 50 -7.5 76s-2.5 50.667 -2.5 74c0 70 8.83301 132.5 26.5 187.5
s43.334 101.833 77.001 140.5s75.167 68.167 124.5 88.5s106 30.5 170 30.5c43.333 0 85 -4.83301 125 -14.5s75.167 -23.667 105.5 -42s54.666 -41.166 72.999 -68.499s27.5 -58.333 27.5 -93c0 -22 -3.5 -40.5 -10.5 -55.5s-16 -27.333 -27 -37s-23.333 -16.5 -37 -20.5
s-27.167 -6 -40.5 -6c-16 0 -30.833 2.83301 -44.5 8.5s-25.5 13.167 -35.5 22.5s-17.667 20.5 -23 33.5s-8 26.833 -8 41.5c0 18 4.33301 37.333 13 58s22.334 39.667 41.001 57c-26.667 16 -54.334 26.333 -83.001 31s-52.667 7 -72 7
c-44 0 -79.833 -7.83301 -107.5 -23.5s-49.334 -36.334 -65.001 -62.001s-26.167 -55 -31.5 -88s-8 -67.167 -8 -102.5c0 -42 2.33301 -83.5 7 -124.5s8.66699 -80.5 12 -118.5h385z" />
    <glyph glyph-name="currency" unicode="&#xa4;" horiz-adv-x="1178" 
d="M956 1002l62 -62l-143 -143c24 -30.667 42.833 -64.834 56.5 -102.501s20.5 -77.5 20.5 -119.5s-6.66699 -81.5 -20 -118.5s-32 -70.833 -56 -101.5l142 -139l-62 -62l-141 139c-30.667 -24.667 -65.167 -43.834 -103.5 -57.501s-78.5 -20.5 -120.5 -20.5
s-81.833 6.66699 -119.5 20s-71.834 32 -102.501 56l-147 -147l-62 62l147 147c-24 30.667 -42.667 64.834 -56 102.501s-20 77.5 -20 119.5s6.66699 81.5 20 118.5s31.666 70.833 54.999 101.5l-146 145l62 62l145 -144c31.333 24.667 65.833 43.834 103.5 57.501
s77.834 20.5 120.501 20.5c42 0 81.833 -6.83301 119.5 -20.5s71.834 -32.5 102.501 -56.5zM321 575c0 -38.667 7 -74.834 21 -108.501s33 -63.167 57 -88.5s52.5 -45.333 85.5 -60s68.5 -22 106.5 -22c37.333 0 72.5 7.33301 105.5 22s61.667 34.667 86 60
s43.666 54.833 57.999 88.5s21.5 69.834 21.5 108.501s-7.16699 75 -21.5 109s-33.666 63.667 -57.999 89s-53 45.333 -86 60s-68.167 22 -105.5 22c-38 0 -73.5 -7.33301 -106.5 -22s-61.5 -34.667 -85.5 -60s-43 -55 -57 -89s-21 -70.333 -21 -109z" />
    <glyph glyph-name="yen" unicode="&#xa5;" horiz-adv-x="1257" 
d="M1044 561v-78h-320v-134h320v-78h-320v-191h200v-80h-585v80h200v191h-320v78h320v134h-320v78h303l-325 509h-177v80h565v-80h-164l263 -413l259 413h-169v80h438v-80h-170l-318 -505v-4h320z" />
    <glyph glyph-name="brokenbar" unicode="&#xa6;" horiz-adv-x="900" 
d="M400 1487h100v-885h-100v885zM400 -565v885h100v-885h-100z" />
    <glyph glyph-name="section" unicode="&#xa7;" horiz-adv-x="1150" 
d="M910 -91c0 -39.333 -5.83691 -74.668 -17.5039 -106.001s-27.167 -58.833 -46.5 -82.5s-42 -43.667 -68 -60s-53.333 -29.666 -82 -39.999s-58 -17.833 -88 -22.5s-58.667 -7 -86 -7c-47.333 0 -90.833 6.16699 -130.5 18.5s-73.667 29 -102 50s-50.333 45.167 -66 72.5
s-23.5 56.333 -23.5 87c0 21.333 3.66699 39.333 11 54s16.5 26.5 27.5 35.5s23.333 15.5 37 19.5s26.834 6 39.501 6c30.667 0 56.334 -10 77.001 -30s31 -46 31 -78c0 -19.333 -4.16699 -38.833 -12.5 -58.5s-21.833 -38.167 -40.5 -55.5c22.667 -18 48.167 -30 76.5 -36
s55.166 -9 80.499 -9c30 0 58.833 3.5 86.5 10.5s52 17.667 73 32s37.667 32.666 50 54.999s18.5 49.166 18.5 80.499c0 35.333 -7.83301 67.833 -23.5 97.5s-36.5 57.834 -62.5 84.501s-55.667 52.334 -89 77.001l-104 75l-114.5 84.5c-37.667 29 -71.5 60.5 -101.5 94.5
s-54.167 70.833 -72.5 110.5s-27.5 84.167 -27.5 133.5c0 35.333 5 68.666 15 99.999s23.833 60.333 41.5 87s38.5 50.5 62.5 71.5s50.333 39.167 79 54.5c-31.333 35.333 -56 72.5 -74 111.5s-27 84.5 -27 136.5c0 60.667 11.833 111.667 35.5 153s53.667 74.666 90 99.999
s76.5 43.5 120.5 54.5s86 16.5 126 16.5c46 0 88.333 -6.16699 127 -18.5s72.167 -28.833 100.5 -49.5s50.5 -44.834 66.5 -72.501s24 -56.5 24 -86.5c0 -20.667 -3.66699 -38.167 -11 -52.5s-16.5 -25.833 -27.5 -34.5s-23.167 -15 -36.5 -19s-26.333 -6 -39 -6
c-16 0 -30.333 2.83301 -43 8.5s-23.667 13.334 -33 23.001s-16.5 20.667 -21.5 33s-7.5 25.5 -7.5 39.5c0 18 4.33301 37 13 57s22 38.667 40 56c-11.333 8.66699 -23.833 16 -37.5 22s-27.5 10.833 -41.5 14.5s-27.833 6.16699 -41.5 7.5s-26.5 2 -38.5 2
c-28.667 0 -55.834 -3.66699 -81.501 -11s-48.334 -18.333 -68.001 -33s-35.167 -33.5 -46.5 -56.5s-17 -49.833 -17 -80.5c0 -36.667 7.83301 -70.167 23.5 -100.5s36.334 -59 62.001 -86s55 -52.833 88 -77.5l102.5 -74l111 -82c36.667 -28 69.334 -58.5 98.001 -91.5
s51.834 -69 69.501 -108s26.5 -82.833 26.5 -131.5c0 -35.333 -5 -68.666 -15 -99.999s-23.667 -60.166 -41 -86.499s-37.666 -50 -60.999 -71s-48.666 -39.167 -75.999 -54.5c34.667 -36.667 62.167 -75.5 82.5 -116.5s30.5 -88.167 30.5 -141.5zM840.996 398.998
c0 26 -3.16602 50 -9.49902 72s-15.333 42.333 -27 61s-25.834 36.5 -42.501 53.5s-35.334 33.5 -56.001 49.5c-19.333 15.333 -40.5 31 -63.5 47l-73.5 52l-81 61c-28 22 -56.667 46.333 -86 73c-30 -21.333 -53 -47.5 -69 -78.5s-24 -67.5 -24 -109.5
c0 -52 12.667 -96.667 38 -134s59.333 -72.333 102 -105l68 -49.5l72.5 -51l77.5 -57.5l84 -68c28.667 19.333 50.834 44.333 66.501 75s23.5 67 23.5 109z" />
    <glyph glyph-name="dieresis" unicode="&#xa8;" horiz-adv-x="800" 
d="M199 1134c-32.667 0 -60 10.5 -82 31.5s-33 48.5 -33 82.5c0 16.667 3 32 9 46s14.167 26.167 24.5 36.5s22.5 18.333 36.5 24s29 8.5 45 8.5c32.667 0 60 -10.5 82 -31.5s33 -48.5 33 -82.5c0 -17.333 -3 -33 -9 -47s-14.167 -26 -24.5 -36s-22.5 -17.833 -36.5 -23.5
s-29 -8.5 -45 -8.5zM601 1134c-32.667 0 -60 10.5 -82 31.5s-33 48.5 -33 82.5c0 16.667 3 32 9 46s14.167 26.167 24.5 36.5s22.5 18.333 36.5 24s29 8.5 45 8.5c32.667 0 60 -10.5 82 -31.5s33 -48.5 33 -82.5c0 -17.333 -3 -33 -9 -47s-14.167 -26 -24.5 -36
s-22.5 -17.833 -36.5 -23.5s-29 -8.5 -45 -8.5z" />
    <glyph glyph-name="copyright" unicode="&#xa9;" horiz-adv-x="1841" 
d="M160 726c0 112 19.833 214.5 59.5 307.5s94 173.167 163 240.5s149.5 119.666 241.5 156.999s190.667 56 296 56c70 0 137.333 -8.5 202 -25.5s125.334 -41.167 182.001 -72.5s108 -69.5 154 -114.5s85.667 -95.833 119 -152.5s59 -118.167 77 -184.5
s27 -136.833 27 -211.5s-9 -145.167 -27 -211.5s-43.667 -127.666 -77 -183.999s-73 -107 -119 -152s-97.333 -83.167 -154 -114.5s-117.334 -55.5 -182.001 -72.5s-132 -25.5 -202 -25.5c-105.333 0 -204 18.667 -296 56s-172.5 89.5 -241.5 156.5s-123.333 147 -163 240
s-59.5 195.5 -59.5 307.5zM241 726c0 -102 17.667 -195 53 -279s83.666 -156 144.999 -216s133.333 -106.667 216 -140s171 -50 265 -50s182.333 16.667 265 50s154.834 80 216.501 140s110.167 132 145.5 216s53 177 53 279s-17.667 195 -53 279
s-83.833 156.167 -145.5 216.5s-133.834 107.166 -216.501 140.499s-171 50 -265 50s-182.333 -16.667 -265 -50s-154.667 -80.166 -216 -140.499s-109.666 -132.5 -144.999 -216.5s-53 -177 -53 -279zM1240 539l-9.00098 -278.002c-23.333 -8 -48.333 -15 -75 -21
s-53.834 -11.167 -81.501 -15.5s-55 -7.66602 -82 -9.99902s-52.167 -3.5 -75.5 -3.5c-74.667 0 -142 11.667 -202 35s-111 56.833 -153 100.5s-74.333 96.667 -97 159s-34 132.5 -34 210.5c0 80 12 152.5 36 217.5s58 120.333 102 166s97.167 80.834 159.5 105.501
s131.833 37 208.5 37c44 0 90.333 -4 139 -12s95.334 -18.667 140.001 -32l8 -257h-62c-3.33301 48.667 -12 88 -26 118s-31.5 53.333 -52.5 70s-44.833 27.667 -71.5 33s-54 8 -82 8c-44.667 0 -85.5 -6.16699 -122.5 -18.5s-69 -35 -96 -68s-48 -78.833 -63 -137.5
s-22.5 -134 -22.5 -226c0 -91.333 7.33301 -165.5 22 -222.5s34.834 -101.333 60.501 -133s56.167 -53.167 91.5 -64.5s74 -17 116 -17c34 0 65.833 3.5 95.5 10.5s56 20 79 39s42 45.167 57 78.5s25.167 76 30.5 128h62z" />
    <glyph glyph-name="ordfeminine" unicode="&#xaa;" horiz-adv-x="709" 
d="M659 734c-18.667 -3.33301 -35.832 -5.5 -51.499 -6.5s-28.167 -1.5 -37.5 -1.5c-25.333 0 -46.333 1.83301 -63 5.5s-29.834 9 -39.501 16s-16.667 15.5 -21 25.5s-6.83301 21.333 -7.5 34h-8c-24 -34.667 -51.667 -58.667 -83 -72s-63 -20 -95 -20
c-54 0 -95.5 14 -124.5 42s-43.5 63.667 -43.5 107c0 62 29.333 109 88 141s144.667 49 258 51c0.666992 14.667 1.16699 30 1.5 46s0.5 28.667 0.5 38c0 24 -1.83301 43.833 -5.5 59.5s-9.5 28.167 -17.5 37.5s-18 15.833 -30 19.5s-26.333 5.5 -43 5.5
c-43.333 0 -77.666 -9 -102.999 -27c20.667 -20 31 -41.333 31 -64c0 -18 -6.5 -33.667 -19.5 -47s-31.167 -20 -54.5 -20c-19.333 0 -36.833 5.83301 -52.5 17.5s-23.5 29.5 -23.5 53.5c0 18 5.16699 35.5 15.5 52.5s25.666 32 45.999 45s45.833 23.5 76.5 31.5
s66.334 12 107.001 12c32.667 0 61.667 -3.16699 87 -9.5s46.666 -17 63.999 -32s30.5 -35 39.5 -60s13.5 -56.167 13.5 -93.5c0 -6 -0.166992 -18.167 -0.5 -36.5s-0.5 -39.166 -0.5 -62.499s-0.166992 -47.5 -0.5 -72.5s-0.5 -47.167 -0.5 -66.5s0.333008 -35.333 1 -48
s2.83398 -22.834 6.50098 -30.501s9 -13.167 16 -16.5s17.167 -5 30.5 -5c5.33301 0 11.666 0.333008 18.999 1s15.333 1.66699 24 3v-53zM431.002 1005c-43.333 -1.33301 -78.499 -5.16699 -105.499 -11.5s-48 -14.833 -63 -25.5s-25.167 -23.334 -30.5 -38.001
s-8 -31 -8 -49c0 -32 6.5 -56.5 19.5 -73.5s31.5 -25.5 55.5 -25.5c12.667 0 26.667 2.66699 42 8s29.666 14.333 42.999 27s24.5 29.334 33.5 50.001s13.5 46.667 13.5 78v60z" />
    <glyph glyph-name="guillemotleft" unicode="&#xab;" horiz-adv-x="945" 
d="M131 448l304 324.002c9.33301 -4.66699 18.166 -9.83398 26.499 -15.501s16.5 -12.167 24.5 -19.5l-195 -312l195 -312c-8 -7.33301 -16.167 -13.833 -24.5 -19.5s-17.166 -10.834 -26.499 -15.501l-304 324v46zM460 448.002l304 324.002
c9.33301 -4.66699 18.166 -9.83398 26.499 -15.501s16.5 -12.167 24.5 -19.5l-195 -312l195 -312c-8 -7.33301 -16.167 -13.833 -24.5 -19.5s-17.166 -10.834 -26.499 -15.501l-304 324v46z" />
    <glyph glyph-name="logicalnot" unicode="&#xac;" horiz-adv-x="1132" 
d="M992 470v-480h-88v392h-774v88h862z" />
    <glyph glyph-name="registered" unicode="&#xae;" horiz-adv-x="1230" 
d="M907 717c-4.66699 -0.666992 -10.501 -1.33008 -17.501 -1.99707s-13.833 -1.16699 -20.5 -1.5s-12.5 -0.5 -17.5 -0.5h-8.5c-28.667 0 -51 2 -67 6s-28.167 11 -36.5 21s-14.333 23.167 -18 39.5s-7.16699 37.166 -10.5 62.499c-4 30.667 -8 56.667 -12 78
s-9.66699 38.833 -17 52.5s-17.5 23.5 -30.5 29.5s-30.833 9 -53.5 9h-71v-243h93v-50h-291v50h89v510h-84v50h255c47.333 0 87.5 -3.33301 120.5 -10s59.833 -16.334 80.5 -29.001s35.667 -27.667 45 -45s14 -37 14 -59c0 -34.667 -11.167 -66.167 -33.5 -94.5
s-57.166 -47.5 -104.499 -57.5v-2c19.333 -4 35.166 -10.333 47.499 -19s22.5 -19.167 30.5 -31.5s14.167 -26.5 18.5 -42.5s8.16602 -33.333 11.499 -52c4 -20 7.16699 -38 9.5 -54s5.83301 -29.333 10.5 -40s10.834 -18.834 18.501 -24.501s18.834 -8.5 33.501 -8.5h5.5
c3 0 6.5 0.333008 10.5 1v-43zM526.999 1059h57c28.667 0 52.5 2.16699 71.5 6.5s34.333 11.333 46 21s20 22 25 37s7.5 33.167 7.5 54.5c0 17.333 -1.66699 32.333 -5 45s-10.333 23 -21 31s-25.5 14 -44.5 18s-43.833 6 -74.5 6h-62v-219zM175.999 1018
c0 -62 11.5 -118.5 34.5 -169.5s54.167 -95 93.5 -132s85.666 -65.667 138.999 -86s110.666 -30.5 171.999 -30.5c60.667 0 117.834 10.167 171.501 30.5s100.167 49 139.5 86s70.5 81 93.5 132s34.5 107.5 34.5 169.5s-11.5 118.667 -34.5 170s-54.167 95.5 -93.5 132.5
s-85.833 65.667 -139.5 86s-110.834 30.5 -171.501 30.5c-61.333 0 -118.666 -10.167 -171.999 -30.5s-99.666 -49 -138.999 -86s-70.5 -81.167 -93.5 -132.5s-34.5 -108 -34.5 -170zM119.999 1018c0 68.667 13 131.834 39 189.501s61.333 107.167 106 148.5
s97 73.5 157 96.5s124.333 34.5 193 34.5s133 -11.5 193 -34.5s112.333 -55.167 157 -96.5s80 -90.833 106 -148.5s39 -120.834 39 -189.501c0 -69.333 -13 -132.666 -39 -189.999s-61.333 -106.5 -106 -147.5s-97 -73 -157 -96s-124.333 -34.5 -193 -34.5
s-133 11.5 -193 34.5s-112.333 55 -157 96s-80 90.167 -106 147.5s-39 120.666 -39 189.999z" />
    <glyph glyph-name="macron" unicode="&#xaf;" horiz-adv-x="800" 
d="M131 1268h538v-85h-538v85z" />
    <glyph glyph-name="degree" unicode="&#xb0;" horiz-adv-x="761" 
d="M80 1015c0 41.333 7.83301 80.333 23.5 117s37 68.667 64 96s58.833 48.833 95.5 64.5s75.667 23.5 117 23.5s80.333 -7.83301 117 -23.5s68.667 -37.167 96 -64.5s48.833 -59.333 64.5 -96s23.5 -75.667 23.5 -117s-7.83301 -80.333 -23.5 -117
s-37.167 -68.5 -64.5 -95.5s-59.333 -48.333 -96 -64s-75.667 -23.5 -117 -23.5s-80.333 7.83301 -117 23.5s-68.5 37 -95.5 64s-48.333 58.833 -64 95.5s-23.5 75.667 -23.5 117zM162 1015c0 -31.333 5.66699 -60.5 17 -87.5s26.833 -50.833 46.5 -71.5
s42.667 -36.834 69 -48.501s54.833 -17.5 85.5 -17.5s59.334 5.83301 86.001 17.5s49.834 27.834 69.501 48.501s35.167 44.5 46.5 71.5s17 56.167 17 87.5c0 30.667 -5.66699 59.834 -17 87.501s-26.833 51.667 -46.5 72s-42.834 36.5 -69.501 48.5s-55.334 18 -86.001 18
s-59.167 -6 -85.5 -18s-49.333 -28.167 -69 -48.5s-35.167 -44.333 -46.5 -72s-17 -56.834 -17 -87.501z" />
    <glyph glyph-name="plusminus" unicode="&#xb1;" horiz-adv-x="1132" 
d="M1002 570v-88h-392v-292h-88v292h-392v88h392v292h88v-292h392zM1002 88v-88h-872v88h872z" />
    <glyph glyph-name="uni00B2" unicode="&#xb2;" horiz-adv-x="808" 
d="M109 781l191.997 127.504c52 35.667 94 69.667 126 102s55 65.5 69 99.5s21 74 21 120c0 39.333 -4.33301 71.166 -13 95.499s-20 43 -34 56s-30 21.667 -48 26s-36.333 6.5 -55 6.5c-58.667 0 -105.667 -15.667 -141 -47c14 -14 24.5 -29 31.5 -45s10.5 -31 10.5 -45
c0 -23.333 -8.5 -41.166 -25.5 -53.499s-35.5 -18.5 -55.5 -18.5c-10 0 -19.667 1.5 -29 4.5s-17.666 7.66699 -24.999 14s-13.166 14.666 -17.499 24.999s-6.5 22.833 -6.5 37.5c0 22.667 6 45 18 67s29.833 41.5 53.5 58.5s52.5 30.667 86.5 41s73 15.5 117 15.5
c42.667 0 81.334 -5.16699 116.001 -15.5s64.167 -25.333 88.5 -45s43 -43.334 56 -71.001s19.5 -58.834 19.5 -93.501c0 -45.333 -9.83301 -85.333 -29.5 -120s-44.334 -65.834 -74.001 -93.501s-61.667 -52.667 -96 -75l-95.5 -64.5l-61 -43l1 -5h205c22 0 40 1 54 3
s25.5 6.16699 34.5 12.5s15.833 15.833 20.5 28.5s8.33398 29.667 11.001 51h54l-12 -207h-567v51z" />
    <glyph glyph-name="uni00B3" unicode="&#xb3;" horiz-adv-x="768" 
d="M258 1065c-2 10 -3.33691 19.4971 -4.00391 28.4971s-1 18.167 -1 27.5c45.333 3.33301 83.833 9 115.5 17s57.334 18.667 77.001 32s33.834 29.5 42.501 48.5s13 41.167 13 66.5c0 24.667 -3.66699 45.334 -11 62.001s-17.166 30 -29.499 40s-26.5 17 -42.5 21
s-32.667 6 -50 6c-28.667 0 -56.834 -4.33301 -84.501 -13s-49.167 -20 -64.5 -34c10.667 -12 18.5 -25.167 23.5 -39.5s7.5 -27.166 7.5 -38.499c0 -20 -6.66699 -36.667 -20 -50s-30.666 -20 -51.999 -20c-8.66699 0 -17.5 1.16699 -26.5 3.5s-17.333 6.33301 -25 12
s-14 13.167 -19 22.5s-7.5 21 -7.5 35c0 22.667 7 44.667 21 66s33.5 40.166 58.5 56.499s55 29.333 90 39s73.5 14.5 115.5 14.5c40.667 0 77.334 -4.66699 110.001 -14s60.334 -22 83.001 -38s40 -34.667 52 -56s18 -44 18 -68c0 -38 -15.333 -72.667 -46 -104
s-77.334 -55.666 -140.001 -72.999v-5c30.667 -4 59 -11.333 85 -22s48.333 -24 67 -40s33.167 -34.5 43.5 -55.5s15.5 -43.833 15.5 -68.5c0 -29.333 -7.16699 -56.666 -21.5 -81.999s-34.833 -47.333 -61.5 -66s-58.667 -33.5 -96 -44.5s-79.333 -16.5 -126 -16.5
c-44 0 -83.833 4.83301 -119.5 14.5s-66 22.667 -91 39s-44.167 35 -57.5 56s-20 42.5 -20 64.5c0 24 7.33301 44 22 60s34.667 24 60 24c20.667 0 39.167 -6 55.5 -18s24.5 -31.667 24.5 -59c0 -14.667 -3 -29.5 -9 -44.5s-15.333 -27.5 -28 -37.5
c14.667 -12.667 36.334 -23.167 65.001 -31.5s58.667 -12.5 90 -12.5c20.667 0 41 2.33301 61 7s37.667 12.5 53 23.5s27.666 25.833 36.999 44.5s14 41.667 14 69c0 50 -17 88.5 -51 115.5s-84.333 40.5 -151 40.5c-9.33301 0 -19.5 -0.333008 -30.5 -1s-22.5 -2 -34.5 -4z
" />
    <glyph glyph-name="acute" unicode="&#xb4;" horiz-adv-x="800" 
d="M370 1020c-10 4 -18.833 9 -26.5 15s-15.167 13 -22.5 21l245 414c50 -20.667 99 -53.667 147 -99z" />
    <glyph glyph-name="uni00B5" unicode="&#xb5;" horiz-adv-x="1115" 
d="M288 129l-10.498 -83.502c-3 -24.333 -5.5 -46.333 -7.5 -66s-3.33301 -37.167 -4 -52.5s-1 -29.666 -1 -42.999c0 -41.333 3.33301 -74.166 10 -98.499s15.5 -44.833 26.5 -61.5s23.333 -31.834 37 -45.501s27.167 -30.167 40.5 -49.5
c10 -14.667 17.667 -28.834 23 -42.501s8 -28.167 8 -43.5c0 -32 -9.66699 -57 -29 -75s-42.333 -27 -69 -27c-31.333 0 -55.833 8.66699 -73.5 26s-30.834 38.5 -39.501 63.5s-14 51.667 -16 80s-3 53.5 -3 75.5v1166h172v-476c0 -50.667 4.66699 -92.667 14 -126
s22.5 -60 39.5 -80s37.167 -34 60.5 -42s48.666 -12 75.999 -12c28.667 0 55.334 4.5 80.001 13.5s46 24.833 64 47.5s32 53.334 42 92.001s15 87.334 15 146.001v437h172v-631c0 -29.333 0.666992 -53.833 2 -73.5s4.66602 -35.334 9.99902 -47.001s13.333 -20 24 -25
s25.667 -7.5 45 -7.5c16.667 0 38.667 2 66 6v-74c-28 -5.33301 -54 -8.66602 -78 -9.99902s-43.333 -2 -58 -2c-35.333 0 -64.166 2.83301 -86.499 8.5s-40.166 15.167 -53.499 28.5s-22.833 30.5 -28.5 51.5s-9.16699 47.167 -10.5 78.5l-5 1
c-44.667 -123.333 -118.334 -185 -221.001 -185c-24.667 0 -48.5 3.5 -71.5 10.5s-44.333 17.167 -64 30.5s-37.334 29.833 -53.001 49.5s-28.5 42.167 -38.5 67.5h-6z" />
    <glyph glyph-name="paragraph" unicode="&#xb6;" horiz-adv-x="1150" 
d="M887 1373v-1782h-87v1782h-192v-1782h-87v1046c-166 0.666992 -290.667 35.834 -374 105.501s-125 168.167 -125 295.5c0 66 10.833 124.667 32.5 176s53.667 94.666 96 129.999s94.5 62.333 156.5 81s133.333 28 214 28h524v-80h-158z" />
    <glyph glyph-name="periodcentered" unicode="&#xb7;" horiz-adv-x="580" 
d="M290 312c-20 0 -38.833 3.49707 -56.5 10.4971s-32.834 16.667 -45.501 29s-22.667 27.166 -30 44.499s-11 36.333 -11 57s3.66699 39.834 11 57.501s17.5 32.834 30.5 45.501s28.167 22.5 45.5 29.5s36 10.5 56 10.5s38.5 -3.5 55.5 -10.5s32 -16.667 45 -29
s23.167 -27.166 30.5 -44.499s11 -36.333 11 -57c0 -21.333 -3.66699 -40.666 -11 -57.999s-17.5 -32.333 -30.5 -45s-28.167 -22.5 -45.5 -29.5s-35.666 -10.5 -54.999 -10.5z" />
    <glyph glyph-name="cedilla" unicode="&#xb8;" horiz-adv-x="800" 
d="M275 -345c17.333 -12.667 34.5 -22 51.5 -28s33.167 -9 48.5 -9c28.667 0 52.5 9.5 71.5 28.5s28.5 45.5 28.5 79.5s-9.5 59.5 -28.5 76.5s-44.5 25.5 -76.5 25.5c-5.33301 0 -11.333 -0.333008 -18 -1s-13.667 -1.66699 -21 -3v186h70v-112h13
c26.667 0 51.167 -4.16699 73.5 -12.5s41.5 -19.833 57.5 -34.5s28.5 -32.334 37.5 -53.001s13.5 -43 13.5 -67c0 -29.333 -6 -55.166 -18 -77.499s-27.667 -41 -47 -56s-41.166 -26.5 -65.499 -34.5s-49.166 -12 -74.499 -12c-28 0 -55.333 4.83301 -82 14.5
s-49.667 24.167 -69 43.5c3.33301 8.66699 7.66602 17 12.999 25s12.666 15 21.999 21z" />
    <glyph glyph-name="uni00B9" unicode="&#xb9;" horiz-adv-x="667" 
d="M411 1453v-661h156v-62h-442v62h156v599h-171v62h301z" />
    <glyph glyph-name="ordmasculine" unicode="&#xba;" horiz-adv-x="746" 
d="M80 1011c0 41.333 6.66797 80.5 20.001 117.5s32.666 69.333 57.999 97s56.666 49.667 93.999 66s79.666 24.5 126.999 24.5c46.667 0 87.834 -7.83301 123.501 -23.5s65.667 -37 90 -64s42.666 -58.5 54.999 -94.5s18.5 -74 18.5 -114
c0 -41.333 -6.66699 -80.5 -20 -117.5s-32.666 -69.333 -57.999 -97s-56.5 -49.667 -93.5 -66s-79.167 -24.5 -126.5 -24.5c-46.667 0 -88 7.83301 -124 23.5s-66.167 37 -90.5 64s-42.666 58.5 -54.999 94.5s-18.5 74 -18.5 114zM227.001 1013c0 -46 3 -84.667 9 -116
s15.167 -56.5 27.5 -75.5s27.5 -32.5 45.5 -40.5s39 -12 63 -12s45.167 4.16699 63.5 12.5s33.666 22.166 45.999 41.499s21.666 44.833 27.999 76.5s9.5 71.167 9.5 118.5c0 46 -3 84.667 -9 116s-15 56.5 -27 75.5s-27 32.5 -45 40.5s-39 12 -63 12
c-24.667 0 -46.167 -4.16699 -64.5 -12.5s-33.666 -22.166 -45.999 -41.499s-21.666 -45 -27.999 -77s-9.5 -71.333 -9.5 -118z" />
    <glyph glyph-name="guillemotright" unicode="&#xbb;" horiz-adv-x="945" 
d="M486 402l-304 -324.002c-9.33301 4.66699 -18.166 9.83398 -26.499 15.501s-16.5 12.167 -24.5 19.5l195 312l-195 312c8 7.33301 16.167 13.833 24.5 19.5s17.166 10.834 26.499 15.501l304 -324v-46zM815 401.998l-304 -324.002
c-9.33301 4.66699 -18.166 9.83398 -26.499 15.501s-16.5 12.167 -24.5 19.5l195 312l-195 312c8 7.33301 16.167 13.833 24.5 19.5s17.166 10.834 26.499 15.501l304 -324v-46z" />
    <glyph glyph-name="onequarter" unicode="&#xbc;" horiz-adv-x="1671" 
d="M907 249l454 562h66v-528h164l-5 -94h-159v-199h-132v199h-388v60zM1339 1487c14 -6.66699 25.833 -13.668 35.5 -21.001s19.167 -15.666 28.5 -24.999l-1038 -1475c-13.333 6 -25 12.5 -35 19.5s-19.667 15.5 -29 25.5zM413 1453v-744h156v-64h-444v64h156v680h-171v64
h303zM1292 621.999l-276 -339h279v338z" />
    <glyph glyph-name="onehalf" unicode="&#xbd;" horiz-adv-x="1763" 
d="M413 1453v-744h156v-64h-444v64h156v680h-171v64h303zM1339 1487c14 -6.66699 25.833 -13.668 35.5 -21.001s19.167 -15.666 28.5 -24.999l-1038 -1475c-13.333 6 -25 12.5 -35 19.5s-19.667 15.5 -29 25.5zM1023 52.999l63.9961 47l167.5 125.5
c45.667 35 82.667 68.667 111 101s48.666 65.5 60.999 99.5s18.5 74.333 18.5 121c0 39.333 -3.66699 72.333 -11 99s-17.666 48 -30.999 64s-29.666 27.333 -48.999 34s-41.333 10 -66 10c-30.667 0 -58.667 -5.16699 -84 -15.5s-47.666 -24.833 -66.999 -43.5
c14.667 -14 25.334 -29 32.001 -45s10 -31 10 -45c0 -25.333 -8.33301 -44.333 -25 -57s-35 -19 -55 -19s-38.5 6.83301 -55.5 20.5s-25.5 35.167 -25.5 64.5c0 24 6.33301 47.667 19 71s31.334 44.333 56.001 63s54.667 33.667 90 45s76 17 122 17c48 0 90 -6.5 126 -19.5
s66 -30.667 90 -53s42 -48.5 54 -78.5s18 -62 18 -96c0 -32.667 -5 -62.834 -15 -90.501s-23.333 -53.5 -40 -77.5s-35.667 -46.5 -57 -67.5s-43.333 -40.667 -66 -59s-45.334 -35.666 -68.001 -51.999l-62 -46.5l-64 -51l1 -5h220c22 0 40 1 54 3s25.5 6.16699 34.5 12.5
s15.833 15.833 20.5 28.5s8.33398 29.667 11.001 51h56v-209h-595v53z" />
    <glyph glyph-name="threequarters" unicode="&#xbe;" horiz-adv-x="1706" 
d="M942 249l454 562h66v-528h164v-94h-164v-199h-132v199h-388v60zM1374 1487c14 -6.66699 25.833 -13.668 35.5 -21.001s19.167 -15.666 28.5 -24.999l-1038 -1475c-13.333 6 -25 12.5 -35 19.5s-19.667 15.5 -29 25.5zM1327 621.999l-276 -339h279v338zM275 1022
c-2 10.667 -3.33691 20.4941 -4.00391 29.4941s-1 18.5 -1 28.5c46 4 84.833 10.333 116.5 19s57.334 20.5 77.001 35.5s33.834 33.333 42.501 55s13 46.834 13 75.501c0 28 -3.83301 51.5 -11.5 70.5s-18 34.167 -31 45.5s-28.167 19.333 -45.5 24s-35.333 7 -54 7
c-15.333 0 -30.666 -1.33301 -45.999 -4s-30 -6.16699 -44 -10.5s-26.833 -9.66602 -38.5 -15.999s-21.5 -13.5 -29.5 -21.5c10.667 -13.333 18.5 -27.666 23.5 -42.999s7.5 -29.666 7.5 -42.999c0 -22 -6.66699 -40.333 -20 -55s-30.666 -22 -51.999 -22
c-8.66699 0 -17.5 1.33301 -26.5 4s-17.333 7.16699 -25 13.5s-14 14.5 -19 24.5s-7.5 22.333 -7.5 37c0 24.667 7.16699 48.5 21.5 71.5s34.5 43.5 60.5 61.5s57.167 32.333 93.5 43s76.5 16 120.5 16c42 0 80 -5.16699 114 -15.5s62.833 -24.333 86.5 -42
s41.834 -38.5 54.501 -62.5s19 -49.667 19 -77c0 -42 -16 -80.667 -48 -116s-80.333 -62.666 -145 -81.999v-6c32 -4 61.333 -11.833 88 -23.5s49.667 -26.5 69 -44.5s34.333 -38.5 45 -61.5s16 -48.167 16 -75.5c0 -32 -7.33301 -62.167 -22 -90.5s-35.834 -53 -63.501 -74
s-61 -37.5 -100 -49.5s-82.5 -18 -130.5 -18c-46 0 -87.5 5.33301 -124.5 16s-68.5 24.834 -94.5 42.501s-45.833 38 -59.5 61s-20.5 46.5 -20.5 70.5c0 26 7.33301 47.667 22 65s34.667 26 60 26c28 0 48.333 -8.33301 61 -25s19 -36 19 -58
c0 -16.667 -3.33301 -33.167 -10 -49.5s-15.667 -30.5 -27 -42.5c14.667 -14 37.5 -25.667 68.5 -35s62.833 -14 95.5 -14c22 0 43.5 2.66699 64.5 8s39.667 14.333 56 27s29.333 29.5 39 50.5s14.5 47.167 14.5 78.5c0 56.667 -17 100.167 -51 130.5s-85 45.5 -153 45.5
c-8.66699 0 -18.5 -0.333008 -29.5 -1s-22.5 -2 -34.5 -4z" />
    <glyph glyph-name="questiondown" unicode="&#xbf;" horiz-adv-x="944" 
d="M691 -443c-18.667 20 -33.6641 41.5059 -44.9971 64.5059s-17 46.167 -17 69.5c0 16 3 30.833 9 44.5s14.167 25.5 24.5 35.5s22.5 17.833 36.5 23.5s29.333 8.5 46 8.5c14.667 0 29.167 -2.5 43.5 -7.5s27.166 -12.5 38.499 -22.5s20.333 -22.333 27 -37s10 -32 10 -52
c0 -30 -8.5 -61.833 -25.5 -95.5s-42 -64.5 -75 -92.5s-74.167 -51.333 -123.5 -70s-106 -28 -170 -28c-63.333 0 -119.5 9.33301 -168.5 28s-90.333 43.5 -124 74.5s-59.167 66.5 -76.5 106.5s-26 81.667 -26 125c0 85.333 34.333 165.333 103 240
c18.667 20.667 39.167 40.5 61.5 59.5l67.5 57.5c22.667 19.333 44.5 39.166 65.5 59.499s39.667 41.833 56 64.5s29.333 47.167 39 73.5s14.5 55.166 14.5 86.499c0 9.33301 -0.5 20.166 -1.5 32.499s-2.5 25.166 -4.5 38.499c10.667 4 22.167 6.83301 34.5 8.5
s24.166 2.5 35.499 2.5c10.667 -42 16 -81 16 -117c0 -34.667 -4.33301 -66 -13 -94s-19.834 -53.5 -33.501 -76.5s-29.167 -44.333 -46.5 -64l-51 -56.5l-58 -66c-18 -21.333 -33.5 -44.333 -46.5 -69s-23.333 -51.834 -31 -81.501s-11.5 -63.834 -11.5 -102.501
c0 -45.333 5.33301 -83.833 16 -115.5s25.667 -57.5 45 -77.5s42.5 -34.5 69.5 -43.5s57.167 -13.5 90.5 -13.5c40 0 77.667 6.33301 113 19s64 32.667 86 60zM509.003 879.006c18.667 0 36.3291 -3.33301 52.9961 -10s31.334 -16 44.001 -28s22.5 -26.333 29.5 -43
s10.5 -35 10.5 -55s-3.66699 -38.5 -11 -55.5s-17.166 -31.5 -29.499 -43.5s-27 -21.5 -44 -28.5s-34.833 -10.5 -53.5 -10.5c-19.333 0 -37.166 3.33301 -53.499 10s-30.833 16 -43.5 28s-22.5 26.333 -29.5 43s-10.5 35 -10.5 55s3.5 38.5 10.5 55.5
s16.833 31.667 29.5 44s27.334 21.833 44.001 28.5s34.667 10 54 10z" />
    <glyph glyph-name="Agrave" unicode="&#xc0;" horiz-adv-x="1415" 
d="M447 80v-80h-487v80h190l520 1388h79l488 -1388h198v-80h-615v80h208l-150 427h-472l-159 -427h200zM648 1152l-211 -564h413l-198 564h-4zM431 1792c15.333 26 32.501 50.167 51.501 72.5s39.167 41.833 60.5 58.5l345 -335
c-8.66699 -19.333 -21.334 -35.333 -38.001 -48z" />
    <glyph glyph-name="Aacute" unicode="&#xc1;" horiz-adv-x="1415" 
d="M447 80v-80h-487v80h190l520 1388h79l488 -1388h198v-80h-615v80h208l-150 427h-472l-159 -427h200zM648 1152l-211 -564h413l-198 564h-4zM570 1540c-16.667 12.667 -29.333 28.667 -38 48l345 335c21.333 -16.667 41.5 -36.167 60.5 -58.5s36.167 -46.5 51.5 -72.5z
" />
    <glyph glyph-name="Acircumflex" unicode="&#xc2;" horiz-adv-x="1415" 
d="M447 80v-80h-487v80h190l520 1388h79l488 -1388h198v-80h-615v80h208l-150 427h-472l-159 -427h200zM648 1152l-211 -564h413l-198 564h-4zM739 1893l299.004 -305c-4.66699 -10 -10.334 -18.833 -17.001 -26.5s-14.334 -14.834 -23.001 -21.501l-288 184l-288 -184
c-8.66699 6.66699 -16.334 13.834 -23.001 21.501s-12.334 16.5 -17.001 26.5l298 305h59z" />
    <glyph glyph-name="Atilde" unicode="&#xc3;" horiz-adv-x="1415" 
d="M447 80v-80h-487v80h190l520 1388h79l488 -1388h198v-80h-615v80h208l-150 427h-472l-159 -427h200zM648 1152l-211 -564h413l-198 564h-4zM1049 1833c-15.333 -84.667 -39.4971 -150 -72.4971 -196s-76.5 -69 -130.5 -69c-16.667 0 -32.334 2.16699 -47.001 6.5
s-28.5 9.83301 -41.5 16.5s-25.5 14.167 -37.5 22.5l-34 24.5c-18 13.333 -37 26.166 -57 38.499s-40.333 18.5 -61 18.5c-8.66699 0 -18.167 -1.83301 -28.5 -5.5s-20.5 -10.167 -30.5 -19.5s-19.333 -22.333 -28 -39s-15.667 -38.334 -21 -65.001
c-11.333 0 -23.166 0.833008 -35.499 2.5s-23.5 4.83398 -33.5 9.50098c15.333 86 39.666 151.667 72.999 197s77.333 68 132 68c30.667 0 57.334 -6.16699 80.001 -18.5s45.667 -26.833 69 -43.5c23.333 -17.333 44.666 -32.5 63.999 -45.5s39.666 -19.5 60.999 -19.5
c9.33301 0 19.333 1.66699 30 5s21 9.83301 31 19.5s19.333 22.834 28 39.501s15.667 38.334 21 65.001c11.333 0 23.166 -0.833008 35.499 -2.5s23.5 -4.83398 33.5 -9.50098z" />
    <glyph glyph-name="Adieresis" unicode="&#xc4;" horiz-adv-x="1415" 
d="M447 80v-80h-487v80h190l520 1388h79l488 -1388h198v-80h-615v80h208l-150 427h-472l-159 -427h200zM648 1152l-211 -564h413l-198 564h-4zM501 1573c-32 0 -58.5 9.99805 -79.5 29.998s-31.5 46.667 -31.5 80c0 32.667 10.667 59.334 32 80.001s47.666 31 78.999 31
c32 0 58.5 -10 79.5 -30s31.5 -46.667 31.5 -80s-10.667 -60.166 -32 -80.499s-47.666 -30.5 -78.999 -30.5zM919 1573c-32 0 -58.5 9.99805 -79.5 29.998s-31.5 46.667 -31.5 80c0 32.667 10.667 59.334 32 80.001s47.666 31 78.999 31c32 0 58.5 -10 79.5 -30
s31.5 -46.667 31.5 -80s-10.667 -60.166 -32 -80.499s-47.666 -30.5 -78.999 -30.5z" />
    <glyph glyph-name="Aring" unicode="&#xc5;" horiz-adv-x="1415" 
d="M447 80v-80h-487v80h190l520 1388h79l488 -1388h198v-80h-615v80h208l-150 427h-472l-159 -427h200zM648 1152l-211 -564h413l-198 564h-4zM488 1728c0 24.667 5.00098 47.999 15.001 69.999s24.667 41.333 44 58s43.166 29.834 71.499 39.501s60.5 14.5 96.5 14.5
c34.667 0 65.5 -4.66699 92.5 -14s49.833 -22 68.5 -38s32.667 -34.667 42 -56s14 -44 14 -68c0 -24.667 -5 -48 -15 -70s-24.667 -41.167 -44 -57.5s-43.166 -29.333 -71.499 -39s-60.5 -14.5 -96.5 -14.5c-35.333 0 -66.333 4.66699 -93 14s-49.334 22 -68.001 38
s-32.667 34.5 -42 55.5s-14 43.5 -14 67.5zM605.001 1730c0 -43.333 9.99707 -73.999 29.9971 -91.999s44.667 -27 74 -27c14.667 0 28.334 2.16699 41.001 6.5s23.834 11.333 33.501 21s17.334 22.167 23.001 37.5s8.5 34.333 8.5 57c0 22 -2.66699 40.5 -8 55.5
s-12.666 27.167 -21.999 36.5s-20.333 16.166 -33 20.499s-26.334 6.5 -41.001 6.5c-29.333 0 -54.333 -9.16699 -75 -27.5s-31 -49.833 -31 -94.5z" />
    <glyph glyph-name="AE" unicode="&#xc6;" horiz-adv-x="2052" 
d="M190 80l200.001 -0.00195312v-80h-490v80h184l752 1293h-150v80h1181l20 -401h-70c-10 66.667 -22.333 120.834 -37 162.501s-35.167 74.334 -61.5 98.001s-60.666 39.667 -102.999 48s-95.833 12.5 -160.5 12.5h-287v-611h111c44.667 0 82 1.66699 112 5
s54.167 12.833 72.5 28.5s32.166 40 41.499 73s16 79.5 20 139.5h71v-582h-71c-3.33301 58 -9 103.833 -17 137.5s-21 59.167 -39 76.5s-42.167 28.333 -72.5 33s-69.5 7 -117.5 7h-111v-600h245c52 0 97.667 2 137 6s73.666 11.333 102.999 22s54.5 25.667 75.5 45
s39.167 44.333 54.5 75s28.333 68 39 112s20.667 96 30 156h70l-20 -496h-1139v80h210v601h-435zM973.001 1373h-33l-355 -611h388v611z" />
    <glyph glyph-name="Ccedilla" unicode="&#xc7;" horiz-adv-x="1381" 
d="M1241 435l-13.9971 -396.004c-32 -11.333 -66.5 -21.5 -103.5 -30.5s-74.5 -16.667 -112.5 -23s-75.5 -11.166 -112.5 -14.499s-71.5 -5 -103.5 -5c-102 0 -193.833 17.333 -275.5 52s-151 84.167 -208 148.5s-100.667 142.5 -131 234.5s-45.5 195.667 -45.5 311
c0 118 16 224.667 48 320s77.667 176.833 137 244.5s131.166 119.667 215.499 156s178.5 54.5 282.5 54.5c29.333 0 60.333 -1.5 93 -4.5s65.834 -7.33301 99.501 -13s67 -12.5 100 -20.5s64.833 -17 95.5 -27l12 -365h-70c-6 72.667 -19.167 131.834 -39.5 177.501
s-45.833 81.167 -76.5 106.5s-65.334 42.666 -104.001 51.999s-79.667 14 -123 14c-44 0 -85.667 -4 -125 -12s-75.833 -22 -109.5 -42s-64 -46.667 -91 -80s-49.833 -75.666 -68.5 -126.999s-33.167 -112.166 -43.5 -182.499s-15.5 -152.166 -15.5 -245.499
c0 -92.667 5 -173.5 15 -242.5s24.167 -128.5 42.5 -178.5s40.666 -91.167 66.999 -123.5s55.666 -58 87.999 -77s67.5 -32.167 105.5 -39.5s78 -11 120 -11c50.667 0 97.5 5.83301 140.5 17.5s81 32.167 114 61.5s60.333 69 82 119s36.5 113.667 44.5 191h70z
M655.003 -345.004c17.333 -12.667 34.5 -22 51.5 -28s33.167 -9 48.5 -9c28.667 0 52.5 9.5 71.5 28.5s28.5 45.5 28.5 79.5s-9.5 59.5 -28.5 76.5s-44.5 25.5 -76.5 25.5c-5.33301 0 -11.333 -0.333008 -18 -1s-13.667 -1.66699 -21 -3v186h70v-112h13
c26.667 0 51.167 -4.16699 73.5 -12.5s41.5 -19.833 57.5 -34.5s28.5 -32.334 37.5 -53.001s13.5 -43 13.5 -67c0 -29.333 -6 -55.166 -18 -77.499s-27.667 -41 -47 -56s-41.166 -26.5 -65.499 -34.5s-49.166 -12 -74.499 -12c-28 0 -55.333 4.83301 -82 14.5
s-49.667 24.167 -69 43.5c3.33301 8.66699 7.66602 17 12.999 25s12.666 15 21.999 21z" />
    <glyph glyph-name="Egrave" unicode="&#xc8;" horiz-adv-x="1369" 
d="M460 794l131.001 -0.00195312c44.667 0 82 1.66699 112 5s54.167 12.833 72.5 28.5s32.166 40 41.499 73s16 79.5 20 139.5h71v-592h-71c-3.33301 60.667 -9 108.5 -17 143.5s-21 61.5 -39 79.5s-42.167 29.333 -72.5 34s-69.5 7 -117.5 7h-131v-632h265
c52 0 97.667 2 137 6s73.666 11.333 102.999 22s54.5 25.667 75.5 45s39.167 44.333 54.5 75s28.333 68 39 112s20.667 96 30 156h70l-20 -496h-1149v80h200v1293h-200v80h1124l20 -401h-70c-10 66.667 -22.333 120.834 -37 162.501s-35.167 74.334 -61.5 98.001
s-60.666 39.667 -102.999 48s-95.833 12.5 -160.5 12.5h-317v-579zM401.001 1792c15.333 26 32.501 50.167 51.501 72.5s39.167 41.833 60.5 58.5l345 -335c-8.66699 -19.333 -21.334 -35.333 -38.001 -48z" />
    <glyph glyph-name="Eacute" unicode="&#xc9;" horiz-adv-x="1369" 
d="M460 794l131.001 -0.00195312c44.667 0 82 1.66699 112 5s54.167 12.833 72.5 28.5s32.166 40 41.499 73s16 79.5 20 139.5h71v-592h-71c-3.33301 60.667 -9 108.5 -17 143.5s-21 61.5 -39 79.5s-42.167 29.333 -72.5 34s-69.5 7 -117.5 7h-131v-632h265
c52 0 97.667 2 137 6s73.666 11.333 102.999 22s54.5 25.667 75.5 45s39.167 44.333 54.5 75s28.333 68 39 112s20.667 96 30 156h70l-20 -496h-1149v80h200v1293h-200v80h1124l20 -401h-70c-10 66.667 -22.333 120.834 -37 162.501s-35.167 74.334 -61.5 98.001
s-60.666 39.667 -102.999 48s-95.833 12.5 -160.5 12.5h-317v-579zM540.001 1540c-16.667 12.667 -29.333 28.667 -38 48l345 335c21.333 -16.667 41.5 -36.167 60.5 -58.5s36.167 -46.5 51.5 -72.5z" />
    <glyph glyph-name="Ecircumflex" unicode="&#xca;" horiz-adv-x="1369" 
d="M460 794l131.001 -0.00195312c44.667 0 82 1.66699 112 5s54.167 12.833 72.5 28.5s32.166 40 41.499 73s16 79.5 20 139.5h71v-592h-71c-3.33301 60.667 -9 108.5 -17 143.5s-21 61.5 -39 79.5s-42.167 29.333 -72.5 34s-69.5 7 -117.5 7h-131v-632h265
c52 0 97.667 2 137 6s73.666 11.333 102.999 22s54.5 25.667 75.5 45s39.167 44.333 54.5 75s28.333 68 39 112s20.667 96 30 156h70l-20 -496h-1149v80h200v1293h-200v80h1124l20 -401h-70c-10 66.667 -22.333 120.834 -37 162.501s-35.167 74.334 -61.5 98.001
s-60.666 39.667 -102.999 48s-95.833 12.5 -160.5 12.5h-317v-579zM709.001 1893l299.004 -305c-4.66699 -10 -10.334 -18.833 -17.001 -26.5s-14.334 -14.834 -23.001 -21.501l-288 184l-288 -184c-8.66699 6.66699 -16.334 13.834 -23.001 21.501
s-12.334 16.5 -17.001 26.5l298 305h59z" />
    <glyph glyph-name="Edieresis" unicode="&#xcb;" horiz-adv-x="1369" 
d="M460 794l131.001 -0.00195312c44.667 0 82 1.66699 112 5s54.167 12.833 72.5 28.5s32.166 40 41.499 73s16 79.5 20 139.5h71v-592h-71c-3.33301 60.667 -9 108.5 -17 143.5s-21 61.5 -39 79.5s-42.167 29.333 -72.5 34s-69.5 7 -117.5 7h-131v-632h265
c52 0 97.667 2 137 6s73.666 11.333 102.999 22s54.5 25.667 75.5 45s39.167 44.333 54.5 75s28.333 68 39 112s20.667 96 30 156h70l-20 -496h-1149v80h200v1293h-200v80h1124l20 -401h-70c-10 66.667 -22.333 120.834 -37 162.501s-35.167 74.334 -61.5 98.001
s-60.666 39.667 -102.999 48s-95.833 12.5 -160.5 12.5h-317v-579zM471.001 1573c-32 0 -58.5 9.99805 -79.5 29.998s-31.5 46.667 -31.5 80c0 32.667 10.667 59.334 32 80.001s47.666 31 78.999 31c32 0 58.5 -10 79.5 -30s31.5 -46.667 31.5 -80
s-10.667 -60.166 -32 -80.499s-47.666 -30.5 -78.999 -30.5zM889.001 1573c-32 0 -58.5 9.99805 -79.5 29.998s-31.5 46.667 -31.5 80c0 32.667 10.667 59.334 32 80.001s47.666 31 78.999 31c32 0 58.5 -10 79.5 -30s31.5 -46.667 31.5 -80s-10.667 -60.166 -32 -80.499
s-47.666 -30.5 -78.999 -30.5z" />
    <glyph glyph-name="Igrave" unicode="&#xcc;" horiz-adv-x="725" 
d="M460 1373v-1293h200v-80h-595v80h200v1293h-200v80h595v-80h-200zM84 1792c15.333 26 32.501 50.167 51.501 72.5s39.167 41.833 60.5 58.5l345 -335c-8.66699 -19.333 -21.334 -35.333 -38.001 -48z" />
    <glyph glyph-name="Iacute" unicode="&#xcd;" horiz-adv-x="725" 
d="M460 1373v-1293h200v-80h-595v80h200v1293h-200v80h595v-80h-200zM223 1540c-16.667 12.667 -29.333 28.667 -38 48l345 335c21.333 -16.667 41.5 -36.167 60.5 -58.5s36.167 -46.5 51.5 -72.5z" />
    <glyph glyph-name="Icircumflex" unicode="&#xce;" horiz-adv-x="725" 
d="M460 1373v-1293h200v-80h-595v80h200v1293h-200v80h595v-80h-200zM392 1893l299.004 -305c-4.66699 -10 -10.334 -18.833 -17.001 -26.5s-14.334 -14.834 -23.001 -21.501l-288 184l-288 -184c-8.66699 6.66699 -16.334 13.834 -23.001 21.501s-12.334 16.5 -17.001 26.5
l298 305h59z" />
    <glyph glyph-name="Idieresis" unicode="&#xcf;" horiz-adv-x="725" 
d="M460 1373v-1293h200v-80h-595v80h200v1293h-200v80h595v-80h-200zM154 1573c-32 0 -58.5 9.99805 -79.5 29.998s-31.5 46.667 -31.5 80c0 32.667 10.667 59.334 32 80.001s47.666 31 78.999 31c32 0 58.5 -10 79.5 -30s31.5 -46.667 31.5 -80
s-10.667 -60.166 -32 -80.499s-47.666 -30.5 -78.999 -30.5zM572 1573c-32 0 -58.5 9.99805 -79.5 29.998s-31.5 46.667 -31.5 80c0 32.667 10.667 59.334 32 80.001s47.666 31 78.999 31c32 0 58.5 -10 79.5 -30s31.5 -46.667 31.5 -80s-10.667 -60.166 -32 -80.499
s-47.666 -30.5 -78.999 -30.5z" />
    <glyph glyph-name="Eth" unicode="&#xd0;" horiz-adv-x="1526" 
d="M275 712l-200 -0.000976562v82h200v579h-200v80h604c134.667 0 247.5 -16.667 338.5 -50s164.167 -80.833 219.5 -142.5s94.833 -136.167 118.5 -223.5s35.5 -185 35.5 -293c0 -62.667 -4.16699 -124.5 -12.5 -185.5s-22.833 -119 -43.5 -174s-48.5 -106 -83.5 -153
s-79.5 -87.667 -133.5 -122s-118.333 -61.166 -193 -80.499s-161.667 -29 -261 -29h-589v80h200v632zM470 79.999l180.999 -0.000976562c102.667 0 187.834 10 255.501 30s121.167 55 160.5 105s67 117.667 83 203s24 193.333 24 324c0 71.333 -2.5 136.666 -7.5 195.999
s-14.167 112.333 -27.5 159s-31.833 87.334 -55.5 122.001s-54 63.334 -91 86.001s-81.833 39.667 -134.5 51s-114.667 17 -186 17h-202v-579h365v-82h-365v-632z" />
    <glyph glyph-name="Ntilde" unicode="&#xd1;" horiz-adv-x="1540" 
d="M1295 -15h-80l-865 1341l-5 -1v-1245h180v-80h-470v80h200v1293h-200v80h447l698 -1082l5 1v1001h-200v80h490v-80h-200v-1388zM1108 1913c-15.333 -88 -39.667 -156.331 -73 -204.998s-77 -73 -131 -73c-32 0 -60.667 7.83301 -86 23.5s-49.333 32.5 -72 50.5
s-43 33 -61 45s-36.667 18 -56 18c-8.66699 0 -18.167 -1.83301 -28.5 -5.5s-20.5 -10.667 -30.5 -21s-19.333 -24.5 -28 -42.5s-15.667 -41.333 -21 -70c-11.333 0 -23.166 0.833008 -35.499 2.5s-23.5 4.83398 -33.5 9.50098c15.333 89.333 39.666 158 72.999 206
s77.333 72 132 72c30 0 56.333 -6.5 79 -19.5s45.667 -28.5 69 -46.5l33.5 -27c10.333 -8.66699 20.5 -16.334 30.5 -23.001s19.833 -11.834 29.5 -15.501s19.834 -5.5 30.501 -5.5c9.33301 0 19.333 1.83301 30 5.5s21 10.667 31 21s19.333 24.5 28 42.5
s15.667 41.333 21 70c11.333 0 23.166 -0.833008 35.499 -2.5s23.5 -4.83398 33.5 -9.50098z" />
    <glyph glyph-name="Ograve" unicode="&#xd2;" horiz-adv-x="1538" 
d="M126 713c0 119.333 16.166 226.667 48.499 322s77.5 176.5 135.5 243.5s127.167 118.5 207.5 154.5s168.5 54 264.5 54c94.667 0 180.834 -17.5 258.501 -52.5s144.167 -84.833 199.5 -149.5s98.166 -143 128.499 -235s45.5 -195 45.5 -309
c0 -112 -14.833 -215.5 -44.5 -310.5s-72.5 -176.833 -128.5 -245.5s-124.5 -122.334 -205.5 -161.001s-172.5 -58 -274.5 -58c-96 0 -183 17.333 -261 52s-144.667 84.334 -200 149.001s-98.166 143.167 -128.499 235.5s-45.5 195.833 -45.5 310.5zM342.999 719.001
c0 -92 4.83398 -172.498 14.501 -241.498s23.334 -128.333 41.001 -178s39.167 -90.834 64.5 -123.501s53.666 -58.667 84.999 -78s65.333 -32.833 102 -40.5s75.334 -11.5 116.001 -11.5s79.5 3.83301 116.5 11.5s71.5 21.334 103.5 41.001s61 46.167 87 79.5
s48.167 75.5 66.5 126.5s32.5 111.667 42.5 182s15 152.5 15 246.5c0 92 -4.83301 172.5 -14.5 241.5s-23.334 128.5 -41.001 178.5s-39.167 91.333 -64.5 124s-53.5 58.667 -84.5 78s-64.833 32.833 -101.5 40.5s-75.334 11.5 -116.001 11.5s-79.667 -4 -117 -12
s-72 -21.667 -104 -41s-61 -45.833 -87 -79.5s-48.167 -75.834 -66.5 -126.501s-32.5 -111.334 -42.5 -182.001s-15 -153 -15 -247zM490 1792c15.333 26 32.501 50.167 51.501 72.5s39.167 41.833 60.5 58.5l345 -335c-8.66699 -19.333 -21.334 -35.333 -38.001 -48z" />
    <glyph glyph-name="Oacute" unicode="&#xd3;" horiz-adv-x="1538" 
d="M126 713c0 119.333 16.166 226.667 48.499 322s77.5 176.5 135.5 243.5s127.167 118.5 207.5 154.5s168.5 54 264.5 54c94.667 0 180.834 -17.5 258.501 -52.5s144.167 -84.833 199.5 -149.5s98.166 -143 128.499 -235s45.5 -195 45.5 -309
c0 -112 -14.833 -215.5 -44.5 -310.5s-72.5 -176.833 -128.5 -245.5s-124.5 -122.334 -205.5 -161.001s-172.5 -58 -274.5 -58c-96 0 -183 17.333 -261 52s-144.667 84.334 -200 149.001s-98.166 143.167 -128.499 235.5s-45.5 195.833 -45.5 310.5zM342.999 719.001
c0 -92 4.83398 -172.498 14.501 -241.498s23.334 -128.333 41.001 -178s39.167 -90.834 64.5 -123.501s53.666 -58.667 84.999 -78s65.333 -32.833 102 -40.5s75.334 -11.5 116.001 -11.5s79.5 3.83301 116.5 11.5s71.5 21.334 103.5 41.001s61 46.167 87 79.5
s48.167 75.5 66.5 126.5s32.5 111.667 42.5 182s15 152.5 15 246.5c0 92 -4.83301 172.5 -14.5 241.5s-23.334 128.5 -41.001 178.5s-39.167 91.333 -64.5 124s-53.5 58.667 -84.5 78s-64.833 32.833 -101.5 40.5s-75.334 11.5 -116.001 11.5s-79.667 -4 -117 -12
s-72 -21.667 -104 -41s-61 -45.833 -87 -79.5s-48.167 -75.834 -66.5 -126.501s-32.5 -111.334 -42.5 -182.001s-15 -153 -15 -247zM629 1540c-16.667 12.667 -29.333 28.667 -38 48l345 335c21.333 -16.667 41.5 -36.167 60.5 -58.5s36.167 -46.5 51.5 -72.5z" />
    <glyph glyph-name="Ocircumflex" unicode="&#xd4;" horiz-adv-x="1538" 
d="M126 713c0 119.333 16.166 226.667 48.499 322s77.5 176.5 135.5 243.5s127.167 118.5 207.5 154.5s168.5 54 264.5 54c94.667 0 180.834 -17.5 258.501 -52.5s144.167 -84.833 199.5 -149.5s98.166 -143 128.499 -235s45.5 -195 45.5 -309
c0 -112 -14.833 -215.5 -44.5 -310.5s-72.5 -176.833 -128.5 -245.5s-124.5 -122.334 -205.5 -161.001s-172.5 -58 -274.5 -58c-96 0 -183 17.333 -261 52s-144.667 84.334 -200 149.001s-98.166 143.167 -128.499 235.5s-45.5 195.833 -45.5 310.5zM342.999 719.001
c0 -92 4.83398 -172.498 14.501 -241.498s23.334 -128.333 41.001 -178s39.167 -90.834 64.5 -123.501s53.666 -58.667 84.999 -78s65.333 -32.833 102 -40.5s75.334 -11.5 116.001 -11.5s79.5 3.83301 116.5 11.5s71.5 21.334 103.5 41.001s61 46.167 87 79.5
s48.167 75.5 66.5 126.5s32.5 111.667 42.5 182s15 152.5 15 246.5c0 92 -4.83301 172.5 -14.5 241.5s-23.334 128.5 -41.001 178.5s-39.167 91.333 -64.5 124s-53.5 58.667 -84.5 78s-64.833 32.833 -101.5 40.5s-75.334 11.5 -116.001 11.5s-79.667 -4 -117 -12
s-72 -21.667 -104 -41s-61 -45.833 -87 -79.5s-48.167 -75.834 -66.5 -126.501s-32.5 -111.334 -42.5 -182.001s-15 -153 -15 -247zM798 1893l299.004 -305c-4.66699 -10 -10.334 -18.833 -17.001 -26.5s-14.334 -14.834 -23.001 -21.501l-288 184l-288 -184
c-8.66699 6.66699 -16.334 13.834 -23.001 21.501s-12.334 16.5 -17.001 26.5l298 305h59z" />
    <glyph glyph-name="Otilde" unicode="&#xd5;" horiz-adv-x="1538" 
d="M126 713c0 119.333 16.166 226.667 48.499 322s77.5 176.5 135.5 243.5s127.167 118.5 207.5 154.5s168.5 54 264.5 54c94.667 0 180.834 -17.5 258.501 -52.5s144.167 -84.833 199.5 -149.5s98.166 -143 128.499 -235s45.5 -195 45.5 -309
c0 -112 -14.833 -215.5 -44.5 -310.5s-72.5 -176.833 -128.5 -245.5s-124.5 -122.334 -205.5 -161.001s-172.5 -58 -274.5 -58c-96 0 -183 17.333 -261 52s-144.667 84.334 -200 149.001s-98.166 143.167 -128.499 235.5s-45.5 195.833 -45.5 310.5zM342.999 719.001
c0 -92 4.83398 -172.498 14.501 -241.498s23.334 -128.333 41.001 -178s39.167 -90.834 64.5 -123.501s53.666 -58.667 84.999 -78s65.333 -32.833 102 -40.5s75.334 -11.5 116.001 -11.5s79.5 3.83301 116.5 11.5s71.5 21.334 103.5 41.001s61 46.167 87 79.5
s48.167 75.5 66.5 126.5s32.5 111.667 42.5 182s15 152.5 15 246.5c0 92 -4.83301 172.5 -14.5 241.5s-23.334 128.5 -41.001 178.5s-39.167 91.333 -64.5 124s-53.5 58.667 -84.5 78s-64.833 32.833 -101.5 40.5s-75.334 11.5 -116.001 11.5s-79.667 -4 -117 -12
s-72 -21.667 -104 -41s-61 -45.833 -87 -79.5s-48.167 -75.834 -66.5 -126.501s-32.5 -111.334 -42.5 -182.001s-15 -153 -15 -247zM1108 1833c-15.333 -84.667 -39.4971 -150 -72.4971 -196s-76.5 -69 -130.5 -69c-16.667 0 -32.334 2.16699 -47.001 6.5
s-28.5 9.83301 -41.5 16.5s-25.5 14.167 -37.5 22.5l-34 24.5c-18 13.333 -37 26.166 -57 38.499s-40.333 18.5 -61 18.5c-8.66699 0 -18.167 -1.83301 -28.5 -5.5s-20.5 -10.167 -30.5 -19.5s-19.333 -22.333 -28 -39s-15.667 -38.334 -21 -65.001
c-11.333 0 -23.166 0.833008 -35.499 2.5s-23.5 4.83398 -33.5 9.50098c15.333 86 39.666 151.667 72.999 197s77.333 68 132 68c30.667 0 57.334 -6.16699 80.001 -18.5s45.667 -26.833 69 -43.5c23.333 -17.333 44.666 -32.5 63.999 -45.5s39.666 -19.5 60.999 -19.5
c9.33301 0 19.333 1.66699 30 5s21 9.83301 31 19.5s19.333 22.834 28 39.501s15.667 38.334 21 65.001c11.333 0 23.166 -0.833008 35.499 -2.5s23.5 -4.83398 33.5 -9.50098z" />
    <glyph glyph-name="Odieresis" unicode="&#xd6;" horiz-adv-x="1538" 
d="M126 713c0 119.333 16.166 226.667 48.499 322s77.5 176.5 135.5 243.5s127.167 118.5 207.5 154.5s168.5 54 264.5 54c94.667 0 180.834 -17.5 258.501 -52.5s144.167 -84.833 199.5 -149.5s98.166 -143 128.499 -235s45.5 -195 45.5 -309
c0 -112 -14.833 -215.5 -44.5 -310.5s-72.5 -176.833 -128.5 -245.5s-124.5 -122.334 -205.5 -161.001s-172.5 -58 -274.5 -58c-96 0 -183 17.333 -261 52s-144.667 84.334 -200 149.001s-98.166 143.167 -128.499 235.5s-45.5 195.833 -45.5 310.5zM342.999 719.001
c0 -92 4.83398 -172.498 14.501 -241.498s23.334 -128.333 41.001 -178s39.167 -90.834 64.5 -123.501s53.666 -58.667 84.999 -78s65.333 -32.833 102 -40.5s75.334 -11.5 116.001 -11.5s79.5 3.83301 116.5 11.5s71.5 21.334 103.5 41.001s61 46.167 87 79.5
s48.167 75.5 66.5 126.5s32.5 111.667 42.5 182s15 152.5 15 246.5c0 92 -4.83301 172.5 -14.5 241.5s-23.334 128.5 -41.001 178.5s-39.167 91.333 -64.5 124s-53.5 58.667 -84.5 78s-64.833 32.833 -101.5 40.5s-75.334 11.5 -116.001 11.5s-79.667 -4 -117 -12
s-72 -21.667 -104 -41s-61 -45.833 -87 -79.5s-48.167 -75.834 -66.5 -126.501s-32.5 -111.334 -42.5 -182.001s-15 -153 -15 -247zM560 1573c-32 0 -58.5 9.99805 -79.5 29.998s-31.5 46.667 -31.5 80c0 32.667 10.667 59.334 32 80.001s47.666 31 78.999 31
c32 0 58.5 -10 79.5 -30s31.5 -46.667 31.5 -80s-10.667 -60.166 -32 -80.499s-47.666 -30.5 -78.999 -30.5zM978 1573c-32 0 -58.5 9.99805 -79.5 29.998s-31.5 46.667 -31.5 80c0 32.667 10.667 59.334 32 80.001s47.666 31 78.999 31c32 0 58.5 -10 79.5 -30
s31.5 -46.667 31.5 -80s-10.667 -60.166 -32 -80.499s-47.666 -30.5 -78.999 -30.5z" />
    <glyph glyph-name="multiply" unicode="&#xd7;" horiz-adv-x="1132" 
d="M933 855l62 -62l-365 -365l365 -359l-62 -62l-364 360l-370 -370l-62 62l369 369l-369 365l62 62l369 -365z" />
    <glyph glyph-name="Oslash" unicode="&#xd8;" horiz-adv-x="1558" 
d="M135 713c0 119.333 16.165 226.671 48.498 322.004s77.5 176.5 135.5 243.5s127.167 118.5 207.5 154.5s168.5 54 264.5 54c86.667 0 166 -14.5 238 -43.5s135 -70.833 189 -125.5l150 181c11.333 -6 22.166 -13 32.499 -21s19.833 -16.667 28.5 -26l-159 -193
c48.667 -64.667 86.334 -140.334 113.001 -227.001s40 -183.667 40 -291c0 -112 -14.833 -215.5 -44.5 -310.5s-72.5 -176.833 -128.5 -245.5s-124.5 -122.334 -205.5 -161.001s-172.5 -58 -274.5 -58c-87.333 0 -167.333 14.5 -240 43.5s-136 70.5 -190 124.5l-150 -182
c-11.333 5.33301 -22.166 12.166 -32.499 20.499s-19.833 17.166 -28.5 26.499l159 193c-49.333 64.667 -87.166 140.667 -113.499 228s-39.5 185 -39.5 293zM349.998 719.005c0 -85.333 4 -160.33 12 -224.997s19.667 -121.334 35 -170.001l731 885
c-18.667 38.667 -40.334 70.667 -65.001 96s-51.5 45.5 -80.5 60.5s-60.167 25.667 -93.5 32s-68.333 9.5 -105 9.5c-40.667 0 -79.667 -4 -117 -12s-72.166 -21.667 -104.499 -41s-61.5 -45.833 -87.5 -79.5s-48.333 -75.834 -67 -126.501s-33 -111.334 -43 -182.001
s-15 -153 -15 -247zM774.998 46.0078c40.667 0 79.665 3.83301 116.998 11.5s72 21.334 104 41.001s61 46.167 87 79.5s48.333 75.5 67 126.5s33 111.667 43 182s15 152.5 15 246.5c0 85.333 -4 160.166 -12 224.499s-19.667 120.833 -35 169.5l-732 -885
c18.667 -38 40.334 -69.667 65.001 -95s51.667 -45.5 81 -60.5s60.833 -25.5 94.5 -31.5s68.834 -9 105.501 -9z" />
    <glyph glyph-name="Ugrave" unicode="&#xd9;" horiz-adv-x="1502" 
d="M445 470c0 -57.333 2.49805 -111.333 7.49805 -162s18.667 -95 41 -133s56.333 -68.167 102 -90.5s109.167 -33.5 190.5 -33.5c82.667 0 149.334 11.5 200.001 34.5s89.834 54.667 117.501 95s46.167 88 55.5 143s14 114.5 14 178.5v871h-200v80h489v-80h-199v-860
c0 -89.333 -7.33301 -168 -22 -236s-41 -125 -79 -171s-89.333 -80.833 -154 -104.5s-147 -35.5 -247 -35.5c-89.333 0 -166.333 9.66699 -231 29s-117.667 49.333 -159 90s-71.833 92.5 -91.5 155.5s-29.5 137.833 -29.5 224.5v908h-200v80h595v-80h-200v-903z
M500.998 1792c15.333 26 32.501 50.167 51.501 72.5s39.167 41.833 60.5 58.5l345 -335c-8.66699 -19.333 -21.334 -35.333 -38.001 -48z" />
    <glyph glyph-name="Uacute" unicode="&#xda;" horiz-adv-x="1502" 
d="M445 470c0 -57.333 2.49805 -111.333 7.49805 -162s18.667 -95 41 -133s56.333 -68.167 102 -90.5s109.167 -33.5 190.5 -33.5c82.667 0 149.334 11.5 200.001 34.5s89.834 54.667 117.501 95s46.167 88 55.5 143s14 114.5 14 178.5v871h-200v80h489v-80h-199v-860
c0 -89.333 -7.33301 -168 -22 -236s-41 -125 -79 -171s-89.333 -80.833 -154 -104.5s-147 -35.5 -247 -35.5c-89.333 0 -166.333 9.66699 -231 29s-117.667 49.333 -159 90s-71.833 92.5 -91.5 155.5s-29.5 137.833 -29.5 224.5v908h-200v80h595v-80h-200v-903z
M639.998 1540c-16.667 12.667 -29.333 28.667 -38 48l345 335c21.333 -16.667 41.5 -36.167 60.5 -58.5s36.167 -46.5 51.5 -72.5z" />
    <glyph glyph-name="Ucircumflex" unicode="&#xdb;" horiz-adv-x="1502" 
d="M445 470c0 -57.333 2.49805 -111.333 7.49805 -162s18.667 -95 41 -133s56.333 -68.167 102 -90.5s109.167 -33.5 190.5 -33.5c82.667 0 149.334 11.5 200.001 34.5s89.834 54.667 117.501 95s46.167 88 55.5 143s14 114.5 14 178.5v871h-200v80h489v-80h-199v-860
c0 -89.333 -7.33301 -168 -22 -236s-41 -125 -79 -171s-89.333 -80.833 -154 -104.5s-147 -35.5 -247 -35.5c-89.333 0 -166.333 9.66699 -231 29s-117.667 49.333 -159 90s-71.833 92.5 -91.5 155.5s-29.5 137.833 -29.5 224.5v908h-200v80h595v-80h-200v-903z
M808.998 1893l299.004 -305c-4.66699 -10 -10.334 -18.833 -17.001 -26.5s-14.334 -14.834 -23.001 -21.501l-288 184l-288 -184c-8.66699 6.66699 -16.334 13.834 -23.001 21.501s-12.334 16.5 -17.001 26.5l298 305h59z" />
    <glyph glyph-name="Udieresis" unicode="&#xdc;" horiz-adv-x="1502" 
d="M445 470c0 -57.333 2.49805 -111.333 7.49805 -162s18.667 -95 41 -133s56.333 -68.167 102 -90.5s109.167 -33.5 190.5 -33.5c82.667 0 149.334 11.5 200.001 34.5s89.834 54.667 117.501 95s46.167 88 55.5 143s14 114.5 14 178.5v871h-200v80h489v-80h-199v-860
c0 -89.333 -7.33301 -168 -22 -236s-41 -125 -79 -171s-89.333 -80.833 -154 -104.5s-147 -35.5 -247 -35.5c-89.333 0 -166.333 9.66699 -231 29s-117.667 49.333 -159 90s-71.833 92.5 -91.5 155.5s-29.5 137.833 -29.5 224.5v908h-200v80h595v-80h-200v-903z
M570.998 1573c-32 0 -58.5 9.99805 -79.5 29.998s-31.5 46.667 -31.5 80c0 32.667 10.667 59.334 32 80.001s47.666 31 78.999 31c32 0 58.5 -10 79.5 -30s31.5 -46.667 31.5 -80s-10.667 -60.166 -32 -80.499s-47.666 -30.5 -78.999 -30.5zM988.998 1573
c-32 0 -58.5 9.99805 -79.5 29.998s-31.5 46.667 -31.5 80c0 32.667 10.667 59.334 32 80.001s47.666 31 78.999 31c32 0 58.5 -10 79.5 -30s31.5 -46.667 31.5 -80s-10.667 -60.166 -32 -80.499s-47.666 -30.5 -78.999 -30.5z" />
    <glyph glyph-name="Yacute" unicode="&#xdd;" horiz-adv-x="1373" 
d="M-30 1453h595v-80h-184l370 -579l364 579h-189v80h467v-80h-170l-428 -678v-615h220v-80h-635v80h220v585l-453 708h-177v80zM585 1540c-16.667 12.667 -29.333 28.667 -38 48l345 335c21.333 -16.667 41.5 -36.167 60.5 -58.5s36.167 -46.5 51.5 -72.5z" />
    <glyph glyph-name="Thorn" unicode="&#xde;" horiz-adv-x="1288" 
d="M450 1373l0.00195312 -193.999h161c110.667 0 203.667 -10 279 -30s136.166 -47.833 182.499 -83.5s79.666 -78.334 99.999 -128.001s30.5 -104.167 30.5 -163.5c0 -56 -9.33301 -110.667 -28 -164s-51.167 -101 -97.5 -143s-108.333 -75.667 -186 -101
s-175.5 -38 -293.5 -38h-148v-248h205v-80h-600v80h200v1293h-200v80h600v-80h-205zM450.002 408.001l133.003 0.00195312c76.667 0 141 5.83301 193 17.5s93.667 31.5 125 59.5s53.666 65.167 66.999 111.5s20 104.166 20 173.499c0 57.333 -5 106.666 -15 147.999
s-29.333 75.5 -58 102.5s-68.334 46.833 -119.001 59.5s-116.334 19 -197.001 19h-149v-691z" />
    <glyph glyph-name="germandbls" unicode="&#xdf;" horiz-adv-x="1144" 
d="M375 0l-330.009 0.00195312v80h150v872c0 83.333 10.333 157.166 31 221.499s50 118.5 88 162.5s83.833 77.333 137.5 100s113.5 34 179.5 34c51.333 0 98.166 -6.5 140.499 -19.5s78.833 -31.667 109.5 -56s54.334 -53.666 71.001 -87.999s25 -72.5 25 -114.5
c0 -34.667 -5.33301 -64.834 -16 -90.501s-24.5 -48.167 -41.5 -67.5s-36.333 -36.666 -58 -51.999s-43.5 -29.666 -65.5 -42.999l-59.5 -37.5c-17.667 -11.667 -32.5 -23.5 -44.5 -35.5s-21.333 -25.333 -28 -40s-10 -31.667 -10 -51c0 -24.667 4.66699 -46.167 14 -64.5
s22.666 -35.166 39.999 -50.499s38.333 -30.333 63 -45s52.334 -30.334 83.001 -47.001c28 -15.333 55.667 -32 83 -50s52 -38.667 74 -62s39.667 -50.166 53 -80.499s20 -65.833 20 -106.5c0 -46 -8.66699 -87.333 -26 -124s-41.333 -67.834 -72 -93.501
s-67 -45.334 -109 -59.001s-87.667 -20.5 -137 -20.5c-38.667 0 -74.167 4.16699 -106.5 12.5s-60 20 -83 35s-41 33.167 -54 54.5s-19.5 44.666 -19.5 69.999c0 31.333 9.66699 57.166 29 77.499s44 30.5 74 30.5c14 0 27.333 -2.16699 40 -6.5
s23.834 -10.833 33.501 -19.5s17.334 -19.5 23.001 -32.5s8.5 -27.833 8.5 -44.5c0 -17.333 -3.33301 -33.333 -10 -48s-17.667 -28.667 -33 -42c16.667 -7.33301 34.834 -12.166 54.501 -14.499s35.834 -3.5 48.501 -3.5c20.667 0 42 2.33301 64 7s42 13 60 25
s32.667 28.5 44 49.5s17 48.167 17 81.5c0 28.667 -4.66699 53.334 -14 74.001s-22.666 39.5 -39.999 56.5s-38 33 -62 48l-79 47.5l-80.5 48.5c-26.333 16.333 -49.666 34.666 -69.999 54.999s-36.666 43.666 -48.999 69.999s-18.5 57.5 -18.5 93.5
c0 30.667 4.33301 57.834 13 81.501s19.834 44.5 33.501 62.5s28.5 33.667 44.5 47l46 37c18.667 14 36.5 28.5 53.5 43.5s31.833 32.5 44.5 52.5s22.834 43.333 30.501 70s11.5 59 11.5 97c0 42 -4.33301 76.667 -13 104s-21 49 -37 65s-35.167 27.333 -57.5 34
s-46.833 10 -73.5 10c-31.333 0 -61.333 -4.16699 -90 -12.5s-54 -25.5 -76 -51.5s-39.5 -63.333 -52.5 -112s-19.5 -113.334 -19.5 -194.001v-1031z" />
    <glyph glyph-name="agrave" unicode="&#xe0;" horiz-adv-x="976" 
d="M931 0c-28 -5.33301 -54 -8.66406 -78 -9.99707s-43 -2 -57 -2c-35.333 0 -64.5 2.83301 -87.5 8.5s-41.167 13.834 -54.5 24.501s-23 23.667 -29 39s-9.66699 32.333 -11 51h-5c-18.667 -26 -38.667 -48 -60 -66s-43.666 -32.333 -66.999 -43
s-47.166 -18.334 -71.499 -23.001s-48.833 -7 -73.5 -7c-40.667 0 -77 5.5 -109 16.5s-59 26.5 -81 46.5s-38.667 43.833 -50 71.5s-17 58.167 -17 91.5c0 92.667 45.5 163.167 136.5 211.5s222.167 74.166 393.5 77.499c0.666992 30 1.16699 57 1.5 81s0.5 47.667 0.5 71
c0 60.667 -12.5 103.167 -37.5 127.5s-64.5 36.5 -118.5 36.5c-36 0 -68.167 -4 -96.5 -12s-51.5 -18.667 -69.5 -32c16 -15.333 27.833 -31.5 35.5 -48.5s11.5 -33.833 11.5 -50.5c0 -28 -9 -51.333 -27 -70s-42.667 -28 -74 -28c-13.333 0 -26.333 2 -39 6
s-23.667 10.333 -33 19s-16.833 19.5 -22.5 32.5s-8.5 28.167 -8.5 45.5c0 27.333 7.5 53.833 22.5 79.5s37.333 48.5 67 68.5s66.667 36 111 48s96.166 18 155.499 18c48 0 90.5 -4.66699 127.5 -14s68.333 -24.833 94 -46.5s45 -50.5 58 -86.5s19.5 -80.667 19.5 -134
c0 -13.333 -0.166992 -35.166 -0.5 -65.499s-0.833008 -63.833 -1.5 -100.5s-1.16699 -73.834 -1.5 -111.501s-0.5 -70.834 -0.5 -99.501c0 -29.333 0.666992 -53.833 2 -73.5s4.66602 -35.334 9.99902 -47.001s13.333 -20 24 -25s25.667 -7.5 45 -7.5
c16.667 0 38.667 2 66 6v-74zM610 412.002c-72.667 -2 -131.333 -7.50195 -176 -16.502s-79.334 -21.667 -104.001 -38s-41.334 -36.166 -50.001 -59.499s-13 -50 -13 -80c0 -52 10.833 -90.833 32.5 -116.5s51.5 -38.5 89.5 -38.5c20.667 0 43.834 4.33301 69.501 13
s49.834 22.834 72.501 42.501s41.5 45.5 56.5 77.5s22.5 71.667 22.5 119v97zM162.001 1371c48 45.333 97 78.333 147 99l245 -414c-7.33301 -8 -14.833 -15 -22.5 -21s-16.5 -11 -26.5 -15z" />
    <glyph glyph-name="aacute" unicode="&#xe1;" horiz-adv-x="976" 
d="M931 0c-28 -5.33301 -54 -8.66406 -78 -9.99707s-43 -2 -57 -2c-35.333 0 -64.5 2.83301 -87.5 8.5s-41.167 13.834 -54.5 24.501s-23 23.667 -29 39s-9.66699 32.333 -11 51h-5c-18.667 -26 -38.667 -48 -60 -66s-43.666 -32.333 -66.999 -43
s-47.166 -18.334 -71.499 -23.001s-48.833 -7 -73.5 -7c-40.667 0 -77 5.5 -109 16.5s-59 26.5 -81 46.5s-38.667 43.833 -50 71.5s-17 58.167 -17 91.5c0 92.667 45.5 163.167 136.5 211.5s222.167 74.166 393.5 77.499c0.666992 30 1.16699 57 1.5 81s0.5 47.667 0.5 71
c0 60.667 -12.5 103.167 -37.5 127.5s-64.5 36.5 -118.5 36.5c-36 0 -68.167 -4 -96.5 -12s-51.5 -18.667 -69.5 -32c16 -15.333 27.833 -31.5 35.5 -48.5s11.5 -33.833 11.5 -50.5c0 -28 -9 -51.333 -27 -70s-42.667 -28 -74 -28c-13.333 0 -26.333 2 -39 6
s-23.667 10.333 -33 19s-16.833 19.5 -22.5 32.5s-8.5 28.167 -8.5 45.5c0 27.333 7.5 53.833 22.5 79.5s37.333 48.5 67 68.5s66.667 36 111 48s96.166 18 155.499 18c48 0 90.5 -4.66699 127.5 -14s68.333 -24.833 94 -46.5s45 -50.5 58 -86.5s19.5 -80.667 19.5 -134
c0 -13.333 -0.166992 -35.166 -0.5 -65.499s-0.833008 -63.833 -1.5 -100.5s-1.16699 -73.834 -1.5 -111.501s-0.5 -70.834 -0.5 -99.501c0 -29.333 0.666992 -53.833 2 -73.5s4.66602 -35.334 9.99902 -47.001s13.333 -20 24 -25s25.667 -7.5 45 -7.5
c16.667 0 38.667 2 66 6v-74zM610 412.002c-72.667 -2 -131.333 -7.50195 -176 -16.502s-79.334 -21.667 -104.001 -38s-41.334 -36.166 -50.001 -59.499s-13 -50 -13 -80c0 -52 10.833 -90.833 32.5 -116.5s51.5 -38.5 89.5 -38.5c20.667 0 43.834 4.33301 69.501 13
s49.834 22.834 72.501 42.501s41.5 45.5 56.5 77.5s22.5 71.667 22.5 119v97zM445.001 1020c-10 4 -18.833 9 -26.5 15s-15.167 13 -22.5 21l245 414c50 -20.667 99 -53.667 147 -99z" />
    <glyph glyph-name="acircumflex" unicode="&#xe2;" horiz-adv-x="976" 
d="M931 0c-28 -5.33301 -54 -8.66406 -78 -9.99707s-43 -2 -57 -2c-35.333 0 -64.5 2.83301 -87.5 8.5s-41.167 13.834 -54.5 24.501s-23 23.667 -29 39s-9.66699 32.333 -11 51h-5c-18.667 -26 -38.667 -48 -60 -66s-43.666 -32.333 -66.999 -43
s-47.166 -18.334 -71.499 -23.001s-48.833 -7 -73.5 -7c-40.667 0 -77 5.5 -109 16.5s-59 26.5 -81 46.5s-38.667 43.833 -50 71.5s-17 58.167 -17 91.5c0 92.667 45.5 163.167 136.5 211.5s222.167 74.166 393.5 77.499c0.666992 30 1.16699 57 1.5 81s0.5 47.667 0.5 71
c0 60.667 -12.5 103.167 -37.5 127.5s-64.5 36.5 -118.5 36.5c-36 0 -68.167 -4 -96.5 -12s-51.5 -18.667 -69.5 -32c16 -15.333 27.833 -31.5 35.5 -48.5s11.5 -33.833 11.5 -50.5c0 -28 -9 -51.333 -27 -70s-42.667 -28 -74 -28c-13.333 0 -26.333 2 -39 6
s-23.667 10.333 -33 19s-16.833 19.5 -22.5 32.5s-8.5 28.167 -8.5 45.5c0 27.333 7.5 53.833 22.5 79.5s37.333 48.5 67 68.5s66.667 36 111 48s96.166 18 155.499 18c48 0 90.5 -4.66699 127.5 -14s68.333 -24.833 94 -46.5s45 -50.5 58 -86.5s19.5 -80.667 19.5 -134
c0 -13.333 -0.166992 -35.166 -0.5 -65.499s-0.833008 -63.833 -1.5 -100.5s-1.16699 -73.834 -1.5 -111.501s-0.5 -70.834 -0.5 -99.501c0 -29.333 0.666992 -53.833 2 -73.5s4.66602 -35.334 9.99902 -47.001s13.333 -20 24 -25s25.667 -7.5 45 -7.5
c16.667 0 38.667 2 66 6v-74zM610 412.002c-72.667 -2 -131.333 -7.50195 -176 -16.502s-79.334 -21.667 -104.001 -38s-41.334 -36.166 -50.001 -59.499s-13 -50 -13 -80c0 -52 10.833 -90.833 32.5 -116.5s51.5 -38.5 89.5 -38.5c20.667 0 43.834 4.33301 69.501 13
s49.834 22.834 72.501 42.501s41.5 45.5 56.5 77.5s22.5 71.667 22.5 119v97zM225.001 1020c-10 4 -18.833 9 -26.5 15s-15.167 13 -22.5 21l263 406h72l263 -406c-7.33301 -8 -14.833 -15 -22.5 -21s-16.5 -11 -26.5 -15l-250 253z" />
    <glyph glyph-name="atilde" unicode="&#xe3;" horiz-adv-x="976" 
d="M931 0c-28 -5.33301 -54 -8.66406 -78 -9.99707s-43 -2 -57 -2c-35.333 0 -64.5 2.83301 -87.5 8.5s-41.167 13.834 -54.5 24.501s-23 23.667 -29 39s-9.66699 32.333 -11 51h-5c-18.667 -26 -38.667 -48 -60 -66s-43.666 -32.333 -66.999 -43
s-47.166 -18.334 -71.499 -23.001s-48.833 -7 -73.5 -7c-40.667 0 -77 5.5 -109 16.5s-59 26.5 -81 46.5s-38.667 43.833 -50 71.5s-17 58.167 -17 91.5c0 92.667 45.5 163.167 136.5 211.5s222.167 74.166 393.5 77.499c0.666992 30 1.16699 57 1.5 81s0.5 47.667 0.5 71
c0 60.667 -12.5 103.167 -37.5 127.5s-64.5 36.5 -118.5 36.5c-36 0 -68.167 -4 -96.5 -12s-51.5 -18.667 -69.5 -32c16 -15.333 27.833 -31.5 35.5 -48.5s11.5 -33.833 11.5 -50.5c0 -28 -9 -51.333 -27 -70s-42.667 -28 -74 -28c-13.333 0 -26.333 2 -39 6
s-23.667 10.333 -33 19s-16.833 19.5 -22.5 32.5s-8.5 28.167 -8.5 45.5c0 27.333 7.5 53.833 22.5 79.5s37.333 48.5 67 68.5s66.667 36 111 48s96.166 18 155.499 18c48 0 90.5 -4.66699 127.5 -14s68.333 -24.833 94 -46.5s45 -50.5 58 -86.5s19.5 -80.667 19.5 -134
c0 -13.333 -0.166992 -35.166 -0.5 -65.499s-0.833008 -63.833 -1.5 -100.5s-1.16699 -73.834 -1.5 -111.501s-0.5 -70.834 -0.5 -99.501c0 -29.333 0.666992 -53.833 2 -73.5s4.66602 -35.334 9.99902 -47.001s13.333 -20 24 -25s25.667 -7.5 45 -7.5
c16.667 0 38.667 2 66 6v-74zM610 412.002c-72.667 -2 -131.333 -7.50195 -176 -16.502s-79.334 -21.667 -104.001 -38s-41.334 -36.166 -50.001 -59.499s-13 -50 -13 -80c0 -52 10.833 -90.833 32.5 -116.5s51.5 -38.5 89.5 -38.5c20.667 0 43.834 4.33301 69.501 13
s49.834 22.834 72.501 42.501s41.5 45.5 56.5 77.5s22.5 71.667 22.5 119v97zM813.001 1356c-15.333 -88 -39.667 -156.331 -73 -204.998s-77 -73 -131 -73c-32 0 -60.667 7.83301 -86 23.5s-49.333 32.5 -72 50.5s-43 33 -61 45s-36.667 18 -56 18
c-8.66699 0 -18.167 -1.83301 -28.5 -5.5s-20.5 -10.667 -30.5 -21s-19.333 -24.5 -28 -42.5s-15.667 -41.333 -21 -70c-11.333 0 -23.166 0.833008 -35.499 2.5s-23.5 4.83398 -33.5 9.50098c15.333 89.333 39.666 158 72.999 206s77.333 72 132 72
c30 0 56.333 -6.5 79 -19.5s45.667 -28.5 69 -46.5l33.5 -27c10.333 -8.66699 20.5 -16.334 30.5 -23.001s19.833 -11.834 29.5 -15.501s19.834 -5.5 30.501 -5.5c9.33301 0 19.333 1.83301 30 5.5s21 10.667 31 21s19.333 24.5 28 42.5s15.667 41.333 21 70
c11.333 0 23.166 -0.833008 35.499 -2.5s23.5 -4.83398 33.5 -9.50098z" />
    <glyph glyph-name="adieresis" unicode="&#xe4;" horiz-adv-x="976" 
d="M931 0c-28 -5.33301 -54 -8.66406 -78 -9.99707s-43 -2 -57 -2c-35.333 0 -64.5 2.83301 -87.5 8.5s-41.167 13.834 -54.5 24.501s-23 23.667 -29 39s-9.66699 32.333 -11 51h-5c-18.667 -26 -38.667 -48 -60 -66s-43.666 -32.333 -66.999 -43
s-47.166 -18.334 -71.499 -23.001s-48.833 -7 -73.5 -7c-40.667 0 -77 5.5 -109 16.5s-59 26.5 -81 46.5s-38.667 43.833 -50 71.5s-17 58.167 -17 91.5c0 92.667 45.5 163.167 136.5 211.5s222.167 74.166 393.5 77.499c0.666992 30 1.16699 57 1.5 81s0.5 47.667 0.5 71
c0 60.667 -12.5 103.167 -37.5 127.5s-64.5 36.5 -118.5 36.5c-36 0 -68.167 -4 -96.5 -12s-51.5 -18.667 -69.5 -32c16 -15.333 27.833 -31.5 35.5 -48.5s11.5 -33.833 11.5 -50.5c0 -28 -9 -51.333 -27 -70s-42.667 -28 -74 -28c-13.333 0 -26.333 2 -39 6
s-23.667 10.333 -33 19s-16.833 19.5 -22.5 32.5s-8.5 28.167 -8.5 45.5c0 27.333 7.5 53.833 22.5 79.5s37.333 48.5 67 68.5s66.667 36 111 48s96.166 18 155.499 18c48 0 90.5 -4.66699 127.5 -14s68.333 -24.833 94 -46.5s45 -50.5 58 -86.5s19.5 -80.667 19.5 -134
c0 -13.333 -0.166992 -35.166 -0.5 -65.499s-0.833008 -63.833 -1.5 -100.5s-1.16699 -73.834 -1.5 -111.501s-0.5 -70.834 -0.5 -99.501c0 -29.333 0.666992 -53.833 2 -73.5s4.66602 -35.334 9.99902 -47.001s13.333 -20 24 -25s25.667 -7.5 45 -7.5
c16.667 0 38.667 2 66 6v-74zM610 412.002c-72.667 -2 -131.333 -7.50195 -176 -16.502s-79.334 -21.667 -104.001 -38s-41.334 -36.166 -50.001 -59.499s-13 -50 -13 -80c0 -52 10.833 -90.833 32.5 -116.5s51.5 -38.5 89.5 -38.5c20.667 0 43.834 4.33301 69.501 13
s49.834 22.834 72.501 42.501s41.5 45.5 56.5 77.5s22.5 71.667 22.5 119v97zM274.001 1134c-32.667 0 -60 10.5 -82 31.5s-33 48.5 -33 82.5c0 16.667 3 32 9 46s14.167 26.167 24.5 36.5s22.5 18.333 36.5 24s29 8.5 45 8.5c32.667 0 60 -10.5 82 -31.5s33 -48.5 33 -82.5
c0 -17.333 -3 -33 -9 -47s-14.167 -26 -24.5 -36s-22.5 -17.833 -36.5 -23.5s-29 -8.5 -45 -8.5zM676.001 1134c-32.667 0 -60 10.5 -82 31.5s-33 48.5 -33 82.5c0 16.667 3 32 9 46s14.167 26.167 24.5 36.5s22.5 18.333 36.5 24s29 8.5 45 8.5c32.667 0 60 -10.5 82 -31.5
s33 -48.5 33 -82.5c0 -17.333 -3 -33 -9 -47s-14.167 -26 -24.5 -36s-22.5 -17.833 -36.5 -23.5s-29 -8.5 -45 -8.5z" />
    <glyph glyph-name="aring" unicode="&#xe5;" horiz-adv-x="976" 
d="M931 0c-28 -5.33301 -54 -8.66406 -78 -9.99707s-43 -2 -57 -2c-35.333 0 -64.5 2.83301 -87.5 8.5s-41.167 13.834 -54.5 24.501s-23 23.667 -29 39s-9.66699 32.333 -11 51h-5c-18.667 -26 -38.667 -48 -60 -66s-43.666 -32.333 -66.999 -43
s-47.166 -18.334 -71.499 -23.001s-48.833 -7 -73.5 -7c-40.667 0 -77 5.5 -109 16.5s-59 26.5 -81 46.5s-38.667 43.833 -50 71.5s-17 58.167 -17 91.5c0 92.667 45.5 163.167 136.5 211.5s222.167 74.166 393.5 77.499c0.666992 30 1.16699 57 1.5 81s0.5 47.667 0.5 71
c0 60.667 -12.5 103.167 -37.5 127.5s-64.5 36.5 -118.5 36.5c-36 0 -68.167 -4 -96.5 -12s-51.5 -18.667 -69.5 -32c16 -15.333 27.833 -31.5 35.5 -48.5s11.5 -33.833 11.5 -50.5c0 -28 -9 -51.333 -27 -70s-42.667 -28 -74 -28c-13.333 0 -26.333 2 -39 6
s-23.667 10.333 -33 19s-16.833 19.5 -22.5 32.5s-8.5 28.167 -8.5 45.5c0 27.333 7.5 53.833 22.5 79.5s37.333 48.5 67 68.5s66.667 36 111 48s96.166 18 155.499 18c48 0 90.5 -4.66699 127.5 -14s68.333 -24.833 94 -46.5s45 -50.5 58 -86.5s19.5 -80.667 19.5 -134
c0 -13.333 -0.166992 -35.166 -0.5 -65.499s-0.833008 -63.833 -1.5 -100.5s-1.16699 -73.834 -1.5 -111.501s-0.5 -70.834 -0.5 -99.501c0 -29.333 0.666992 -53.833 2 -73.5s4.66602 -35.334 9.99902 -47.001s13.333 -20 24 -25s25.667 -7.5 45 -7.5
c16.667 0 38.667 2 66 6v-74zM610 412.002c-72.667 -2 -131.333 -7.50195 -176 -16.502s-79.334 -21.667 -104.001 -38s-41.334 -36.166 -50.001 -59.499s-13 -50 -13 -80c0 -52 10.833 -90.833 32.5 -116.5s51.5 -38.5 89.5 -38.5c20.667 0 43.834 4.33301 69.501 13
s49.834 22.834 72.501 42.501s41.5 45.5 56.5 77.5s22.5 71.667 22.5 119v97zM243.001 1236c0 26 5.33301 50.6689 16 74.002s26 43.666 46 60.999s44.667 31.166 74 41.499s63 15.5 101 15.5c36.667 0 69.167 -5 97.5 -15s52 -23.5 71 -40.5s33.5 -36.667 43.5 -59
s15 -46.166 15 -71.499c0 -26 -5.33301 -50.5 -16 -73.5s-26 -43.333 -46 -61s-44.667 -31.5 -74 -41.5s-63 -15 -101 -15c-36.667 0 -69.167 5 -97.5 15s-52 23.333 -71 40s-33.5 36.167 -43.5 58.5s-15 46.166 -15 71.499zM363.001 1238
c0 -47.333 10.5 -80.335 31.5 -99.002s47.5 -28 79.5 -28c16 0 30.833 2.16699 44.5 6.5s25.667 11.5 36 21.5s18.333 23.333 24 40s8.5 37.334 8.5 62.001c0 47.333 -10.5 80.333 -31.5 99s-47.5 28 -79.5 28c-16 0 -30.833 -2.16699 -44.5 -6.5
s-25.667 -11.666 -36 -21.999s-18.333 -23.833 -24 -40.5s-8.5 -37 -8.5 -61z" />
    <glyph glyph-name="ae" unicode="&#xe6;" horiz-adv-x="1473" 
d="M736 770c30.667 34.667 68.332 61.499 112.999 80.499s94.667 28.5 150 28.5c56 0 106.833 -10.333 152.5 -31s84.667 -49.5 117 -86.5s57.5 -81.167 75.5 -132.5s27.667 -107.666 29 -168.999h-586c-0.666992 -11.333 -1 -18.833 -1 -22.5v-6.5
c0 -76 5.5 -138.5 16.5 -187.5s26.5 -87.667 46.5 -116s44.167 -48 72.5 -59s59.5 -16.5 93.5 -16.5c32 0 61.833 4.33301 89.5 13s53 22.5 76 41.5s43.167 43.667 60.5 74s31 66.833 41 109.5c13.333 -1.33301 26.666 -3.66602 39.999 -6.99902s26 -7.33301 38 -12
c-21.333 -96.667 -62 -170.667 -122 -222s-138 -77 -234 -77c-80.667 0 -150.167 17.167 -208.5 51.5s-104.166 80.5 -137.499 138.5h-6c-21.333 -36.667 -44.666 -67.167 -69.999 -91.5s-51.666 -43.833 -78.999 -58.5s-55.166 -25 -83.499 -31s-56.166 -9 -83.499 -9
c-41.333 0 -77.833 5.5 -109.5 16.5s-58.334 26.5 -80.001 46.5s-38.167 43.833 -49.5 71.5s-17 57.834 -17 90.501c0 93.333 45 164.166 135 212.499s221.667 74.166 395 77.499c0.666992 30 1.16699 57 1.5 81s0.5 48.667 0.5 74c0 59.333 -12.833 101 -38.5 125
s-64.834 36 -117.501 36c-35.333 0 -67.333 -4 -96 -12s-52 -18.667 -70 -32c16 -15.333 27.833 -31.5 35.5 -48.5s11.5 -33.833 11.5 -50.5c0 -28 -9 -51.333 -27 -70s-42.667 -28 -74 -28c-13.333 0 -26.333 2 -39 6s-23.667 10.333 -33 19s-16.833 19.5 -22.5 32.5
s-8.5 28.167 -8.5 45.5c0 27.333 7.5 53.833 22.5 79.5s37.5 48.5 67.5 68.5s67 36 111 48s95 18 153 18s107.667 -7.83301 149 -23.5s72.666 -44.167 93.999 -85.5h6zM609.998 411.999c-72.667 -2 -131.499 -7.50098 -176.499 -16.501s-79.833 -21.667 -104.5 -38
s-41.167 -36.166 -49.5 -59.499s-12.5 -50 -12.5 -80c0 -51.333 10.5 -90 31.5 -116s51.5 -39 91.5 -39c20 0 42.667 4.33301 68 13s49.166 23 71.499 43s41.333 46.333 57 79s23.5 73 23.5 121v93zM1171 537.998c-2 52 -7.83203 95 -17.499 129s-22.167 61 -37.5 81
s-33.5 34.167 -54.5 42.5s-43.833 12.5 -68.5 12.5c-26 0 -50.5 -4.5 -73.5 -13.5s-43.333 -24 -61 -45s-32.334 -48.333 -44.001 -82s-19.167 -75.167 -22.5 -124.5h379z" />
    <glyph glyph-name="ccedilla" unicode="&#xe7;" horiz-adv-x="943" 
d="M873 277c-22 -100.667 -63.167 -176.671 -123.5 -228.004s-138.5 -77 -234.5 -77c-66.667 0 -126.5 11.833 -179.5 35.5s-98 55.834 -135 96.501s-65.5 88 -85.5 142s-30 111.333 -30 172c0 63.333 10.5 123 31.5 179s50.833 104.833 89.5 146.5s85.167 74.667 139.5 99
s114.833 36.5 181.5 36.5c47.333 0 90.833 -6.16699 130.5 -18.5s73.834 -28.833 102.501 -49.5s51 -44.667 67 -72s24 -56 24 -86c0 -21.333 -3.66699 -39.166 -11 -53.499s-16.5 -25.833 -27.5 -34.5s-23.167 -15 -36.5 -19s-26 -6 -38 -6
c-32.667 0 -58.5 10.333 -77.5 31s-28.5 45.334 -28.5 74.001c0 17.333 4.33301 36 13 56s22 38.667 40 56c-22.667 18 -48.834 30.167 -78.501 36.5s-56.834 9.5 -81.501 9.5c-31.333 0 -61.5 -4.16699 -90.5 -12.5s-54.667 -26 -77 -53s-40.166 -65.5 -53.499 -115.5
s-20 -116.667 -20 -200c0 -77.333 6.16699 -140 18.5 -188s29.333 -85.5 51 -112.5s47.167 -45.333 76.5 -55s61.333 -14.5 96 -14.5c31.333 0 61 4.33301 89 13s53.5 22.5 76.5 41.5s43.333 44 61 75s31.834 69.167 42.501 114.5
c13.333 -1.33301 26.666 -3.66602 39.999 -6.99902s26 -7.33301 38 -12zM375 -345.004c17.333 -12.667 34.5 -22 51.5 -28s33.167 -9 48.5 -9c28.667 0 52.5 9.5 71.5 28.5s28.5 45.5 28.5 79.5s-9.5 59.5 -28.5 76.5s-44.5 25.5 -76.5 25.5
c-5.33301 0 -11.333 -0.333008 -18 -1s-13.667 -1.66699 -21 -3v186h70v-112h13c26.667 0 51.167 -4.16699 73.5 -12.5s41.5 -19.833 57.5 -34.5s28.5 -32.334 37.5 -53.001s13.5 -43 13.5 -67c0 -29.333 -6 -55.166 -18 -77.499s-27.667 -41 -47 -56
s-41.166 -26.5 -65.499 -34.5s-49.166 -12 -74.499 -12c-28 0 -55.333 4.83301 -82 14.5s-49.667 24.167 -69 43.5c3.33301 8.66699 7.66602 17 12.999 25s12.666 15 21.999 21z" />
    <glyph glyph-name="egrave" unicode="&#xe8;" horiz-adv-x="988" 
d="M875 271c-21.333 -96.667 -62.6689 -170.668 -124.002 -222.001s-141 -77 -239 -77c-67.333 0 -127.333 11.833 -180 35.5s-97.334 55.834 -134.001 96.501s-64.667 88.167 -84 142.5s-29 112.166 -29 173.499c0 62.667 10 122 30 178s48.5 104.667 85.5 146
s81.333 74.166 133 98.499s109.5 36.5 173.5 36.5c58.667 0 111.334 -10.333 158.001 -31s86.334 -49.5 119.001 -86.5s57.834 -81.167 75.501 -132.5s27.167 -107.666 28.5 -168.999h-603c-0.666992 -11.333 -1 -18.833 -1 -22.5v-6.5
c0 -78.667 5.83301 -142.667 17.5 -192s28 -87.833 49 -115.5s46 -46.5 75 -56.5s61.167 -15 96.5 -15c32.667 0 63.5 4.33301 92.5 13s55.167 22.5 78.5 41.5s43.833 43.667 61.5 74s31.834 66.833 42.501 109.5c13.333 -1.33301 26.666 -3.66602 39.999 -6.99902
s26 -7.33301 38 -12zM685.997 537.999c-2 55.333 -7.83203 100.168 -17.499 134.501s-22.5 61.166 -38.5 80.499s-34.833 32.5 -56.5 39.5s-45.5 10.5 -71.5 10.5c-27.333 0 -52.833 -4 -76.5 -12s-44.834 -22 -63.501 -42s-34.167 -47 -46.5 -81
s-20.833 -77.333 -25.5 -130h396zM186.998 1371c48 45.333 97 78.333 147 99l245 -414c-7.33301 -8 -14.833 -15 -22.5 -21s-16.5 -11 -26.5 -15z" />
    <glyph glyph-name="eacute" unicode="&#xe9;" horiz-adv-x="988" 
d="M875 271c-21.333 -96.667 -62.6689 -170.668 -124.002 -222.001s-141 -77 -239 -77c-67.333 0 -127.333 11.833 -180 35.5s-97.334 55.834 -134.001 96.501s-64.667 88.167 -84 142.5s-29 112.166 -29 173.499c0 62.667 10 122 30 178s48.5 104.667 85.5 146
s81.333 74.166 133 98.499s109.5 36.5 173.5 36.5c58.667 0 111.334 -10.333 158.001 -31s86.334 -49.5 119.001 -86.5s57.834 -81.167 75.501 -132.5s27.167 -107.666 28.5 -168.999h-603c-0.666992 -11.333 -1 -18.833 -1 -22.5v-6.5
c0 -78.667 5.83301 -142.667 17.5 -192s28 -87.833 49 -115.5s46 -46.5 75 -56.5s61.167 -15 96.5 -15c32.667 0 63.5 4.33301 92.5 13s55.167 22.5 78.5 41.5s43.833 43.667 61.5 74s31.834 66.833 42.501 109.5c13.333 -1.33301 26.666 -3.66602 39.999 -6.99902
s26 -7.33301 38 -12zM685.997 537.999c-2 55.333 -7.83203 100.168 -17.499 134.501s-22.5 61.166 -38.5 80.499s-34.833 32.5 -56.5 39.5s-45.5 10.5 -71.5 10.5c-27.333 0 -52.833 -4 -76.5 -12s-44.834 -22 -63.501 -42s-34.167 -47 -46.5 -81
s-20.833 -77.333 -25.5 -130h396zM469.998 1020c-10 4 -18.833 9 -26.5 15s-15.167 13 -22.5 21l245 414c50 -20.667 99 -53.667 147 -99z" />
    <glyph glyph-name="ecircumflex" unicode="&#xea;" horiz-adv-x="988" 
d="M875 271c-21.333 -96.667 -62.6689 -170.668 -124.002 -222.001s-141 -77 -239 -77c-67.333 0 -127.333 11.833 -180 35.5s-97.334 55.834 -134.001 96.501s-64.667 88.167 -84 142.5s-29 112.166 -29 173.499c0 62.667 10 122 30 178s48.5 104.667 85.5 146
s81.333 74.166 133 98.499s109.5 36.5 173.5 36.5c58.667 0 111.334 -10.333 158.001 -31s86.334 -49.5 119.001 -86.5s57.834 -81.167 75.501 -132.5s27.167 -107.666 28.5 -168.999h-603c-0.666992 -11.333 -1 -18.833 -1 -22.5v-6.5
c0 -78.667 5.83301 -142.667 17.5 -192s28 -87.833 49 -115.5s46 -46.5 75 -56.5s61.167 -15 96.5 -15c32.667 0 63.5 4.33301 92.5 13s55.167 22.5 78.5 41.5s43.833 43.667 61.5 74s31.834 66.833 42.501 109.5c13.333 -1.33301 26.666 -3.66602 39.999 -6.99902
s26 -7.33301 38 -12zM685.997 537.999c-2 55.333 -7.83203 100.168 -17.499 134.501s-22.5 61.166 -38.5 80.499s-34.833 32.5 -56.5 39.5s-45.5 10.5 -71.5 10.5c-27.333 0 -52.833 -4 -76.5 -12s-44.834 -22 -63.501 -42s-34.167 -47 -46.5 -81
s-20.833 -77.333 -25.5 -130h396zM249.998 1020c-10 4 -18.833 9 -26.5 15s-15.167 13 -22.5 21l263 406h72l263 -406c-7.33301 -8 -14.833 -15 -22.5 -21s-16.5 -11 -26.5 -15l-250 253z" />
    <glyph glyph-name="edieresis" unicode="&#xeb;" horiz-adv-x="988" 
d="M875 271c-21.333 -96.667 -62.6689 -170.668 -124.002 -222.001s-141 -77 -239 -77c-67.333 0 -127.333 11.833 -180 35.5s-97.334 55.834 -134.001 96.501s-64.667 88.167 -84 142.5s-29 112.166 -29 173.499c0 62.667 10 122 30 178s48.5 104.667 85.5 146
s81.333 74.166 133 98.499s109.5 36.5 173.5 36.5c58.667 0 111.334 -10.333 158.001 -31s86.334 -49.5 119.001 -86.5s57.834 -81.167 75.501 -132.5s27.167 -107.666 28.5 -168.999h-603c-0.666992 -11.333 -1 -18.833 -1 -22.5v-6.5
c0 -78.667 5.83301 -142.667 17.5 -192s28 -87.833 49 -115.5s46 -46.5 75 -56.5s61.167 -15 96.5 -15c32.667 0 63.5 4.33301 92.5 13s55.167 22.5 78.5 41.5s43.833 43.667 61.5 74s31.834 66.833 42.501 109.5c13.333 -1.33301 26.666 -3.66602 39.999 -6.99902
s26 -7.33301 38 -12zM685.997 537.999c-2 55.333 -7.83203 100.168 -17.499 134.501s-22.5 61.166 -38.5 80.499s-34.833 32.5 -56.5 39.5s-45.5 10.5 -71.5 10.5c-27.333 0 -52.833 -4 -76.5 -12s-44.834 -22 -63.501 -42s-34.167 -47 -46.5 -81
s-20.833 -77.333 -25.5 -130h396zM298.998 1134c-32.667 0 -60 10.5 -82 31.5s-33 48.5 -33 82.5c0 16.667 3 32 9 46s14.167 26.167 24.5 36.5s22.5 18.333 36.5 24s29 8.5 45 8.5c32.667 0 60 -10.5 82 -31.5s33 -48.5 33 -82.5c0 -17.333 -3 -33 -9 -47
s-14.167 -26 -24.5 -36s-22.5 -17.833 -36.5 -23.5s-29 -8.5 -45 -8.5zM700.998 1134c-32.667 0 -60 10.5 -82 31.5s-33 48.5 -33 82.5c0 16.667 3 32 9 46s14.167 26.167 24.5 36.5s22.5 18.333 36.5 24s29 8.5 45 8.5c32.667 0 60 -10.5 82 -31.5s33 -48.5 33 -82.5
c0 -17.333 -3 -33 -9 -47s-14.167 -26 -24.5 -36s-22.5 -17.833 -36.5 -23.5s-29 -8.5 -45 -8.5z" />
    <glyph glyph-name="igrave" unicode="&#xec;" horiz-adv-x="585" 
d="M385 80h150v-80h-480v80h150v692h-150v80h330v-772zM-22 1371c48 45.333 97 78.333 147 99l245 -414c-7.33301 -8 -14.833 -15 -22.5 -21s-16.5 -11 -26.5 -15z" />
    <glyph glyph-name="iacute" unicode="&#xed;" horiz-adv-x="585" 
d="M385 80h150v-80h-480v80h150v692h-150v80h330v-772zM261 1020c-10 4 -18.833 9 -26.5 15s-15.167 13 -22.5 21l245 414c50 -20.667 99 -53.667 147 -99z" />
    <glyph glyph-name="icircumflex" unicode="&#xee;" horiz-adv-x="585" 
d="M385 80h150v-80h-480v80h150v692h-150v80h330v-772zM41 1020c-10 4 -18.833 9 -26.5 15s-15.167 13 -22.5 21l263 406h72l263 -406c-7.33301 -8 -14.833 -15 -22.5 -21s-16.5 -11 -26.5 -15l-250 253z" />
    <glyph glyph-name="idieresis" unicode="&#xef;" horiz-adv-x="585" 
d="M385 80h150v-80h-480v80h150v692h-150v80h330v-772zM90 1134c-32.667 0 -60 10.5 -82 31.5s-33 48.5 -33 82.5c0 16.667 3 32 9 46s14.167 26.167 24.5 36.5s22.5 18.333 36.5 24s29 8.5 45 8.5c32.667 0 60 -10.5 82 -31.5s33 -48.5 33 -82.5c0 -17.333 -3 -33 -9 -47
s-14.167 -26 -24.5 -36s-22.5 -17.833 -36.5 -23.5s-29 -8.5 -45 -8.5zM492 1134c-32.667 0 -60 10.5 -82 31.5s-33 48.5 -33 82.5c0 16.667 3 32 9 46s14.167 26.167 24.5 36.5s22.5 18.333 36.5 24s29 8.5 45 8.5c32.667 0 60 -10.5 82 -31.5s33 -48.5 33 -82.5
c0 -17.333 -3 -33 -9 -47s-14.167 -26 -24.5 -36s-22.5 -17.833 -36.5 -23.5s-29 -8.5 -45 -8.5z" />
    <glyph glyph-name="eth" unicode="&#xf0;" horiz-adv-x="1055" 
d="M846 1453c16.667 -23.333 29.6719 -47.333 39.0049 -72l-233 -124c48 -47.333 90.667 -99.333 128 -156s69 -116.5 95 -179.5s45.833 -128.167 59.5 -195.5s20.5 -135 20.5 -203c0 -78 -9.33301 -150.5 -28 -217.5s-46.667 -125.333 -84 -175
s-83.833 -88.5 -139.5 -116.5s-120.834 -42 -195.501 -42c-68.667 0 -129.334 11.833 -182.001 35.5s-96.834 55.667 -132.501 96s-62.667 87 -81 140s-27.5 108.833 -27.5 167.5c0 62.667 10.167 121.5 30.5 176.5s49.166 103 86.499 144s82 73.333 134 97
s110 35.5 174 35.5c16.667 0 34.5 -1 53.5 -3s38.167 -5.83301 57.5 -11.5s38.333 -13.5 57 -23.5s36.667 -23 54 -39l4 2c-14.667 79.333 -35.834 154.5 -63.501 225.5s-66.167 134.833 -115.5 191.5l-274 -146c-15.333 20 -28 43.667 -38 71l253 135
c-34 30 -72.167 56.5 -114.5 79.5s-89.833 42.167 -142.5 57.5l23 72c60.667 -14.667 118 -35.667 172 -63s104.333 -60 151 -98zM521.005 788c-38.667 0 -72.835 -5.66699 -102.502 -17s-54.5 -31.333 -74.5 -60s-35.167 -67 -45.5 -115s-15.5 -108.667 -15.5 -182
c0 -70 4.83301 -128.5 14.5 -175.5s23.834 -84.667 42.501 -113s41.834 -48.333 69.501 -60s59.5 -17.5 95.5 -17.5c40 0 75.5 6.83301 106.5 20.5s57.333 36 79 67s38.167 71.667 49.5 122s17 112.5 17 186.5c0 60.667 -4.16699 112.667 -12.5 156s-21.833 79 -40.5 107
s-43 48.5 -73 61.5s-66.667 19.5 -110 19.5z" />
    <glyph glyph-name="ntilde" unicode="&#xf1;" horiz-adv-x="1138" 
d="M385 80h135.002v-80h-465v80h150v692h-150v80h330v-145h4c27.333 55.333 64 97.833 110 127.5s105.333 44.5 178 44.5c91.333 0 159.333 -23.5 204 -70.5s67 -114.167 67 -201.5v-527h145v-80h-460v80h135v555c0 52.667 -12.333 91.5 -37 116.5
s-59.334 37.5 -104.001 37.5c-34 0 -65.667 -7.16699 -95 -21.5s-54.833 -36.5 -76.5 -66.5s-38.834 -68.333 -51.501 -115s-19 -102 -19 -166v-340zM918.002 1356c-15.333 -88 -39.667 -156.331 -73 -204.998s-77 -73 -131 -73c-32 0 -60.667 7.83301 -86 23.5
s-49.333 32.5 -72 50.5s-43 33 -61 45s-36.667 18 -56 18c-8.66699 0 -18.167 -1.83301 -28.5 -5.5s-20.5 -10.667 -30.5 -21s-19.333 -24.5 -28 -42.5s-15.667 -41.333 -21 -70c-11.333 0 -23.166 0.833008 -35.499 2.5s-23.5 4.83398 -33.5 9.50098
c15.333 89.333 39.666 158 72.999 206s77.333 72 132 72c30 0 56.333 -6.5 79 -19.5s45.667 -28.5 69 -46.5l33.5 -27c10.333 -8.66699 20.5 -16.334 30.5 -23.001s19.833 -11.834 29.5 -15.501s19.834 -5.5 30.501 -5.5c9.33301 0 19.333 1.83301 30 5.5s21 10.667 31 21
s19.333 24.5 28 42.5s15.667 41.333 21 70c11.333 0 23.166 -0.833008 35.499 -2.5s23.5 -4.83398 33.5 -9.50098z" />
    <glyph glyph-name="ograve" unicode="&#xf2;" horiz-adv-x="1040" 
d="M85 418c0 62.667 9.83301 122 29.5 178s48.5 105 86.5 147s84.5 75.167 139.5 99.5s117.5 36.5 187.5 36.5c69.333 0 130.666 -11.833 183.999 -35.5s98 -55.834 134 -96.501s63.167 -88 81.5 -142s27.5 -111.333 27.5 -172c0 -62.667 -9.83301 -122 -29.5 -178
s-48.5 -105 -86.5 -147s-84.5 -75.167 -139.5 -99.5s-117.5 -36.5 -187.5 -36.5c-69.333 0 -130.666 11.833 -183.999 35.5s-98 55.834 -134 96.501s-63.167 88 -81.5 142s-27.5 111.333 -27.5 172zM283 422c0 -72.667 5.00293 -133 15.0029 -181s24.667 -86.333 44 -115
s43.666 -48.834 72.999 -60.501s63.666 -17.5 102.999 -17.5c38.667 0 73 6 103 18s55 32.5 75 61.5s35.167 68 45.5 117s15.5 110.5 15.5 184.5c0 72.667 -5 133 -15 181s-24.667 86.333 -44 115s-43.833 48.834 -73.5 60.501s-63.834 17.5 -102.501 17.5
c-39.333 0 -73.833 -6 -103.5 -18s-54.5 -32.5 -74.5 -61.5s-35.167 -68 -45.5 -117s-15.5 -110.5 -15.5 -184.5zM207.003 1371c48 45.333 97 78.333 147 99l245 -414c-7.33301 -8 -14.833 -15 -22.5 -21s-16.5 -11 -26.5 -15z" />
    <glyph glyph-name="oacute" unicode="&#xf3;" horiz-adv-x="1040" 
d="M85 418c0 62.667 9.83301 122 29.5 178s48.5 105 86.5 147s84.5 75.167 139.5 99.5s117.5 36.5 187.5 36.5c69.333 0 130.666 -11.833 183.999 -35.5s98 -55.834 134 -96.501s63.167 -88 81.5 -142s27.5 -111.333 27.5 -172c0 -62.667 -9.83301 -122 -29.5 -178
s-48.5 -105 -86.5 -147s-84.5 -75.167 -139.5 -99.5s-117.5 -36.5 -187.5 -36.5c-69.333 0 -130.666 11.833 -183.999 35.5s-98 55.834 -134 96.501s-63.167 88 -81.5 142s-27.5 111.333 -27.5 172zM283 422c0 -72.667 5.00293 -133 15.0029 -181s24.667 -86.333 44 -115
s43.666 -48.834 72.999 -60.501s63.666 -17.5 102.999 -17.5c38.667 0 73 6 103 18s55 32.5 75 61.5s35.167 68 45.5 117s15.5 110.5 15.5 184.5c0 72.667 -5 133 -15 181s-24.667 86.333 -44 115s-43.833 48.834 -73.5 60.501s-63.834 17.5 -102.501 17.5
c-39.333 0 -73.833 -6 -103.5 -18s-54.5 -32.5 -74.5 -61.5s-35.167 -68 -45.5 -117s-15.5 -110.5 -15.5 -184.5zM490.003 1020c-10 4 -18.833 9 -26.5 15s-15.167 13 -22.5 21l245 414c50 -20.667 99 -53.667 147 -99z" />
    <glyph glyph-name="ocircumflex" unicode="&#xf4;" horiz-adv-x="1040" 
d="M85 418c0 62.667 9.83301 122 29.5 178s48.5 105 86.5 147s84.5 75.167 139.5 99.5s117.5 36.5 187.5 36.5c69.333 0 130.666 -11.833 183.999 -35.5s98 -55.834 134 -96.501s63.167 -88 81.5 -142s27.5 -111.333 27.5 -172c0 -62.667 -9.83301 -122 -29.5 -178
s-48.5 -105 -86.5 -147s-84.5 -75.167 -139.5 -99.5s-117.5 -36.5 -187.5 -36.5c-69.333 0 -130.666 11.833 -183.999 35.5s-98 55.834 -134 96.501s-63.167 88 -81.5 142s-27.5 111.333 -27.5 172zM283 422c0 -72.667 5.00293 -133 15.0029 -181s24.667 -86.333 44 -115
s43.666 -48.834 72.999 -60.501s63.666 -17.5 102.999 -17.5c38.667 0 73 6 103 18s55 32.5 75 61.5s35.167 68 45.5 117s15.5 110.5 15.5 184.5c0 72.667 -5 133 -15 181s-24.667 86.333 -44 115s-43.833 48.834 -73.5 60.501s-63.834 17.5 -102.501 17.5
c-39.333 0 -73.833 -6 -103.5 -18s-54.5 -32.5 -74.5 -61.5s-35.167 -68 -45.5 -117s-15.5 -110.5 -15.5 -184.5zM270.003 1020c-10 4 -18.833 9 -26.5 15s-15.167 13 -22.5 21l263 406h72l263 -406c-7.33301 -8 -14.833 -15 -22.5 -21s-16.5 -11 -26.5 -15l-250 253z" />
    <glyph glyph-name="otilde" unicode="&#xf5;" horiz-adv-x="1040" 
d="M85 418c0 62.667 9.83301 122 29.5 178s48.5 105 86.5 147s84.5 75.167 139.5 99.5s117.5 36.5 187.5 36.5c69.333 0 130.666 -11.833 183.999 -35.5s98 -55.834 134 -96.501s63.167 -88 81.5 -142s27.5 -111.333 27.5 -172c0 -62.667 -9.83301 -122 -29.5 -178
s-48.5 -105 -86.5 -147s-84.5 -75.167 -139.5 -99.5s-117.5 -36.5 -187.5 -36.5c-69.333 0 -130.666 11.833 -183.999 35.5s-98 55.834 -134 96.501s-63.167 88 -81.5 142s-27.5 111.333 -27.5 172zM283 422c0 -72.667 5.00293 -133 15.0029 -181s24.667 -86.333 44 -115
s43.666 -48.834 72.999 -60.501s63.666 -17.5 102.999 -17.5c38.667 0 73 6 103 18s55 32.5 75 61.5s35.167 68 45.5 117s15.5 110.5 15.5 184.5c0 72.667 -5 133 -15 181s-24.667 86.333 -44 115s-43.833 48.834 -73.5 60.501s-63.834 17.5 -102.501 17.5
c-39.333 0 -73.833 -6 -103.5 -18s-54.5 -32.5 -74.5 -61.5s-35.167 -68 -45.5 -117s-15.5 -110.5 -15.5 -184.5zM858.003 1356c-15.333 -88 -39.667 -156.331 -73 -204.998s-77 -73 -131 -73c-32 0 -60.667 7.83301 -86 23.5s-49.333 32.5 -72 50.5s-43 33 -61 45
s-36.667 18 -56 18c-8.66699 0 -18.167 -1.83301 -28.5 -5.5s-20.5 -10.667 -30.5 -21s-19.333 -24.5 -28 -42.5s-15.667 -41.333 -21 -70c-11.333 0 -23.166 0.833008 -35.499 2.5s-23.5 4.83398 -33.5 9.50098c15.333 89.333 39.666 158 72.999 206s77.333 72 132 72
c30 0 56.333 -6.5 79 -19.5s45.667 -28.5 69 -46.5l33.5 -27c10.333 -8.66699 20.5 -16.334 30.5 -23.001s19.833 -11.834 29.5 -15.501s19.834 -5.5 30.501 -5.5c9.33301 0 19.333 1.83301 30 5.5s21 10.667 31 21s19.333 24.5 28 42.5s15.667 41.333 21 70
c11.333 0 23.166 -0.833008 35.499 -2.5s23.5 -4.83398 33.5 -9.50098z" />
    <glyph glyph-name="odieresis" unicode="&#xf6;" horiz-adv-x="1040" 
d="M85 418c0 62.667 9.83301 122 29.5 178s48.5 105 86.5 147s84.5 75.167 139.5 99.5s117.5 36.5 187.5 36.5c69.333 0 130.666 -11.833 183.999 -35.5s98 -55.834 134 -96.501s63.167 -88 81.5 -142s27.5 -111.333 27.5 -172c0 -62.667 -9.83301 -122 -29.5 -178
s-48.5 -105 -86.5 -147s-84.5 -75.167 -139.5 -99.5s-117.5 -36.5 -187.5 -36.5c-69.333 0 -130.666 11.833 -183.999 35.5s-98 55.834 -134 96.501s-63.167 88 -81.5 142s-27.5 111.333 -27.5 172zM283 422c0 -72.667 5.00293 -133 15.0029 -181s24.667 -86.333 44 -115
s43.666 -48.834 72.999 -60.501s63.666 -17.5 102.999 -17.5c38.667 0 73 6 103 18s55 32.5 75 61.5s35.167 68 45.5 117s15.5 110.5 15.5 184.5c0 72.667 -5 133 -15 181s-24.667 86.333 -44 115s-43.833 48.834 -73.5 60.501s-63.834 17.5 -102.501 17.5
c-39.333 0 -73.833 -6 -103.5 -18s-54.5 -32.5 -74.5 -61.5s-35.167 -68 -45.5 -117s-15.5 -110.5 -15.5 -184.5zM319.003 1134c-32.667 0 -60 10.5 -82 31.5s-33 48.5 -33 82.5c0 16.667 3 32 9 46s14.167 26.167 24.5 36.5s22.5 18.333 36.5 24s29 8.5 45 8.5
c32.667 0 60 -10.5 82 -31.5s33 -48.5 33 -82.5c0 -17.333 -3 -33 -9 -47s-14.167 -26 -24.5 -36s-22.5 -17.833 -36.5 -23.5s-29 -8.5 -45 -8.5zM721.003 1134c-32.667 0 -60 10.5 -82 31.5s-33 48.5 -33 82.5c0 16.667 3 32 9 46s14.167 26.167 24.5 36.5
s22.5 18.333 36.5 24s29 8.5 45 8.5c32.667 0 60 -10.5 82 -31.5s33 -48.5 33 -82.5c0 -17.333 -3 -33 -9 -47s-14.167 -26 -24.5 -36s-22.5 -17.833 -36.5 -23.5s-29 -8.5 -45 -8.5z" />
    <glyph glyph-name="divide" unicode="&#xf7;" horiz-adv-x="1132" 
d="M460 722c0 30 10 55.167 30 75.5s45 30.5 75 30.5s55.167 -10.167 75.5 -30.5s30.5 -45.5 30.5 -75.5s-10.167 -55 -30.5 -75s-45.5 -30 -75.5 -30s-55 10 -75 30s-30 45 -30 75zM460 129c0 30 10 55.167 30 75.5s45 30.5 75 30.5s55.167 -10.167 75.5 -30.5
s30.5 -45.5 30.5 -75.5s-10.167 -55 -30.5 -75s-45.5 -30 -75.5 -30s-55 10 -75 30s-30 45 -30 75zM1002 470v-88h-872v88h872z" />
    <glyph glyph-name="oslash" unicode="&#xf8;" horiz-adv-x="1040" 
d="M85 418c0 62.667 9.83398 122 29.501 178s48.5 105 86.5 147s84.5 75.167 139.5 99.5s117.5 36.5 187.5 36.5c52 0 99.167 -6.66699 141.5 -20s80.166 -32 113.499 -56l88 106c11.333 -6 21.833 -12.833 31.5 -20.5s18.834 -16.167 27.501 -25.5l-91 -110
c38 -41.333 66.833 -89.333 86.5 -144s29.5 -113.334 29.5 -176.001s-9.83301 -122 -29.5 -178s-48.5 -105 -86.5 -147s-84.5 -75.167 -139.5 -99.5s-117.5 -36.5 -187.5 -36.5c-52 0 -99.167 6.66699 -141.5 20s-80.5 32 -114.5 56l-87 -106
c-11.333 5.33301 -21.833 12 -31.5 20s-18.834 16.667 -27.501 26l90 110c-38 41.333 -66.667 89.333 -86 144s-29 113.334 -29 176.001zM518.001 48c38.667 0 73.001 6 103.001 18s55.333 32.5 76 61.5s36.167 68 46.5 117s15.5 110.5 15.5 184.5
c0 42 -1.66699 79.667 -5 113s-8.33301 63.333 -15 90l-407 -493c19.333 -34 44.666 -57.667 75.999 -71s68 -20 110 -20zM281.002 422c0 -84.667 6.33398 -152.333 19.001 -203l408 493c-20 34 -45.5 57.667 -76.5 71s-67.5 20 -109.5 20c-39.333 0 -73.833 -6 -103.5 -18
s-54.834 -32.5 -75.501 -61.5s-36.167 -68 -46.5 -117s-15.5 -110.5 -15.5 -184.5z" />
    <glyph glyph-name="ugrave" unicode="&#xf9;" horiz-adv-x="1128" 
d="M748 772l-145.002 -0.000976562v80h325v-772h150v-80h-330v128h-4c-29.333 -53.333 -65.666 -92.666 -108.999 -117.999s-99.333 -38 -168 -38c-95.333 0 -166.166 23.167 -212.499 69.5s-69.5 113.833 -69.5 202.5v528h-145v80h325v-638c0 -54 12.5 -92.833 37.5 -116.5
s60.833 -35.5 107.5 -35.5c32.667 0 63.5 6.16699 92.5 18.5s54.333 32.5 76 60.5s38.667 64.667 51 110s18.5 101 18.5 167v354zM226.998 1371c48 45.333 97 78.333 147 99l245 -414c-7.33301 -8 -14.833 -15 -22.5 -21s-16.5 -11 -26.5 -15z" />
    <glyph glyph-name="uacute" unicode="&#xfa;" horiz-adv-x="1128" 
d="M748 772l-145.002 -0.000976562v80h325v-772h150v-80h-330v128h-4c-29.333 -53.333 -65.666 -92.666 -108.999 -117.999s-99.333 -38 -168 -38c-95.333 0 -166.166 23.167 -212.499 69.5s-69.5 113.833 -69.5 202.5v528h-145v80h325v-638c0 -54 12.5 -92.833 37.5 -116.5
s60.833 -35.5 107.5 -35.5c32.667 0 63.5 6.16699 92.5 18.5s54.333 32.5 76 60.5s38.667 64.667 51 110s18.5 101 18.5 167v354zM509.998 1020c-10 4 -18.833 9 -26.5 15s-15.167 13 -22.5 21l245 414c50 -20.667 99 -53.667 147 -99z" />
    <glyph glyph-name="ucircumflex" unicode="&#xfb;" horiz-adv-x="1128" 
d="M748 772l-145.002 -0.000976562v80h325v-772h150v-80h-330v128h-4c-29.333 -53.333 -65.666 -92.666 -108.999 -117.999s-99.333 -38 -168 -38c-95.333 0 -166.166 23.167 -212.499 69.5s-69.5 113.833 -69.5 202.5v528h-145v80h325v-638c0 -54 12.5 -92.833 37.5 -116.5
s60.833 -35.5 107.5 -35.5c32.667 0 63.5 6.16699 92.5 18.5s54.333 32.5 76 60.5s38.667 64.667 51 110s18.5 101 18.5 167v354zM289.998 1020c-10 4 -18.833 9 -26.5 15s-15.167 13 -22.5 21l263 406h72l263 -406c-7.33301 -8 -14.833 -15 -22.5 -21s-16.5 -11 -26.5 -15
l-250 253z" />
    <glyph glyph-name="udieresis" unicode="&#xfc;" horiz-adv-x="1128" 
d="M748 772l-145.002 -0.000976562v80h325v-772h150v-80h-330v128h-4c-29.333 -53.333 -65.666 -92.666 -108.999 -117.999s-99.333 -38 -168 -38c-95.333 0 -166.166 23.167 -212.499 69.5s-69.5 113.833 -69.5 202.5v528h-145v80h325v-638c0 -54 12.5 -92.833 37.5 -116.5
s60.833 -35.5 107.5 -35.5c32.667 0 63.5 6.16699 92.5 18.5s54.333 32.5 76 60.5s38.667 64.667 51 110s18.5 101 18.5 167v354zM338.998 1134c-32.667 0 -60 10.5 -82 31.5s-33 48.5 -33 82.5c0 16.667 3 32 9 46s14.167 26.167 24.5 36.5s22.5 18.333 36.5 24
s29 8.5 45 8.5c32.667 0 60 -10.5 82 -31.5s33 -48.5 33 -82.5c0 -17.333 -3 -33 -9 -47s-14.167 -26 -24.5 -36s-22.5 -17.833 -36.5 -23.5s-29 -8.5 -45 -8.5zM740.998 1134c-32.667 0 -60 10.5 -82 31.5s-33 48.5 -33 82.5c0 16.667 3 32 9 46s14.167 26.167 24.5 36.5
s22.5 18.333 36.5 24s29 8.5 45 8.5c32.667 0 60 -10.5 82 -31.5s33 -48.5 33 -82.5c0 -17.333 -3 -33 -9 -47s-14.167 -26 -24.5 -36s-22.5 -17.833 -36.5 -23.5s-29 -8.5 -45 -8.5z" />
    <glyph glyph-name="yacute" unicode="&#xfd;" horiz-adv-x="1016" 
d="M812 772l-139.998 0.00292969v80h374v-80h-148l-386 -874c-40 -91.333 -75.167 -166.833 -105.5 -226.5s-58.5 -107 -84.5 -142s-51.333 -59.5 -76 -73.5s-51.334 -21 -80.001 -21c-22.667 0 -42.834 3.5 -60.501 10.5s-32.667 16.333 -45 28
s-21.666 25.167 -27.999 40.5s-9.5 31 -9.5 47c0 14 2.33301 27.667 7 41s11.667 25.166 21 35.499s20.5 18.666 33.5 24.999s28.167 9.5 45.5 9.5c16 0 30.333 -2.83301 43 -8.5s23.167 -13.334 31.5 -23.001s14.666 -20.667 18.999 -33s6.5 -25.166 6.5 -38.499
c0 -8.66699 -0.666992 -15.667 -2 -21l4 -1c26 23.333 57.833 73.166 95.5 149.499s83.5 175.5 137.5 297.5l-349 778h-151v80h488v-80h-140l248 -555h4zM510.002 1020c-10 4 -18.833 9 -26.5 15s-15.167 13 -22.5 21l245 414c50 -20.667 99 -53.667 147 -99z" />
    <glyph glyph-name="thorn" unicode="&#xfe;" horiz-adv-x="1119" 
d="M631 -28c-54 0 -103.663 11.8311 -148.996 35.498s-83 61.5 -113 113.5h-4v-589h160v-80h-490v80h150v1841h-150v80h330v-713h4c29.333 47.333 67.5 82.333 114.5 105s98.167 34 153.5 34c58 0 111.167 -10.667 159.5 -32s90.166 -51.5 125.499 -90.5
s62.833 -86.167 82.5 -141.5s29.5 -116.666 29.5 -183.999c0 -71.333 -10.833 -135.333 -32.5 -192s-50.834 -104.667 -87.501 -144s-79.334 -69.666 -128.001 -90.999s-100.334 -32 -155.001 -32zM836.004 427.998c0 76 -5.33398 138.167 -16.001 186.5
s-25.834 86.333 -45.501 114s-43.167 46.5 -70.5 56.5s-57.666 15 -90.999 15c-45.333 0 -83.666 -8.66699 -114.999 -26s-56.833 -42 -76.5 -74s-34 -71 -43 -117s-13.5 -97.667 -13.5 -155s4.16699 -106.333 12.5 -147s19.5 -75 33.5 -103s30 -50.333 48 -67
s36.333 -29.5 55 -38.5s37 -14.833 55 -17.5s34.333 -4 49 -4c30.667 0 59.334 5 86.001 15s49.667 28.833 69 56.5s34.666 66 45.999 115s17 112.5 17 190.5z" />
    <glyph glyph-name="ydieresis" unicode="&#xff;" horiz-adv-x="1016" 
d="M812 772l-139.998 0.00292969v80h374v-80h-148l-386 -874c-40 -91.333 -75.167 -166.833 -105.5 -226.5s-58.5 -107 -84.5 -142s-51.333 -59.5 -76 -73.5s-51.334 -21 -80.001 -21c-22.667 0 -42.834 3.5 -60.501 10.5s-32.667 16.333 -45 28
s-21.666 25.167 -27.999 40.5s-9.5 31 -9.5 47c0 14 2.33301 27.667 7 41s11.667 25.166 21 35.499s20.5 18.666 33.5 24.999s28.167 9.5 45.5 9.5c16 0 30.333 -2.83301 43 -8.5s23.167 -13.334 31.5 -23.001s14.666 -20.667 18.999 -33s6.5 -25.166 6.5 -38.499
c0 -8.66699 -0.666992 -15.667 -2 -21l4 -1c26 23.333 57.833 73.166 95.5 149.499s83.5 175.5 137.5 297.5l-349 778h-151v80h488v-80h-140l248 -555h4zM339.002 1134c-32.667 0 -60 10.5 -82 31.5s-33 48.5 -33 82.5c0 16.667 3 32 9 46s14.167 26.167 24.5 36.5
s22.5 18.333 36.5 24s29 8.5 45 8.5c32.667 0 60 -10.5 82 -31.5s33 -48.5 33 -82.5c0 -17.333 -3 -33 -9 -47s-14.167 -26 -24.5 -36s-22.5 -17.833 -36.5 -23.5s-29 -8.5 -45 -8.5zM741.002 1134c-32.667 0 -60 10.5 -82 31.5s-33 48.5 -33 82.5c0 16.667 3 32 9 46
s14.167 26.167 24.5 36.5s22.5 18.333 36.5 24s29 8.5 45 8.5c32.667 0 60 -10.5 82 -31.5s33 -48.5 33 -82.5c0 -17.333 -3 -33 -9 -47s-14.167 -26 -24.5 -36s-22.5 -17.833 -36.5 -23.5s-29 -8.5 -45 -8.5z" />
    <glyph glyph-name="OE" unicode="&#x152;" horiz-adv-x="2188" 
d="M135 712c0 120 15.833 227.83 47.5 323.497s76 177 133 244s125 118.333 204 154s165.5 53.5 259.5 53.5c68.667 0 130.334 -9.33301 185.001 -28s104.667 -45.667 150 -81v75h894l20 -401h-70c-10 66.667 -22.333 120.834 -37 162.501s-35.167 74.334 -61.5 98.001
s-60.666 39.667 -102.999 48s-95.833 12.5 -160.5 12.5h-287v-579h111c44.667 0 82 1.66699 112 5s54.167 12.833 72.5 28.5s32.166 40 41.499 73s16 79.5 20 139.5h71v-592h-71c-3.33301 60.667 -9 108.5 -17 143.5s-21 61.5 -39 79.5s-42.167 29.333 -72.5 34
s-69.5 7 -117.5 7h-111v-632h235c52 0 97.667 2 137 6s73.666 11.333 102.999 22s54.5 25.667 75.5 45s39.167 44.333 54.5 75s28.333 68 39 112s20.667 96 30 156h70l-20 -496h-919v85c-46 -38 -98 -67.333 -156 -88s-124 -31 -198 -31c-94.667 0 -180.5 17.333 -257.5 52
s-142.667 84.334 -197 149.001s-96.333 143 -126 235s-44.5 195.333 -44.5 310zM774 1407c-40.667 0 -79.167 -4 -115.5 -12s-70.166 -21.667 -101.499 -41s-59.666 -45.666 -84.999 -78.999s-46.833 -75.5 -64.5 -126.5s-31.334 -111.667 -41.001 -182
s-14.5 -152.5 -14.5 -246.5c0 -92 4.66699 -172.5 14 -241.5s22.5 -128.5 39.5 -178.5s37.667 -91.333 62 -124s51.666 -58.667 81.999 -78s63.333 -32.833 99 -40.5s73.5 -11.5 113.5 -11.5c32.667 0 65.334 2.66699 98.001 8s64.167 14.166 94.5 26.499s59 28.5 86 48.5
s51.5 44.667 73.5 74v1055c-22.667 28.667 -47.334 52.5 -74.001 71.5s-54.5 34.167 -83.5 45.5s-58.833 19.5 -89.5 24.5s-61.667 7.5 -93 7.5z" />
    <glyph glyph-name="oe" unicode="&#x153;" horiz-adv-x="1632" 
d="M839 124c-35.333 -46.667 -81.3262 -83.6709 -137.993 -111.004s-121.334 -41 -194.001 -41c-68.667 0 -129.334 11.833 -182.001 35.5s-96.667 55.834 -132 96.501s-62.166 88 -80.499 142s-27.5 111.333 -27.5 172c0 62.667 9.83301 122 29.5 178s48.167 105 85.5 147
s83.166 75.167 137.499 99.5s116.166 36.5 185.499 36.5c73.333 0 137.333 -13.333 192 -40s98.667 -63.334 132 -110.001h6c16 24 35 45.333 57 64s46.167 34.334 72.5 47.001s54.333 22.334 84 29.001s60.167 10 91.5 10c56 0 106.833 -10.333 152.5 -31
s84.667 -49.5 117 -86.5s57.5 -81.167 75.5 -132.5s27.667 -107.666 29 -168.999h-588c-0.666992 -11.333 -1 -18.833 -1 -22.5v-6.5c0 -76.667 5.66699 -139.5 17 -188.5s27.166 -87.667 47.499 -116s44.666 -47.833 72.999 -58.5s59.5 -16 93.5 -16
c32 0 61.833 4.33301 89.5 13s53 22.5 76 41.5s43.167 43.667 60.5 74s31 66.833 41 109.5c13.333 -1.33301 26.666 -3.66602 39.999 -6.99902s26 -7.33301 38 -12c-21.333 -96.667 -62 -170.667 -122 -222s-138 -77 -234 -77c-70.667 0 -133.334 13.333 -188.001 40
s-98 64 -130 112h-6zM283.007 421.996c0 -72 4.83301 -132 14.5 -180s24 -86.333 43 -115s43 -49 72 -61s62.5 -18 100.5 -18s71.667 6 101 18s53.833 32.667 73.5 62s34.5 68.333 44.5 117s15 110 15 184c0 72 -4.83301 132 -14.5 180s-24 86.333 -43 115s-43 49 -72 61
s-62.5 18 -100.5 18s-71.667 -6 -101 -18s-53.833 -32.667 -73.5 -62s-34.5 -68.5 -44.5 -117.5s-15 -110.167 -15 -183.5zM1330.01 537.996c-2 52 -7.83301 95 -17.5 129s-22.167 61 -37.5 81s-33.5 34.167 -54.5 42.5s-43.833 12.5 -68.5 12.5
c-26 0 -50.5 -4.5 -73.5 -13.5s-43.5 -23.667 -61.5 -44s-33 -47.5 -45 -81.5s-19.667 -76 -23 -126h381z" />
    <glyph glyph-name="Scaron" unicode="&#x160;" horiz-adv-x="1148" 
d="M111 435l70.001 -0.00292969c7.33301 -76 22 -139.333 44 -190s49.167 -91 81.5 -121s69.333 -51.167 111 -63.5s85.834 -18.5 132.501 -18.5c56 0 103.833 7 143.5 21s72.334 33.5 98.001 58.5s44.334 55 56.001 90s17.5 73.5 17.5 115.5
c0 52 -8.66699 94.833 -26 128.5s-41.5 62.334 -72.5 86.001s-68.167 44.167 -111.5 61.5s-91 35.333 -143 54s-101.5 38.334 -148.5 59.001s-88.5 46.334 -124.5 77.001s-64.5 68.167 -85.5 112.5s-31.5 99.5 -31.5 165.5c0 62 10 118.667 30 170s49.667 95.166 89 131.499
s88.166 64.5 146.499 84.5s126.166 30 203.499 30c30.667 0 62.334 -1.5 95.001 -4.5s65.167 -7.5 97.5 -13.5s64.166 -13.167 95.499 -21.5s61 -17.5 89 -27.5l12 -363h-70c-6 72 -19.333 130.667 -40 176s-45.834 80.833 -75.501 106.5s-62.667 43.334 -99 53.001
s-73.5 14.5 -111.5 14.5c-50.667 0 -94.667 -6.16699 -132 -18.5s-68.333 -30 -93 -53s-43.167 -51 -55.5 -84s-18.5 -70.167 -18.5 -111.5c0 -49.333 8.66699 -90.333 26 -123s41.833 -60.834 73.5 -84.501s69.667 -44.667 114 -63s93.166 -37.5 146.499 -57.5
c48.667 -18.667 96.5 -38.5 143.5 -59.5s89 -47.333 126 -79s66.833 -70.667 89.5 -117s34 -103.833 34 -172.5c0 -66.667 -11.5 -126 -34.5 -178s-56 -95.667 -99 -131s-95.5 -62.333 -157.5 -81s-132 -28 -210 -28c-34 0 -69.167 1.66699 -105.5 5
s-72.333 8.33301 -108 15s-70.5 14.334 -104.5 23.001s-65.667 18.667 -95 30zM551.001 1545l-299.004 305c4.66699 10 10.334 18.833 17.001 26.5s14.334 14.834 23.001 21.501l288 -184l288 184c8.66699 -6.66699 16.334 -13.834 23.001 -21.501
s12.334 -16.5 17.001 -26.5l-298 -305h-59z" />
    <glyph glyph-name="scaron" unicode="&#x161;" horiz-adv-x="838" 
d="M646 569c-3.33301 43.333 -10.502 80.0039 -21.502 110.004s-25.833 54.333 -44.5 73s-41.167 32.167 -67.5 40.5s-56.5 12.5 -90.5 12.5c-26 0 -50 -2.5 -72 -7.5s-41 -12.667 -57 -23s-28.5 -23.833 -37.5 -40.5s-13.5 -36.667 -13.5 -60s4.16699 -42.5 12.5 -57.5
s22 -28.333 41 -40s43.333 -22.834 73 -33.501l109.5 -38c34.667 -12 69 -24.667 103 -38s64.5 -30 91.5 -50s48.833 -44.167 65.5 -72.5s25 -62.833 25 -103.5c0 -46 -10.333 -86 -31 -120s-48 -62 -82 -84s-72.667 -38.333 -116 -49s-87.666 -16 -132.999 -16
c-24 0 -49.5 1.33301 -76.5 4s-53.667 6.33398 -80 11.001s-51.333 10.167 -75 16.5s-44.5 12.833 -62.5 19.5l-7 290h69c3.33301 -50.667 10.5 -93.167 21.5 -127.5s26.333 -61.833 46 -82.5s43.667 -35.334 72 -44.001s61.5 -13 99.5 -13c28.667 0 55.167 2.5 79.5 7.5
s45.5 13 63.5 24s32.167 25.5 42.5 43.5s15.5 39.667 15.5 65c0 22 -4 40.167 -12 54.5s-20.667 27.166 -38 38.499s-39.666 22 -66.999 32l-98 35c-38 13.333 -74.5 27.166 -109.5 41.499s-65.833 31.666 -92.5 51.999s-48 44.833 -64 73.5s-24 63.667 -24 105
c0 45.333 9.33301 84.5 28 117.5s43.5 60.167 74.5 81.5s66.667 37 107 47s82.166 15 125.499 15c22 0 45 -1.16699 69 -3.5s47.833 -5.5 71.5 -9.5s46.334 -8.5 68.001 -13.5s41.5 -9.83301 59.5 -14.5l7 -269h-68zM684.998 1470c10 -4 18.833 -9 26.5 -15
s15.167 -13 22.5 -21l-263 -406h-72l-263 406c7.33301 8 14.833 15 22.5 21s16.5 11 26.5 15l250 -253z" />
    <glyph glyph-name="Ydieresis" unicode="&#x178;" horiz-adv-x="1373" 
d="M-30 1453h595v-80h-184l370 -579l364 579h-189v80h467v-80h-170l-428 -678v-615h220v-80h-635v80h220v585l-453 708h-177v80zM516 1573c-32 0 -58.5 9.99805 -79.5 29.998s-31.5 46.667 -31.5 80c0 32.667 10.667 59.334 32 80.001s47.666 31 78.999 31
c32 0 58.5 -10 79.5 -30s31.5 -46.667 31.5 -80s-10.667 -60.166 -32 -80.499s-47.666 -30.5 -78.999 -30.5zM934 1573c-32 0 -58.5 9.99805 -79.5 29.998s-31.5 46.667 -31.5 80c0 32.667 10.667 59.334 32 80.001s47.666 31 78.999 31c32 0 58.5 -10 79.5 -30
s31.5 -46.667 31.5 -80s-10.667 -60.166 -32 -80.499s-47.666 -30.5 -78.999 -30.5z" />
    <glyph glyph-name="Zcaron" unicode="&#x17d;" horiz-adv-x="1299" 
d="M101 0v61.999l815 1311h-341c-43.333 0 -81.666 -1.66699 -114.999 -5s-62.5 -9.66602 -87.5 -18.999s-46.5 -22.333 -64.5 -39s-33.333 -38 -46 -64s-23.5 -57.333 -32.5 -94s-16.833 -80 -23.5 -130h-70l29 431h995v-62l-829 -1311h349c52 0 97.667 2 137 6
s73.666 11.333 102.999 22s54.5 25.667 75.5 45s39.167 44.333 54.5 75s28.333 68 39 112s20.667 96 30 156h70l-20 -496h-1068zM631 1545l-299.004 305c4.66699 10 10.334 18.833 17.001 26.5s14.334 14.834 23.001 21.501l288 -184l288 184
c8.66699 -6.66699 16.334 -13.834 23.001 -21.501s12.334 -16.5 17.001 -26.5l-298 -305h-59z" />
    <glyph glyph-name="zcaron" unicode="&#x17e;" horiz-adv-x="942" 
d="M835 334l-11 -333.999h-729v60l508 707h-153c-47.333 0 -86 -2.5 -116 -7.5s-54.833 -15.5 -74.5 -31.5s-35.167 -39.5 -46.5 -70.5s-21.333 -72.5 -30 -124.5h-76l16 314h709v-60l-515 -707h179c46.667 0 85 2.5 115 7.5s54.333 16.333 73 34s33.5 43.167 44.5 76.5
s21.167 78.666 30.5 135.999h76zM730 1470c10 -4 18.833 -9 26.5 -15s15.167 -13 22.5 -21l-263 -406h-72l-263 406c7.33301 8 14.833 15 22.5 21s16.5 11 26.5 15l250 -253z" />
    <glyph glyph-name="florin" unicode="&#x192;" horiz-adv-x="1050" 
d="M389 522l-151.999 -0.000976562v80h152v59c0 85.333 9.83301 160.333 29.5 225s46.667 118.667 81 162s74.666 76 120.999 98s96.5 33 150.5 33c35.333 0 67.833 -4.5 97.5 -13.5s55.334 -21.167 77.001 -36.5s38.667 -33.666 51 -54.999s18.5 -44 18.5 -68
c0 -15.333 -2.66699 -30 -8 -44s-12.666 -26.167 -21.999 -36.5s-20.5 -18.5 -33.5 -24.5s-27.167 -9 -42.5 -9c-13.333 0 -26.333 2.33301 -39 7s-23.834 11.334 -33.501 20.001s-17.334 19.334 -23.001 32.001s-8.5 27 -8.5 43c0 17.333 3.66699 34.833 11 52.5
s18.666 33.167 33.999 46.5c-11.333 3.33301 -23.333 6.16602 -36 8.49902s-29 3.5 -49 3.5c-25.333 0 -49.833 -3.16699 -73.5 -9.5s-44.5 -20.666 -62.5 -42.999s-32.5 -55.5 -43.5 -99.5s-16.5 -103.333 -16.5 -178v-173h220v-80h-220v-605c0 -78.667 -8 -148 -24 -208
s-38.5 -110.333 -67.5 -151s-64.167 -71.334 -105.5 -92.001s-87.333 -31 -138 -31c-33.333 0 -63.666 4.33301 -90.999 13s-50.833 20.334 -70.5 35.001s-35 31.834 -46 51.501s-16.5 40.5 -16.5 62.5c0 31.333 9.83301 57.166 29.5 77.499s44.834 30.5 75.501 30.5
c13.333 0 26.166 -2.16699 38.499 -6.5s23.166 -10.833 32.499 -19.5s16.833 -19 22.5 -31s8.5 -25.333 8.5 -40c0 -16.667 -3.5 -32.834 -10.5 -48.501s-17.167 -29.5 -30.5 -41.5c9.33301 -2.66699 19.833 -4.83398 31.5 -6.50098s22.834 -2.5 33.501 -2.5
c26 0 48.333 4.5 67 13.5s34 24 46 45s20.833 48.833 26.5 83.5s8.5 77.667 8.5 129v742z" />
    <glyph glyph-name="circumflex" unicode="&#x2c6;" horiz-adv-x="800" 
d="M150 1020c-10 4 -18.833 9 -26.5 15s-15.167 13 -22.5 21l263 406h72l263 -406c-7.33301 -8 -14.833 -15 -22.5 -21s-16.5 -11 -26.5 -15l-250 253z" />
    <glyph glyph-name="caron" unicode="&#x2c7;" horiz-adv-x="800" 
d="M650 1470c10 -4 18.833 -9 26.5 -15s15.167 -13 22.5 -21l-263 -406h-72l-263 406c7.33301 8 14.833 15 22.5 21s16.5 11 26.5 15l250 -253z" />
    <glyph glyph-name="breve" unicode="&#x2d8;" horiz-adv-x="800" 
d="M674 1405c-2 -61.333 -9.8291 -114.166 -23.4961 -158.499s-32.334 -81 -56.001 -110s-52 -50.5 -85 -64.5s-69.5 -21 -109.5 -21s-76.5 7 -109.5 21s-61.333 35.5 -85 64.5s-42.334 65.667 -56.001 110s-21.5 97.166 -23.5 158.499c9.33301 2 19.5 3.66699 30.5 5
s21.167 2 30.5 2c11.333 -71.333 34.166 -125 68.499 -161s82.5 -54 144.5 -54s110.167 18 144.5 54s57.166 89.667 68.499 161c9.33301 0 19.5 -0.666992 30.5 -2s21.167 -3 30.5 -5z" />
    <glyph glyph-name="ring" unicode="&#x2da;" horiz-adv-x="800" 
d="M168 1236c0 26 5.33301 50.6689 16 74.002s26 43.666 46 60.999s44.667 31.166 74 41.499s63 15.5 101 15.5c36.667 0 69.167 -5 97.5 -15s52 -23.5 71 -40.5s33.5 -36.667 43.5 -59s15 -46.166 15 -71.499c0 -26 -5.33301 -50.5 -16 -73.5s-26 -43.333 -46 -61
s-44.667 -31.5 -74 -41.5s-63 -15 -101 -15c-36.667 0 -69.167 5 -97.5 15s-52 23.333 -71 40s-33.5 36.167 -43.5 58.5s-15 46.166 -15 71.499zM288 1238c0 -47.333 10.5 -80.335 31.5 -99.002s47.5 -28 79.5 -28c16 0 30.833 2.16699 44.5 6.5s25.667 11.5 36 21.5
s18.333 23.333 24 40s8.5 37.334 8.5 62.001c0 47.333 -10.5 80.333 -31.5 99s-47.5 28 -79.5 28c-16 0 -30.833 -2.16699 -44.5 -6.5s-25.667 -11.666 -36 -21.999s-18.333 -23.833 -24 -40.5s-8.5 -37 -8.5 -61z" />
    <glyph glyph-name="tilde" unicode="&#x2dc;" horiz-adv-x="800" 
d="M738 1356c-15.333 -88 -39.667 -156.331 -73 -204.998s-77 -73 -131 -73c-32 0 -60.667 7.83301 -86 23.5s-49.333 32.5 -72 50.5s-43 33 -61 45s-36.667 18 -56 18c-8.66699 0 -18.167 -1.83301 -28.5 -5.5s-20.5 -10.667 -30.5 -21s-19.333 -24.5 -28 -42.5
s-15.667 -41.333 -21 -70c-11.333 0 -23.166 0.833008 -35.499 2.5s-23.5 4.83398 -33.5 9.50098c15.333 89.333 39.666 158 72.999 206s77.333 72 132 72c30 0 56.333 -6.5 79 -19.5s45.667 -28.5 69 -46.5l33.5 -27c10.333 -8.66699 20.5 -16.334 30.5 -23.001
s19.833 -11.834 29.5 -15.501s19.834 -5.5 30.501 -5.5c9.33301 0 19.333 1.83301 30 5.5s21 10.667 31 21s19.333 24.5 28 42.5s15.667 41.333 21 70c11.333 0 23.166 -0.833008 35.499 -2.5s23.5 -4.83398 33.5 -9.50098z" />
    <glyph glyph-name="uni034F" unicode="&#x34f;" 
 />
    <glyph glyph-name="uni200B" unicode="&#x200b;" 
 />
    <glyph glyph-name="afii61664" unicode="&#x200c;" 
d="M36 2250v-3798h-72v3798h72z" />
    <glyph glyph-name="afii301" unicode="&#x200d;" 
d="M36 -1548h-72v3719l-134 -136l-49 49l171 169l-171 168l49 49l170 -171l170 171l49 -49l-171 -168l171 -169l-49 -49l-134 136v-3719z" />
    <glyph glyph-name="figuredash" unicode="&#x2012;" horiz-adv-x="1060" 
d="M20 522h1020v-85h-1020v85z" />
    <glyph glyph-name="endash" unicode="&#x2013;" horiz-adv-x="1024" 
d="M20 522h984v-85h-984v85z" />
    <glyph glyph-name="emdash" unicode="&#x2014;" horiz-adv-x="2048" 
d="M20 522h2008v-85h-2008v85z" />
    <glyph glyph-name="afii00208" unicode="&#x2015;" horiz-adv-x="3890" 
d="M20 522h3850v-85h-3850v85z" />
    <glyph glyph-name="quoteleft" unicode="&#x2018;" horiz-adv-x="577" 
d="M378 1422c-23.333 -20.667 -45.1699 -41.5049 -65.5029 -62.5049s-38.166 -42.833 -53.499 -65.5s-27.5 -46 -36.5 -70s-13.5 -49.333 -13.5 -76c0 -9.33301 0.5 -17.666 1.5 -24.999l3.5 -25l5 1c11.333 22.667 26.333 39.334 45 50.001s38 16 58 16
c15.333 0 30.5 -3 45.5 -9s28.333 -14.667 40 -26s21.167 -25.166 28.5 -41.499s11 -34.833 11 -55.5c0 -17.333 -3 -33.833 -9 -49.5s-14.667 -29.167 -26 -40.5s-25.166 -20.333 -41.499 -27s-35.166 -10 -56.499 -10c-25.333 0 -49.666 4.83301 -72.999 14.5
s-44 23.834 -62 42.501s-32.333 41.667 -43 69s-16 58.666 -16 93.999c0 60.667 17.167 120.5 51.5 179.5s85.833 116.5 154.5 172.5c11.333 -7.33301 21.166 -15.666 29.499 -24.999s15.833 -19.666 22.5 -30.999z" />
    <glyph glyph-name="quoteright" unicode="&#x2019;" horiz-adv-x="577" 
d="M199 954c22.667 20.667 44.332 41.5029 64.999 62.5029s38.667 42.833 54 65.5s27.5 46 36.5 70s13.5 49.333 13.5 76c0 9.33301 -0.5 17.666 -1.5 24.999l-3.5 25l-5 -1c-11.333 -23.333 -27 -40.166 -47 -50.499s-40.667 -15.5 -62 -15.5c-15.333 0 -30 2.5 -44 7.5
s-26.667 12.5 -38 22.5s-20.333 22.333 -27 37s-10 31.334 -10 50.001c0 16.667 2.83301 33.5 8.5 50.5s14.167 32.167 25.5 45.5s25.5 24.333 42.5 33s36.833 13 59.5 13c23.333 0 46.333 -4.83301 69 -14.5s43 -23.834 61 -42.501s32.667 -41.667 44 -69s17 -59 17 -95
c0 -60.667 -17.167 -120.334 -51.5 -179.001s-85.833 -116 -154.5 -172c-11.333 7.33301 -21.166 15.666 -29.499 24.999s-15.833 19.666 -22.5 30.999z" />
    <glyph glyph-name="quotesinglbase" unicode="&#x201a;" horiz-adv-x="577" 
d="M189 -271c22.667 20.667 44.332 41.5029 64.999 62.5029s38.667 42.833 54 65.5s27.5 46 36.5 70s13.5 49.333 13.5 76c0 9.33301 -0.5 17.666 -1.5 24.999l-3.5 25l-5 -1c-11.333 -23.333 -27 -40.166 -47 -50.499s-40.667 -15.5 -62 -15.5c-15.333 0 -30 2.5 -44 7.5
s-26.667 12.5 -38 22.5s-20.333 22.333 -27 37s-10 31.334 -10 50.001c0 16.667 2.83301 33.5 8.5 50.5s14.167 32.167 25.5 45.5s25.5 24.333 42.5 33s36.833 13 59.5 13c23.333 0 46.333 -4.83301 69 -14.5s43 -23.834 61 -42.501s32.667 -41.667 44 -69s17 -59 17 -95
c0 -60.667 -17.167 -120.334 -51.5 -179.001s-85.833 -116 -154.5 -172c-11.333 7.33301 -21.166 15.666 -29.499 24.999s-15.833 19.666 -22.5 30.999z" />
    <glyph glyph-name="quotedblleft" unicode="&#x201c;" horiz-adv-x="1017" 
d="M378 1422c-23.333 -20.667 -45.1699 -41.5049 -65.5029 -62.5049s-38.166 -42.833 -53.499 -65.5s-27.5 -46 -36.5 -70s-13.5 -49.333 -13.5 -76c0 -9.33301 0.5 -17.666 1.5 -24.999l3.5 -25l5 1c11.333 22.667 26.333 39.334 45 50.001s38 16 58 16
c15.333 0 30.5 -3 45.5 -9s28.333 -14.667 40 -26s21.167 -25.166 28.5 -41.499s11 -34.833 11 -55.5c0 -17.333 -3 -33.833 -9 -49.5s-14.667 -29.167 -26 -40.5s-25.166 -20.333 -41.499 -27s-35.166 -10 -56.499 -10c-25.333 0 -49.666 4.83301 -72.999 14.5
s-44 23.834 -62 42.501s-32.333 41.667 -43 69s-16 58.666 -16 93.999c0 60.667 17.167 120.5 51.5 179.5s85.833 116.5 154.5 172.5c11.333 -7.33301 21.166 -15.666 29.499 -24.999s15.833 -19.666 22.5 -30.999zM817.996 1422
c-23.333 -20.667 -45.1699 -41.5049 -65.5029 -62.5049s-38.166 -42.833 -53.499 -65.5s-27.5 -46 -36.5 -70s-13.5 -49.333 -13.5 -76c0 -9.33301 0.5 -17.666 1.5 -24.999l3.5 -25l5 1c11.333 22.667 26.333 39.334 45 50.001s38 16 58 16c15.333 0 30.5 -3 45.5 -9
s28.333 -14.667 40 -26s21.167 -25.166 28.5 -41.499s11 -34.833 11 -55.5c0 -17.333 -3 -33.833 -9 -49.5s-14.667 -29.167 -26 -40.5s-25.166 -20.333 -41.499 -27s-35.166 -10 -56.499 -10c-25.333 0 -49.666 4.83301 -72.999 14.5s-44 23.834 -62 42.501
s-32.333 41.667 -43 69s-16 58.666 -16 93.999c0 60.667 17.167 120.5 51.5 179.5s85.833 116.5 154.5 172.5c11.333 -7.33301 21.166 -15.666 29.499 -24.999s15.833 -19.666 22.5 -30.999z" />
    <glyph glyph-name="quotedblright" unicode="&#x201d;" horiz-adv-x="1017" 
d="M199 954c22.667 20.667 44.332 41.5029 64.999 62.5029s38.667 42.833 54 65.5s27.5 46 36.5 70s13.5 49.333 13.5 76c0 9.33301 -0.5 17.666 -1.5 24.999l-3.5 25l-5 -1c-11.333 -23.333 -27 -40.166 -47 -50.499s-40.667 -15.5 -62 -15.5c-15.333 0 -30 2.5 -44 7.5
s-26.667 12.5 -38 22.5s-20.333 22.333 -27 37s-10 31.334 -10 50.001c0 16.667 2.83301 33.5 8.5 50.5s14.167 32.167 25.5 45.5s25.5 24.333 42.5 33s36.833 13 59.5 13c23.333 0 46.333 -4.83301 69 -14.5s43 -23.834 61 -42.501s32.667 -41.667 44 -69s17 -59 17 -95
c0 -60.667 -17.167 -120.334 -51.5 -179.001s-85.833 -116 -154.5 -172c-11.333 7.33301 -21.166 15.666 -29.499 24.999s-15.833 19.666 -22.5 30.999zM638.998 954.003c22.667 20.667 44.332 41.5029 64.999 62.5029s38.667 42.833 54 65.5s27.5 46 36.5 70
s13.5 49.333 13.5 76c0 9.33301 -0.5 17.666 -1.5 24.999l-3.5 25l-5 -1c-11.333 -23.333 -27 -40.166 -47 -50.499s-40.667 -15.5 -62 -15.5c-15.333 0 -30 2.5 -44 7.5s-26.667 12.5 -38 22.5s-20.333 22.333 -27 37s-10 31.334 -10 50.001
c0 16.667 2.83301 33.5 8.5 50.5s14.167 32.167 25.5 45.5s25.5 24.333 42.5 33s36.833 13 59.5 13c23.333 0 46.333 -4.83301 69 -14.5s43 -23.834 61 -42.501s32.667 -41.667 44 -69s17 -59 17 -95c0 -60.667 -17.167 -120.334 -51.5 -179.001s-85.833 -116 -154.5 -172
c-11.333 7.33301 -21.166 15.666 -29.499 24.999s-15.833 19.666 -22.5 30.999z" />
    <glyph glyph-name="quotedblbase" unicode="&#x201e;" horiz-adv-x="1017" 
d="M189 -271c22.667 20.667 44.332 41.5029 64.999 62.5029s38.667 42.833 54 65.5s27.5 46 36.5 70s13.5 49.333 13.5 76c0 9.33301 -0.5 17.666 -1.5 24.999l-3.5 25l-5 -1c-11.333 -23.333 -27 -40.166 -47 -50.499s-40.667 -15.5 -62 -15.5c-15.333 0 -30 2.5 -44 7.5
s-26.667 12.5 -38 22.5s-20.333 22.333 -27 37s-10 31.334 -10 50.001c0 16.667 2.83301 33.5 8.5 50.5s14.167 32.167 25.5 45.5s25.5 24.333 42.5 33s36.833 13 59.5 13c23.333 0 46.333 -4.83301 69 -14.5s43 -23.834 61 -42.501s32.667 -41.667 44 -69s17 -59 17 -95
c0 -60.667 -17.167 -120.334 -51.5 -179.001s-85.833 -116 -154.5 -172c-11.333 7.33301 -21.166 15.666 -29.499 24.999s-15.833 19.666 -22.5 30.999zM628.998 -270.997c22.667 20.667 44.332 41.5029 64.999 62.5029s38.667 42.833 54 65.5s27.5 46 36.5 70
s13.5 49.333 13.5 76c0 9.33301 -0.5 17.666 -1.5 24.999l-3.5 25l-5 -1c-11.333 -23.333 -27 -40.166 -47 -50.499s-40.667 -15.5 -62 -15.5c-15.333 0 -30 2.5 -44 7.5s-26.667 12.5 -38 22.5s-20.333 22.333 -27 37s-10 31.334 -10 50.001
c0 16.667 2.83301 33.5 8.5 50.5s14.167 32.167 25.5 45.5s25.5 24.333 42.5 33s36.833 13 59.5 13c23.333 0 46.333 -4.83301 69 -14.5s43 -23.834 61 -42.501s32.667 -41.667 44 -69s17 -59 17 -95c0 -60.667 -17.167 -120.334 -51.5 -179.001s-85.833 -116 -154.5 -172
c-11.333 7.33301 -21.166 15.666 -29.499 24.999s-15.833 19.666 -22.5 30.999z" />
    <glyph glyph-name="dagger" unicode="&#x2020;" horiz-adv-x="1298" 
d="M754 -88c0 -34.667 -10.166 -61.001 -30.499 -79.001s-45.166 -27 -74.499 -27c-28.667 0 -53.334 9 -74.001 27s-31 44.333 -31 79c0 12.667 1.33301 25.667 4 39s6.16699 32.666 10.5 57.999s9.16602 58.833 14.499 100.5s10.166 96.834 14.499 165.501
s8.16602 153 11.499 253s5.33301 221.333 6 364c-56 -3.33301 -103.5 -8.33301 -142.5 -15s-72.5 -13.5 -100.5 -20.5l-71.5 -18.5c-19.667 -5.33301 -37.834 -8 -54.501 -8c-34.667 0 -61 10.333 -79 31s-27 45.334 -27 74.001c0 29.333 9 54.166 27 74.499
s44.333 30.5 79 30.5c16.667 0 34.834 -2.66699 54.501 -8l71.5 -18.5c28 -7 61.5 -14 100.5 -21s86.5 -12.167 142.5 -15.5c-2 62.667 -6.33301 115.5 -13 158.5s-13.5 79.833 -20.5 110.5s-13.333 56.334 -19 77.001s-8.5 40 -8.5 58c0 34.667 10.333 61 31 79
s45.334 27 74.001 27c29.333 0 54.166 -9 74.499 -27s30.5 -44.333 30.5 -79c0 -18 -2.83301 -37.333 -8.5 -58s-12 -46.334 -19 -77.001s-13.833 -67.5 -20.5 -110.5s-11 -95.833 -13 -158.5c56 3.33301 103.5 8.5 142.5 15.5s72.5 14 100.5 21l71.5 18.5
c19.667 5.33301 37.834 8 54.501 8c34.667 0 61 -10.167 79 -30.5s27 -45.166 27 -74.499c0 -28.667 -9 -53.334 -27 -74.001s-44.333 -31 -79 -31c-16.667 0 -34.834 2.66699 -54.501 8l-71.5 18.5c-28 7 -61.667 13.833 -101 20.5s-87 11.667 -143 15
c0.666992 -106.667 2 -201.334 4 -284.001s4.5 -155.667 7.5 -219s6.33301 -117.666 10 -162.999s7.33398 -84.166 11.001 -116.499s7.33398 -59 11.001 -80l9.5 -53l6.5 -36c1.66699 -9.66699 2.5 -19.167 2.5 -28.5z" />
    <glyph glyph-name="daggerdbl" unicode="&#x2021;" horiz-adv-x="1358" 
d="M574 1381c0 34.667 10.333 61 31 79s45.334 27 74.001 27c29.333 0 54.166 -9 74.499 -27s30.5 -44.333 30.5 -79c0 -17.333 -2.66699 -36.333 -8 -57s-11.5 -45.834 -18.5 -75.501s-13.833 -65.5 -20.5 -107.5s-11.334 -93.333 -14.001 -154
c56 3.33301 103.5 8.5 142.5 15.5s72.5 14 100.5 21l71.5 18.5c19.667 5.33301 37.834 8 54.501 8c34.667 0 61 -10.167 79 -30.5s27 -45.166 27 -74.499c0 -28.667 -9 -53.334 -27 -74.001s-44.333 -31 -79 -31c-17.333 0 -35.833 2.66699 -55.5 8l-71.5 18.5
c-28 7 -61.5 13.833 -100.5 20.5s-86.5 11.667 -142.5 15v-512c56 3.33301 103.5 8.5 142.5 15.5s72.5 14 100.5 21l71.5 18.5c19.667 5.33301 38.167 8 55.5 8c34.667 0 61 -10.333 79 -31s27 -45.334 27 -74.001c0 -29.333 -9 -54.166 -27 -74.499
s-44.333 -30.5 -79 -30.5c-16.667 0 -34.834 2.66699 -54.501 8l-71.5 18.5c-28 7 -61.5 13.833 -100.5 20.5s-86.5 11.667 -142.5 15c2.66699 -60.667 7.33398 -112 14.001 -154s13.5 -77.667 20.5 -107l18.5 -75c5.33301 -20.667 8 -39.667 8 -57
c0 -34.667 -10.333 -61 -31 -79s-45.334 -27 -74.001 -27c-29.333 0 -54.166 9 -74.499 27s-30.5 44.333 -30.5 79c0 17.333 2.66699 36.333 8 57l18.5 75c7 29.333 13.833 65 20.5 107s11 93.333 13 154c-56 -3.33301 -103.5 -8.33301 -142.5 -15s-72.333 -13.5 -100 -20.5
l-71 -18.5c-19.667 -5.33301 -37.834 -8 -54.501 -8c-34.667 0 -61 10.167 -79 30.5s-27 45.166 -27 74.499c0 28.667 9 53.334 27 74.001s44.333 31 79 31c16.667 0 34.834 -2.66699 54.501 -8l71.5 -18.5c28 -7 61.667 -14 101 -21s87 -12.167 143 -15.5v512
c-56 -3.33301 -103.667 -8.33301 -143 -15s-73 -13.5 -101 -20.5l-71.5 -18.5c-19.667 -5.33301 -37.834 -8 -54.501 -8c-34.667 0 -61 10.333 -79 31s-27 45.334 -27 74.001c0 29.333 9 54.166 27 74.499s44.333 30.5 79 30.5c16.667 0 34.834 -2.66699 54.501 -8l71 -18.5
c27.667 -7 61 -14 100 -21s86.5 -12.167 142.5 -15.5c-2 60.667 -6.33301 112 -13 154s-13.5 77.833 -20.5 107.5s-13.167 54.834 -18.5 75.501s-8 39.667 -8 57z" />
    <glyph glyph-name="bullet" unicode="&#x2022;" horiz-adv-x="816" 
d="M410 1040c5.33301 -10 12 -18.1699 20 -24.5029s16 -12 24 -17s15.5 -10.333 22.5 -16s12.5 -13.167 16.5 -22.5l2 -1c8 2.66699 16 4 24 4c10.667 0 21.5 -1.5 32.5 -4.5s22.5 -4.5 34.5 -4.5c8.66699 0 16.667 1.33301 24 4l4 -4c-2.66699 -7.33301 -4 -15.333 -4 -24
c0 -12 1.5 -23.5 4.5 -34.5s4.5 -21.833 4.5 -32.5c0 -8 -1.33301 -15.667 -4 -23l1 -3c9.33301 -4 16.833 -9.5 22.5 -16.5s11 -14.5 16 -22.5s10.5 -15.833 16.5 -23.5s14.333 -14.5 25 -20.5v-4c-10 -5.33301 -18.167 -12 -24.5 -20s-12 -16 -17 -24
s-10.333 -15.5 -16 -22.5s-13.167 -12.5 -22.5 -16.5l-1 -3c1.33301 -4 2.33301 -8 3 -12s1 -7.66699 1 -11c0 -11.333 -1.5 -22.5 -4.5 -33.5s-4.5 -22.167 -4.5 -33.5c0 -8 1.33301 -16 4 -24l-4 -4c-4 1.33301 -8 2.33301 -12 3s-8 1 -12 1
c-12 0 -23.5 -1.66699 -34.5 -5s-21.833 -5 -32.5 -5c-6 0 -14 1.66699 -24 5l-2 -1c-4 -9.33301 -9.5 -16.833 -16.5 -22.5s-14.5 -11 -22.5 -16s-16 -10.5 -24 -16.5s-14.667 -14.333 -20 -25h-4c-6 10 -13 18 -21 24s-16 11.667 -24 17s-15.333 10.833 -22 16.5
s-12 13.167 -16 22.5l-3 1c-10 -3.33301 -17.667 -5 -23 -5c-11.333 0 -22.5 1.66699 -33.5 5s-22.167 5 -33.5 5c-4 0 -7.83301 -0.333008 -11.5 -1s-7.83398 -1.66699 -12.501 -3l-4 4c1.33301 4 2.33301 8 3 12s1 8 1 12c0 11.333 -1.66699 22.5 -5 33.5
s-5 22.167 -5 33.5c0 3.33301 0.166992 7 0.5 11s1.5 8 3.5 12l-1 3c-9.33301 4 -16.833 9.5 -22.5 16.5s-11 14.5 -16 22.5s-10.5 16 -16.5 24s-14 14.667 -24 20v4c10 6 18 12.833 24 20.5s11.667 15.5 17 23.5s10.833 15.5 16.5 22.5s13.167 12.5 22.5 16.5l1 3
c-3.33301 8.66699 -5 16.334 -5 23.001c0 10.667 1.66699 21.5 5 32.5s5 22.5 5 34.5c0 4 -0.333008 8 -1 12s-1.66699 8 -3 12l4 4c7.33301 -2.66699 15.333 -4 24 -4c11.333 0 22.5 1.5 33.5 4.5s22.167 4.5 33.5 4.5c3.33301 0 6.83301 -0.166992 10.5 -0.5
s7.83398 -1.16602 12.501 -2.49902l3 1c4 8.66699 9.33301 15.834 16 21.501s14 11 22 16s16 10.667 24 17s15 14.5 21 24.5h4zM215 650.997c0 -10 1.50098 -20.001 4.50098 -30.001s4.5 -20.333 4.5 -31c0 -6.66699 -1 -14 -3 -22l3 -3c8.66699 2 16 3 22 3
c10.667 0 21 -1.5 31 -4.5s20 -4.5 30 -4.5c5.33301 0 11 1 17 3c-23.333 10.667 -44.333 25.334 -63 44.001s-33.334 39.667 -44.001 63c-1.33301 -3.33301 -2 -6.5 -2 -9.5v-8.5zM509.001 558.996c9.33301 0 19 1.49902 29 4.49902s20.667 4.5 32 4.5
c6.66699 0 14 -1 22 -3l3 3c-2 8.66699 -3 16 -3 22c0 10.667 1.33301 21 4 31s4 20 4 30c0 5.33301 -1 11 -3 17c-10.667 -23.333 -25.167 -44.166 -43.5 -62.499s-39.5 -32.833 -63.5 -43.5c6.66699 -2 13 -3 19 -3zM410.001 489.995
c4.66699 8.66699 10.501 15.832 17.501 21.499s14 10.667 21 15s13.667 9 20 14s11.166 11.167 14.499 18.5c-24 -9.33301 -49 -14 -75 -14s-51.333 4.66699 -76 14c4 -8 9 -14.5 15 -19.5s12.5 -9.66699 19.5 -14s14 -9.16602 21 -14.499s13.167 -12.333 18.5 -21h4z
M200.002 752.993c0 25.333 4.66504 49.999 13.998 73.999c-7.33301 -4 -13.5 -9 -18.5 -15s-9.66699 -12.5 -14 -19.5s-9.16602 -14 -14.499 -21s-12.333 -12.833 -21 -17.5v-4c8.66699 -5.33301 15.667 -11.333 21 -18s10.333 -13.5 15 -20.5s9.33398 -13.667 14.001 -20
s10.667 -11.5 18 -15.5c-9.33301 24.667 -14 50.334 -14 77.001zM307 943.992c-10 0 -20.001 -1.33203 -30.001 -3.99902s-20.333 -4 -31 -4c-6.66699 0 -14 1 -22 3l-3 -3c2 -8 3 -15.333 3 -22c0 -11.333 -1.5 -22 -4.5 -32s-4.5 -19.667 -4.5 -29c0 -5.33301 1 -11 3 -17
c10.667 23.333 25 44.166 43 62.499s38.667 32.833 62 43.5c-3.33301 1.33301 -6.16602 2 -8.49902 2h-7.5zM669.999 753.993c-9.33301 4.66699 -16.668 10.5 -22.001 17.5s-10.166 14 -14.499 21s-8.83301 13.5 -13.5 19.5s-10.667 11 -18 15
c9.33301 -24 14 -48.667 14 -74c0 -28 -5 -53.333 -15 -76c7.33301 4 13.333 9 18 15s9.33398 12.5 14.001 19.5s9.66699 14 15 21s12.666 12.833 21.999 17.5v4zM599.997 852.993c0 9.33301 -1.33398 19 -4.00098 29s-4 20.667 -4 32c0 6.66699 1 14 3 22l-3 3
c-8 -2 -15.333 -3 -22 -3c-11.333 0 -22 1.33301 -32 4s-19.667 4 -29 4c-2.66699 0 -5.16699 -0.166992 -7.5 -0.5s-5.16602 -0.833008 -8.49902 -1.5c23.333 -10.667 44 -25 62 -43s32.333 -38.667 43 -62c1.33301 6.66699 2 12 2 16zM405.996 1013.99
c-5.33301 -8.66699 -11.332 -15.8359 -17.999 -21.5029s-13.5 -10.667 -20.5 -15s-13.5 -8.83301 -19.5 -13.5s-11 -10.667 -15 -18c11.333 4.66699 23.333 8.33398 36 11.001s25.667 4 39 4c25.333 0 50 -4.66699 74 -14c-4 6.66699 -9 12.334 -15 17.001
s-12.5 9.33398 -19.5 14.001s-13.833 9.66699 -20.5 15s-12.334 12.333 -17.001 21h-4z" />
    <glyph glyph-name="ellipsis" unicode="&#x2026;" horiz-adv-x="1659" 
d="M286 -28c-20 0 -38.3311 3.33301 -54.998 10s-31.334 16.167 -44.001 28.5s-22.5 27 -29.5 44s-10.5 35.5 -10.5 55.5s3.66699 38.5 11 55.5s17.166 31.667 29.499 44s27 22 44 29s35.167 10.5 54.5 10.5s37.5 -3.33301 54.5 -10s31.667 -16.167 44 -28.5
s22.166 -27 29.499 -44s11 -35.5 11 -55.5s-3.66699 -38.5 -11 -55.5s-17.166 -31.667 -29.499 -44s-27 -22 -44 -29s-35.167 -10.5 -54.5 -10.5zM839.002 -28c-20 0 -38.3311 3.33301 -54.998 10s-31.334 16.167 -44.001 28.5s-22.5 27 -29.5 44s-10.5 35.5 -10.5 55.5
s3.66699 38.5 11 55.5s17.166 31.667 29.499 44s27 22 44 29s35.167 10.5 54.5 10.5s37.5 -3.33301 54.5 -10s31.667 -16.167 44 -28.5s22.166 -27 29.499 -44s11 -35.5 11 -55.5s-3.66699 -38.5 -11 -55.5s-17.166 -31.667 -29.499 -44s-27 -22 -44 -29
s-35.167 -10.5 -54.5 -10.5zM1392 -28c-20 0 -38.3311 3.33301 -54.998 10s-31.334 16.167 -44.001 28.5s-22.5 27 -29.5 44s-10.5 35.5 -10.5 55.5s3.66699 38.5 11 55.5s17.166 31.667 29.499 44s27 22 44 29s35.167 10.5 54.5 10.5s37.5 -3.33301 54.5 -10
s31.667 -16.167 44 -28.5s22.166 -27 29.499 -44s11 -35.5 11 -55.5s-3.66699 -38.5 -11 -55.5s-17.166 -31.667 -29.499 -44s-27 -22 -44 -29s-35.167 -10.5 -54.5 -10.5z" />
    <glyph glyph-name="perthousand" unicode="&#x2030;" horiz-adv-x="2652" 
d="M455 630c-53.333 0 -100.833 9.66699 -142.5 29s-76.667 46.833 -105 82.5s-50 78.834 -65 129.501s-22.5 107.667 -22.5 171c0 65.333 8.16699 124.333 24.5 177s39.5 97.5 69.5 134.5s66.667 65.333 110 85s92 29.5 146 29.5c52 0 98.5 -9.66699 139.5 -29
s75.667 -46.833 104 -82.5s50 -78.834 65 -129.501s22.5 -107.667 22.5 -171c0 -62 -7.33301 -119 -22 -171s-36.5 -96.833 -65.5 -134.5s-65 -67.167 -108 -88.5s-93.167 -32 -150.5 -32zM458 690c29.333 0 55.833 4.66699 79.5 14s44 27.166 61 53.499s30 63.333 39 111
s13.5 109.834 13.5 186.501c0 74.667 -4.33301 135.334 -13 182.001s-21 83 -37 109s-35.5 43.5 -58.5 52.5s-48.833 13.5 -77.5 13.5c-30 0 -56.833 -4.66699 -80.5 -14s-44 -27.166 -61 -53.499s-30 -63.333 -39 -111s-13.5 -109.834 -13.5 -186.501
c0 -74.667 4.33301 -135.334 13 -182.001s21 -83 37 -109s35.5 -43.5 58.5 -52.5s49.167 -13.5 78.5 -13.5zM1365 -28c-53.333 0 -100.833 9.66699 -142.5 29s-76.667 46.833 -105 82.5s-50 78.834 -65 129.501s-22.5 107.667 -22.5 171c0 65.333 8.16699 124.333 24.5 177
s39.5 97.5 69.5 134.5s66.667 65.333 110 85s92 29.5 146 29.5c52 0 98.5 -9.66699 139.5 -29s75.667 -46.833 104 -82.5s50 -78.834 65 -129.501s22.5 -107.667 22.5 -171c0 -62 -7.33301 -119 -22 -171s-36.5 -96.833 -65.5 -134.5s-65 -67.167 -108 -88.5
s-93.167 -32 -150.5 -32zM1368 32c29.333 0 55.833 4.66699 79.5 14s44 27.166 61 53.499s30 63.333 39 111s13.5 109.834 13.5 186.501c0 74.667 -4.33301 135.334 -13 182.001s-21 83 -37 109s-35.5 43.5 -58.5 52.5s-48.833 13.5 -77.5 13.5
c-30 0 -56.833 -4.66699 -80.5 -14s-44 -27.166 -61 -53.499s-30 -63.333 -39 -111s-13.5 -109.834 -13.5 -186.501c0 -74.667 4.33301 -135.334 13 -182.001s21 -83 37 -109s35.5 -43.5 58.5 -52.5s49.167 -13.5 78.5 -13.5zM2186 -28
c-53.333 0 -100.833 9.66699 -142.5 29s-76.667 46.833 -105 82.5s-50 78.834 -65 129.501s-22.5 107.667 -22.5 171c0 65.333 8.16699 124.333 24.5 177s39.5 97.5 69.5 134.5s66.667 65.333 110 85s92 29.5 146 29.5c52 0 98.5 -9.66699 139.5 -29
s75.667 -46.833 104 -82.5s50 -78.834 65 -129.501s22.5 -107.667 22.5 -171c0 -62 -7.33301 -119 -22 -171s-36.5 -96.833 -65.5 -134.5s-65 -67.167 -108 -88.5s-93.167 -32 -150.5 -32zM2189 32c29.333 0 55.833 4.66699 79.5 14s44 27.166 61 53.499s30 63.333 39 111
s13.5 109.834 13.5 186.501c0 74.667 -4.33301 135.334 -13 182.001s-21 83 -37 109s-35.5 43.5 -58.5 52.5s-48.833 13.5 -77.5 13.5c-30 0 -56.833 -4.66699 -80.5 -14s-44 -27.166 -61 -53.499s-30 -63.333 -39 -111s-13.5 -109.834 -13.5 -186.501
c0 -74.667 4.33301 -135.334 13 -182.001s21 -83 37 -109s35.5 -43.5 58.5 -52.5s49.167 -13.5 78.5 -13.5zM1408 1487c14 -6.66699 25.833 -13.668 35.5 -21.001s19.167 -15.666 28.5 -24.999l-1038 -1475c-13.333 6 -25 12.5 -35 19.5s-19.667 15.5 -29 25.5z" />
    <glyph glyph-name="guilsinglleft" unicode="&#x2039;" horiz-adv-x="635" 
d="M140 448l304 324.002c9.33301 -4.66699 18.166 -9.83398 26.499 -15.501s16.5 -12.167 24.5 -19.5l-195 -312l195 -312c-8 -7.33301 -16.167 -13.833 -24.5 -19.5s-17.166 -10.834 -26.499 -15.501l-304 324v46z" />
    <glyph glyph-name="guilsinglright" unicode="&#x203a;" horiz-adv-x="635" 
d="M495 402l-304 -324.002c-9.33301 4.66699 -18.166 9.83398 -26.499 15.501s-16.5 12.167 -24.5 19.5l195 312l-195 312c8 7.33301 16.167 13.833 24.5 19.5s17.166 10.834 26.499 15.501l304 -324v-46z" />
    <glyph glyph-name="fraction" unicode="&#x2044;" horiz-adv-x="902" 
d="M938 1487c14 -6.66699 25.833 -13.668 35.5 -21.001s19.167 -15.666 28.5 -24.999l-1038 -1475c-13.333 6 -25 12.5 -35 19.5s-19.667 15.5 -29 25.5z" />
    <glyph glyph-name="fraction" unicode="&#x2215;" horiz-adv-x="902" 
d="M938 1487c14 -6.66699 25.833 -13.668 35.5 -21.001s19.167 -15.666 28.5 -24.999l-1038 -1475c-13.333 6 -25 12.5 -35 19.5s-19.667 15.5 -29 25.5z" />
    <glyph glyph-name="uni2060" unicode="&#x2060;" 
 />
    <glyph glyph-name="Euro" unicode="&#x20ac;" horiz-adv-x="1142" 
d="M965 315c13.333 -1.33301 26.6729 -3.66602 40.0059 -6.99902s26 -7.33301 38 -12c-25.333 -111.333 -68.333 -193.166 -129 -245.499s-139.667 -78.5 -237 -78.5c-66 0 -125.333 11.167 -178 33.5s-98.334 53.166 -137.001 92.499s-70.334 86.166 -95.001 140.499
s-42.334 113.5 -53.001 177.5h-154l22 80h123c-0.666992 9.33301 -1.16699 20.5 -1.5 33.5s-0.5 24.5 -0.5 34.5c0 14 0.333008 26.333 1 37s1 19 1 25h-133l22 80h119c11.333 72.667 31 138.167 59 196.5s63.333 108 106 149s91.667 72.5 147 94.5s115.666 33 180.999 33
c50.667 0 96.667 -6.33301 138 -19s76.666 -29.667 105.999 -51s52 -45.833 68 -73.5s24 -56.834 24 -87.501c0 -21.333 -3.5 -39.166 -10.5 -53.499s-16.167 -25.833 -27.5 -34.5s-23.833 -15 -37.5 -19s-26.834 -6 -39.501 -6c-16 0 -30.667 2.66699 -44 8
s-24.833 12.666 -34.5 21.999s-17.167 20.333 -22.5 33s-8 26.334 -8 41.001c0 18 4.33301 37.333 13 58s22.334 39.667 41.001 57c-22.667 18.667 -48.834 31.167 -78.501 37.5s-58.834 9.5 -87.501 9.5c-38.667 0 -74.667 -5.5 -108 -16.5s-62.833 -31 -88.5 -60
s-47 -69.167 -64 -120.5s-28.5 -117.333 -34.5 -198h447l-22 -80h-429v-54v-39c0 -12.667 0.333008 -25 1 -37h394l-22 -80h-367c6.66699 -74 18.334 -134.667 35.001 -182s37.167 -84.5 61.5 -111.5s51.833 -45.5 82.5 -55.5s63.334 -15 98.001 -15
c32 0 62 4.16699 90 12.5s53.667 22.5 77 42.5s44.166 46.833 62.499 80.5s33.5 76.167 45.5 127.5z" />
    <glyph glyph-name="trademark" unicode="&#x2122;" horiz-adv-x="1861" 
d="M85 1453h640.996l12 -230h-45c-4.66699 36.667 -10.667 66.334 -18 89.001s-17.666 40.5 -30.999 53.5s-30.666 21.833 -51.999 26.5s-48.333 7 -81 7h-41v-627h111v-54h-354v54h111v627h-38c-33.333 0 -60.666 -2.33301 -81.999 -7s-38.666 -13.334 -51.999 -26.001
s-23.833 -30.5 -31.5 -53.5s-14.167 -52.833 -19.5 -89.5h-45zM1559 772v625h-2l-264 -687h-82l-247 686h-2v-624h91v-54h-254v54h106v627h-106v54h282l211 -586h2l226 586h276v-54h-106v-627h106v-54h-329v54h92z" />
    <glyph glyph-name="minus" unicode="&#x2212;" horiz-adv-x="1132" 
d="M1002 470v-88h-872v88h872z" />
    <glyph glyph-name="uni25CC" unicode="&#x25cc;" horiz-adv-x="1188" 
d="M956 780c0 -32.667 -15.667 -49 -47 -49c-33.333 0 -50 16.333 -50 49c0 32 16.667 48 50 48c31.333 0 47 -16 47 -48zM812 875c0 -32 -15.667 -48 -47 -48c-34 0 -51 16 -51 48c0 33.333 17 50 51 50c31.333 0 47 -16.667 47 -50zM1053 635
c0 -33.333 -16.667 -50 -50 -50c-32 0 -48 16.667 -48 50c0 32 16.667 48 50 48c32 0 48 -16 48 -48zM1088 465c0 -32 -15.667 -48 -47 -48c-34 0 -51 16 -51 48c0 32.667 17 49 51 49c31.333 0 47 -16.333 47 -49zM642 911c0 -33.333 -16.333 -50 -49 -50
c-32 0 -48 16.667 -48 50c0 32 16 48 48 48c32.667 0 49 -16 49 -48zM474 875c0 -32 -16.667 -48 -50 -48c-32 0 -48 16 -48 48c0 33.333 16 50 48 50c33.333 0 50 -16.667 50 -50zM1053 296c0 -32 -16.667 -48 -50 -48c-32 0 -48 16 -48 48c0 33.333 16 50 48 50
c33.333 0 50 -16.667 50 -50zM329 780c0 -32.667 -16.333 -49 -49 -49c-32 0 -48 15.333 -48 46c0 34 16 51 48 51c32.667 0 49 -16 49 -48zM956 150c0 -32 -15.667 -48 -47 -48c-33.333 0 -50 16 -50 48c0 32.667 16.667 49 50 49c31.333 0 47 -16.333 47 -49zM812 54
c0 -31.333 -15.667 -47 -47 -47c-34 0 -51 15.667 -51 47c0 34 17 51 51 51c31.333 0 47 -17 47 -51zM233 635c0 -33.333 -15.667 -50 -47 -50c-34 0 -51 16.667 -51 50c0 32 16.333 48 49 48s49 -16 49 -48zM198 465c0 -16 -3.5 -28 -10.5 -36s-19.167 -12 -36.5 -12
c-34 0 -51 16 -51 48c0 32.667 17 49 51 49c17.333 0 29.5 -4 36.5 -12s10.5 -20.333 10.5 -37zM642 22c0 -33.333 -16.333 -50 -49 -50c-32 0 -48 16.667 -48 50c0 32 16 48 48 48c32.667 0 49 -16 49 -48zM233 296c0 -32 -16.333 -48 -49 -48s-49 16 -49 48
c0 33.333 16.333 50 49 50s49 -16.667 49 -50zM474 58c0 -34 -16.667 -51 -50 -51c-32 0 -48 15.667 -48 47c0 34 16 51 48 51c33.333 0 50 -15.667 50 -47zM329 150c0 -32 -16.333 -48 -49 -48c-32 0 -48 16 -48 48c0 32.667 16 49 48 49c32.667 0 49 -16.333 49 -49z" />
    <glyph glyph-name="uni25FB" unicode="&#x25fb;" horiz-adv-x="1220" 
d="M180 905h860v-860h-860v860zM260 125h700v700h-700v-700z" />
    <glyph glyph-name="uni25FC" unicode="&#x25fc;" horiz-adv-x="1220" 
d="M180 905h860v-860h-860v860z" />
    <glyph glyph-name="uni25FD" unicode="&#x25fd;" horiz-adv-x="1220" 
d="M352 733h516v-516h-516v516zM422 288h376v375h-376v-375z" />
    </font>
</defs>
</svg>
